<?xml version="1.0" encoding="UTF-8" standalone="no"?><svg xmlns="http://www.w3.org/2000/svg" xmlns:xlink="http://www.w3.org/1999/xlink" contentStyleType="text/css" height="1398px" preserveAspectRatio="none" style="width:997px;height:1398px;background:#FFFFFF;" version="1.1" viewBox="0 0 997 1398" width="997px" zoomAndPan="magnify"><defs/><g><!--MD5=[51fd3fce36c976f35b405d5800336138]
class UserStatus--><g id="elem_UserStatus"><rect codeLine="3" fill="#F1F1F1" height="86.2402" id="UserStatus" rx="2.5" ry="2.5" style="stroke:#181818;stroke-width:0.5;" width="101" x="7" y="834.5"/><ellipse cx="22" cy="850.5" fill="#EB937F" rx="11" ry="11" style="stroke:#181818;stroke-width:1.0;"/><path d="M18.0625,846.5 L18.0625,844.8125 L25.7813,844.8125 L26.7344,848.0313 L25.9219,848.6563 Q25.1563,847.3906 24.5313,846.9531 Q23.9063,846.5 23.1875,846.5 L21.0313,846.5 Q20.8281,846.5 20.75,846.5469 Q20.6875,846.5781 20.6875,846.6094 L20.6875,849.8125 L22.1563,849.8125 Q22.625,849.8125 22.8125,849.5938 Q23,849.3594 23,848.8125 L23,848.0625 L24.6875,848.0625 L24.6875,853.25 L23,853.25 L23,852.6406 Q23,852.0469 22.7969,851.7813 Q22.6094,851.5 22.1563,851.5 L20.6875,851.5 L20.6875,854.7656 Q20.6719,854.7656 20.7344,854.7969 Q20.7969,854.8125 21,854.8125 L22.9219,854.8125 Q23.9219,854.8125 24.6094,854.3281 Q25.2969,853.8438 25.8594,852.3594 L26.7344,853.0156 L25.8281,856.5 L18,856.5 L18,854.8125 L18.7344,854.8125 Q18.9531,854.8125 18.9688,854.7969 Q19,854.7813 19,854.7031 L19,846.6094 Q19,846.5313 18.9688,846.5156 Q18.9531,846.5 18.7344,846.5 L18.0625,846.5 Z " fill="#000000"/><text fill="#000000" font-family="sans-serif" font-size="14" lengthAdjust="spacing" textLength="69" x="36" y="856.9839">UserStatus</text><line style="stroke:#181818;stroke-width:0.5;" x1="8" x2="107" y1="866.5" y2="866.5"/><text fill="#000000" font-family="sans-serif" font-size="14" lengthAdjust="spacing" textLength="49" x="13" y="886.5439">ONLINE</text><text fill="#000000" font-family="sans-serif" font-size="14" lengthAdjust="spacing" textLength="58" x="13" y="905.6641">OFFLINE</text><line style="stroke:#181818;stroke-width:0.5;" x1="8" x2="107" y1="912.7402" y2="912.7402"/></g><!--MD5=[2ecf1105c8164485bc3e6f82ac667166]
class CityCategory--><g id="elem_CityCategory"><rect codeLine="8" fill="#F1F1F1" height="105.3604" id="CityCategory" rx="2.5" ry="2.5" style="stroke:#181818;stroke-width:0.5;" width="129" x="561" y="825"/><ellipse cx="582.75" cy="841" fill="#EB937F" rx="11" ry="11" style="stroke:#181818;stroke-width:1.0;"/><path d="M578.8125,837 L578.8125,835.3125 L586.5313,835.3125 L587.4844,838.5313 L586.6719,839.1563 Q585.9063,837.8906 585.2813,837.4531 Q584.6563,837 583.9375,837 L581.7813,837 Q581.5781,837 581.5,837.0469 Q581.4375,837.0781 581.4375,837.1094 L581.4375,840.3125 L582.9063,840.3125 Q583.375,840.3125 583.5625,840.0938 Q583.75,839.8594 583.75,839.3125 L583.75,838.5625 L585.4375,838.5625 L585.4375,843.75 L583.75,843.75 L583.75,843.1406 Q583.75,842.5469 583.5469,842.2813 Q583.3594,842 582.9063,842 L581.4375,842 L581.4375,845.2656 Q581.4219,845.2656 581.4844,845.2969 Q581.5469,845.3125 581.75,845.3125 L583.6719,845.3125 Q584.6719,845.3125 585.3594,844.8281 Q586.0469,844.3438 586.6094,842.8594 L587.4844,843.5156 L586.5781,847 L578.75,847 L578.75,845.3125 L579.4844,845.3125 Q579.7031,845.3125 579.7188,845.2969 Q579.75,845.2813 579.75,845.2031 L579.75,837.1094 Q579.75,837.0313 579.7188,837.0156 Q579.7031,837 579.4844,837 L578.8125,837 Z " fill="#000000"/><text fill="#000000" font-family="sans-serif" font-size="14" lengthAdjust="spacing" textLength="82" x="598.25" y="847.4839">CityCategory</text><line style="stroke:#181818;stroke-width:0.5;" x1="562" x2="689" y1="857" y2="857"/><text fill="#000000" font-family="sans-serif" font-size="14" lengthAdjust="spacing" textLength="57" x="567" y="877.0439">EUROPE</text><text fill="#000000" font-family="sans-serif" font-size="14" lengthAdjust="spacing" textLength="30" x="567" y="896.1641">ASIA</text><text fill="#000000" font-family="sans-serif" font-size="14" lengthAdjust="spacing" textLength="117" x="567" y="915.2842">NORTH_AMERICA</text><line style="stroke:#181818;stroke-width:0.5;" x1="562" x2="689" y1="922.3604" y2="922.3604"/></g><!--MD5=[3fd616f346a44cd59a91eb10b19e157c]
class User--><g id="elem_User"><rect codeLine="14" fill="#F1F1F1" height="373.042" id="User" rx="2.5" ry="2.5" style="stroke:#181818;stroke-width:0.5;" width="389" x="103" y="306"/><ellipse cx="278.75" cy="322" fill="#ADD1B2" rx="11" ry="11" style="stroke:#181818;stroke-width:1.0;"/><path d="M278.4375,328 Q276.5,328 275.375,326.5781 Q274.25,325.1406 274.25,322.1875 Q274.25,319.6875 275.4375,318 Q276.625,316.3125 278.6875,316.3125 Q279.1719,316.3125 279.6719,316.4219 Q280.0781,316.5625 280.3281,316.5625 Q280.5313,316.5625 280.6094,316.5469 Q280.7031,316.5156 281.2344,315.8438 L281.9688,320.0781 L281,320.6719 Q280.5,319.125 279.9219,318.5625 Q279.3594,318 278.4531,318 Q277.2969,318 276.6094,319.1875 Q275.9375,320.3594 275.9375,322.1875 Q275.9375,324.1875 276.5156,325.25 Q277.0938,326.3125 278.3906,326.3125 Q279.3125,326.3125 279.9531,325.75 Q280.6094,325.1719 280.9531,323.7813 L281.9844,324.2969 Q281.5938,326.0469 280.6563,327.0313 Q279.7188,328 278.4375,328 Z " fill="#000000"/><text fill="#000000" font-family="sans-serif" font-size="14" lengthAdjust="spacing" textLength="29" x="299.25" y="328.4839">User</text><line style="stroke:#181818;stroke-width:0.5;" x1="104" x2="491" y1="338" y2="338"/><rect fill="none" height="6" style="stroke:#C82930;stroke-width:1.0;" width="6" x="111" y="350.0601"/><text fill="#000000" font-family="sans-serif" font-size="14" lengthAdjust="spacing" textLength="74" x="123" y="358.0439">userId: long</text><rect fill="none" height="6" style="stroke:#C82930;stroke-width:1.0;" width="6" x="111" y="369.1802"/><text fill="#000000" font-family="sans-serif" font-size="14" lengthAdjust="spacing" textLength="108" x="123" y="377.1641">username: String</text><rect fill="none" height="6" style="stroke:#C82930;stroke-width:1.0;" width="6" x="111" y="388.3003"/><text fill="#000000" font-family="sans-serif" font-size="14" lengthAdjust="spacing" textLength="105" x="123" y="396.2842">password: String</text><rect fill="none" height="6" style="stroke:#C82930;stroke-width:1.0;" width="6" x="111" y="407.4204"/><text fill="#000000" font-family="sans-serif" font-size="14" lengthAdjust="spacing" textLength="145" x="123" y="415.4043">userStatus: UserStatus</text><rect fill="none" height="6" style="stroke:#C82930;stroke-width:1.0;" width="6" x="111" y="426.5405"/><text fill="#000000" font-family="sans-serif" font-size="14" lengthAdjust="spacing" textLength="103" x="123" y="434.5244">createDay: Date</text><rect fill="none" height="6" style="stroke:#C82930;stroke-width:1.0;" width="6" x="111" y="445.6606"/><text fill="#000000" font-family="sans-serif" font-size="14" lengthAdjust="spacing" textLength="91" x="123" y="453.6445">birthDay: Date</text><ellipse cx="114" cy="467.7808" fill="none" rx="3" ry="3" style="stroke:#038048;stroke-width:1.0;"/><text fill="#000000" font-family="sans-serif" font-size="14" lengthAdjust="spacing" textLength="177" x="123" y="472.7646">userStatistics: UserStatistics</text><line style="stroke:#181818;stroke-width:0.5;" x1="104" x2="491" y1="479.8408" y2="479.8408"/><ellipse cx="114" cy="494.9009" fill="#84BE84" rx="3" ry="3" style="stroke:#038048;stroke-width:1.0;"/><text fill="#000000" font-family="sans-serif" font-size="14" lengthAdjust="spacing" textLength="224" x="123" y="499.8848">User(String name, String password)</text><ellipse cx="114" cy="514.021" fill="#84BE84" rx="3" ry="3" style="stroke:#038048;stroke-width:1.0;"/><text fill="#000000" font-family="sans-serif" font-size="14" lengthAdjust="spacing" textLength="105" x="123" y="519.0049">getUserId(): long</text><ellipse cx="114" cy="533.1411" fill="#84BE84" rx="3" ry="3" style="stroke:#038048;stroke-width:1.0;"/><text fill="#000000" font-family="sans-serif" font-size="14" lengthAdjust="spacing" textLength="139" x="123" y="538.125">getUsername(): String</text><ellipse cx="114" cy="552.2612" fill="#84BE84" rx="3" ry="3" style="stroke:#038048;stroke-width:1.0;"/><text fill="#000000" font-family="sans-serif" font-size="14" lengthAdjust="spacing" textLength="203" x="123" y="557.2451">setUsername(String name): void</text><ellipse cx="114" cy="571.3813" fill="#84BE84" rx="3" ry="3" style="stroke:#038048;stroke-width:1.0;"/><text fill="#000000" font-family="sans-serif" font-size="14" lengthAdjust="spacing" textLength="363" x="123" y="576.3652">changePassword(String oldPwd, String newPwd): boolean</text><ellipse cx="114" cy="590.5015" fill="#84BE84" rx="3" ry="3" style="stroke:#038048;stroke-width:1.0;"/><text fill="#000000" font-family="sans-serif" font-size="14" lengthAdjust="spacing" textLength="176" x="123" y="595.4854">getUserStatus(): UserStatus</text><ellipse cx="114" cy="609.6216" fill="#84BE84" rx="3" ry="3" style="stroke:#038048;stroke-width:1.0;"/><text fill="#000000" font-family="sans-serif" font-size="14" lengthAdjust="spacing" textLength="243" x="123" y="614.6055">setUserStatus(UserStatus status): void</text><ellipse cx="114" cy="628.7417" fill="#84BE84" rx="3" ry="3" style="stroke:#038048;stroke-width:1.0;"/><text fill="#000000" font-family="sans-serif" font-size="14" lengthAdjust="spacing" textLength="165" x="123" y="633.7256">getUserCreateDay(): Date</text><ellipse cx="114" cy="647.8618" fill="#84BE84" rx="3" ry="3" style="stroke:#038048;stroke-width:1.0;"/><text fill="#000000" font-family="sans-serif" font-size="14" lengthAdjust="spacing" textLength="151" x="123" y="652.8457">getUserBirthDay(): Date</text><ellipse cx="114" cy="666.9819" fill="#84BE84" rx="3" ry="3" style="stroke:#038048;stroke-width:1.0;"/><text fill="#000000" font-family="sans-serif" font-size="14" lengthAdjust="spacing" textLength="231" x="123" y="671.9658">setUserBirthDay(Date birthday): void</text></g><!--MD5=[2cb47ba637a0d19583e6199456f6ad0b]
class Player--><g id="elem_Player"><rect codeLine="34" fill="#F1F1F1" height="239.2012" id="Player" rx="2.5" ry="2.5" style="stroke:#181818;stroke-width:0.5;" width="258" x="196.5" y="7"/><ellipse cx="301.25" cy="23" fill="#ADD1B2" rx="11" ry="11" style="stroke:#181818;stroke-width:1.0;"/><path d="M300.9375,29 Q299,29 297.875,27.5781 Q296.75,26.1406 296.75,23.1875 Q296.75,20.6875 297.9375,19 Q299.125,17.3125 301.1875,17.3125 Q301.6719,17.3125 302.1719,17.4219 Q302.5781,17.5625 302.8281,17.5625 Q303.0313,17.5625 303.1094,17.5469 Q303.2031,17.5156 303.7344,16.8438 L304.4688,21.0781 L303.5,21.6719 Q303,20.125 302.4219,19.5625 Q301.8594,19 300.9531,19 Q299.7969,19 299.1094,20.1875 Q298.4375,21.3594 298.4375,23.1875 Q298.4375,25.1875 299.0156,26.25 Q299.5938,27.3125 300.8906,27.3125 Q301.8125,27.3125 302.4531,26.75 Q303.1094,26.1719 303.4531,24.7813 L304.4844,25.2969 Q304.0938,27.0469 303.1563,28.0313 Q302.2188,29 300.9375,29 Z " fill="#000000"/><text fill="#000000" font-family="sans-serif" font-size="14" lengthAdjust="spacing" textLength="40" x="321.75" y="29.4839">Player</text><line style="stroke:#181818;stroke-width:0.5;" x1="197.5" x2="453.5" y1="39" y2="39"/><rect fill="none" height="6" style="stroke:#C82930;stroke-width:1.0;" width="6" x="204.5" y="51.0601"/><text fill="#000000" font-family="sans-serif" font-size="14" lengthAdjust="spacing" textLength="74" x="216.5" y="59.0439">userId: long</text><rect fill="none" height="6" style="stroke:#C82930;stroke-width:1.0;" width="6" x="204.5" y="70.1802"/><text fill="#000000" font-family="sans-serif" font-size="14" lengthAdjust="spacing" textLength="120" x="216.5" y="78.1641">playerName: String</text><rect fill="none" height="6" style="stroke:#C82930;stroke-width:1.0;" width="6" x="204.5" y="89.3003"/><text fill="#000000" font-family="sans-serif" font-size="14" lengthAdjust="spacing" textLength="58" x="216.5" y="97.2842">score: int</text><rect fill="none" height="6" style="stroke:#C82930;stroke-width:1.0;" width="6" x="204.5" y="108.4204"/><text fill="#000000" font-family="sans-serif" font-size="14" lengthAdjust="spacing" textLength="150" x="216.5" y="116.4043">answerList: List&lt;String&gt;</text><line style="stroke:#181818;stroke-width:0.5;" x1="197.5" x2="453.5" y1="123.4805" y2="123.4805"/><ellipse cx="207.5" cy="138.5405" fill="#84BE84" rx="3" ry="3" style="stroke:#038048;stroke-width:1.0;"/><text fill="#000000" font-family="sans-serif" font-size="14" lengthAdjust="spacing" textLength="232" x="216.5" y="143.5244">Player(long userId, String username)</text><ellipse cx="207.5" cy="157.6606" fill="#84BE84" rx="3" ry="3" style="stroke:#038048;stroke-width:1.0;"/><text fill="#000000" font-family="sans-serif" font-size="14" lengthAdjust="spacing" textLength="105" x="216.5" y="162.6445">getUserId(): long</text><ellipse cx="207.5" cy="176.7808" fill="#84BE84" rx="3" ry="3" style="stroke:#038048;stroke-width:1.0;"/><text fill="#000000" font-family="sans-serif" font-size="14" lengthAdjust="spacing" textLength="151" x="216.5" y="181.7646">getPlayerName(): String</text><ellipse cx="207.5" cy="195.9009" fill="#84BE84" rx="3" ry="3" style="stroke:#038048;stroke-width:1.0;"/><text fill="#000000" font-family="sans-serif" font-size="14" lengthAdjust="spacing" textLength="90" x="216.5" y="200.8848">getScore(): int</text><ellipse cx="207.5" cy="215.021" fill="#84BE84" rx="3" ry="3" style="stroke:#038048;stroke-width:1.0;"/><text fill="#000000" font-family="sans-serif" font-size="14" lengthAdjust="spacing" textLength="159" x="216.5" y="220.0049">addScore(int score): void</text><ellipse cx="207.5" cy="234.1411" fill="#84BE84" rx="3" ry="3" style="stroke:#038048;stroke-width:1.0;"/><text fill="#000000" font-family="sans-serif" font-size="14" lengthAdjust="spacing" textLength="200" x="216.5" y="239.125">addAnswer(String answer): void</text></g><!--MD5=[5a56d00b2ec6db6c7881cba88cf6014f]
class UserStatistics--><g id="elem_UserStatistics"><rect codeLine="47" fill="#F1F1F1" height="277.4414" id="UserStatistics" rx="2.5" ry="2.5" style="stroke:#181818;stroke-width:0.5;" width="346" x="143.5" y="739"/><ellipse cx="269.75" cy="755" fill="#ADD1B2" rx="11" ry="11" style="stroke:#181818;stroke-width:1.0;"/><path d="M269.4375,761 Q267.5,761 266.375,759.5781 Q265.25,758.1406 265.25,755.1875 Q265.25,752.6875 266.4375,751 Q267.625,749.3125 269.6875,749.3125 Q270.1719,749.3125 270.6719,749.4219 Q271.0781,749.5625 271.3281,749.5625 Q271.5313,749.5625 271.6094,749.5469 Q271.7031,749.5156 272.2344,748.8438 L272.9688,753.0781 L272,753.6719 Q271.5,752.125 270.9219,751.5625 Q270.3594,751 269.4531,751 Q268.2969,751 267.6094,752.1875 Q266.9375,753.3594 266.9375,755.1875 Q266.9375,757.1875 267.5156,758.25 Q268.0938,759.3125 269.3906,759.3125 Q270.3125,759.3125 270.9531,758.75 Q271.6094,758.1719 271.9531,756.7813 L272.9844,757.2969 Q272.5938,759.0469 271.6563,760.0313 Q270.7188,761 269.4375,761 Z " fill="#000000"/><text fill="#000000" font-family="sans-serif" font-size="14" lengthAdjust="spacing" textLength="85" x="290.25" y="761.4839">UserStatistics</text><line style="stroke:#181818;stroke-width:0.5;" x1="144.5" x2="488.5" y1="771" y2="771"/><rect fill="none" height="6" style="stroke:#C82930;stroke-width:1.0;" width="6" x="151.5" y="783.0601"/><text fill="#000000" font-family="sans-serif" font-size="14" lengthAdjust="spacing" textLength="99" x="163.5" y="791.0439">totalScore: long</text><rect fill="none" height="6" style="stroke:#C82930;stroke-width:1.0;" width="6" x="151.5" y="802.1802"/><text fill="#000000" font-family="sans-serif" font-size="14" lengthAdjust="spacing" textLength="128" x="163.5" y="810.1641">totalGameNum: long</text><rect fill="none" height="6" style="stroke:#C82930;stroke-width:1.0;" width="6" x="151.5" y="821.3003"/><text fill="#000000" font-family="sans-serif" font-size="14" lengthAdjust="spacing" textLength="252" x="163.5" y="829.2842">specificScore: Map&lt;CityCategory, long&gt;</text><rect fill="none" height="6" style="stroke:#C82930;stroke-width:1.0;" width="6" x="151.5" y="840.4204"/><text fill="#000000" font-family="sans-serif" font-size="14" lengthAdjust="spacing" textLength="216" x="163.5" y="848.4043">gameHistories: List&lt;GameHistory&gt;</text><line style="stroke:#181818;stroke-width:0.5;" x1="144.5" x2="488.5" y1="855.4805" y2="855.4805"/><ellipse cx="154.5" cy="870.5405" fill="#84BE84" rx="3" ry="3" style="stroke:#038048;stroke-width:1.0;"/><text fill="#000000" font-family="sans-serif" font-size="14" lengthAdjust="spacing" textLength="95" x="163.5" y="875.5244">UserStatistics()</text><ellipse cx="154.5" cy="889.6606" fill="#84BE84" rx="3" ry="3" style="stroke:#038048;stroke-width:1.0;"/><text fill="#000000" font-family="sans-serif" font-size="14" lengthAdjust="spacing" textLength="134" x="163.5" y="894.6445">getTotalScore(): long</text><ellipse cx="154.5" cy="908.7808" fill="#84BE84" rx="3" ry="3" style="stroke:#038048;stroke-width:1.0;"/><text fill="#000000" font-family="sans-serif" font-size="14" lengthAdjust="spacing" textLength="292" x="163.5" y="913.7646">getSpecificScore(CityCategory category): long</text><ellipse cx="154.5" cy="927.9009" fill="#84BE84" rx="3" ry="3" style="stroke:#038048;stroke-width:1.0;"/><text fill="#000000" font-family="sans-serif" font-size="14" lengthAdjust="spacing" textLength="320" x="163.5" y="932.8848">addScore(long score, CityCategory category): void</text><ellipse cx="154.5" cy="947.021" fill="#84BE84" rx="3" ry="3" style="stroke:#038048;stroke-width:1.0;"/><text fill="#000000" font-family="sans-serif" font-size="14" lengthAdjust="spacing" textLength="163" x="163.5" y="952.0049">getTotalGameNum(): long</text><ellipse cx="154.5" cy="966.1411" fill="#84BE84" rx="3" ry="3" style="stroke:#038048;stroke-width:1.0;"/><text fill="#000000" font-family="sans-serif" font-size="14" lengthAdjust="spacing" textLength="135" x="163.5" y="971.125">addGameNum(): long</text><ellipse cx="154.5" cy="985.2612" fill="#84BE84" rx="3" ry="3" style="stroke:#038048;stroke-width:1.0;"/><text fill="#000000" font-family="sans-serif" font-size="14" lengthAdjust="spacing" textLength="157" x="163.5" y="990.2451">showGameHistory(): void</text><ellipse cx="154.5" cy="1004.3813" fill="#84BE84" rx="3" ry="3" style="stroke:#038048;stroke-width:1.0;"/><text fill="#000000" font-family="sans-serif" font-size="14" lengthAdjust="spacing" textLength="276" x="163.5" y="1009.3652">addGameHistory(GameHistory history): void</text></g><!--MD5=[5f1a4ee01b044000409e218144d1ae93]
class UserGameHistory--><g id="elem_UserGameHistory"><rect codeLine="62" fill="#F1F1F1" height="200.9609" id="UserGameHistory" rx="2.5" ry="2.5" style="stroke:#181818;stroke-width:0.5;" width="325" x="129" y="1133.5"/><ellipse cx="232.25" cy="1149.5" fill="#ADD1B2" rx="11" ry="11" style="stroke:#181818;stroke-width:1.0;"/><path d="M231.9375,1155.5 Q230,1155.5 228.875,1154.0781 Q227.75,1152.6406 227.75,1149.6875 Q227.75,1147.1875 228.9375,1145.5 Q230.125,1143.8125 232.1875,1143.8125 Q232.6719,1143.8125 233.1719,1143.9219 Q233.5781,1144.0625 233.8281,1144.0625 Q234.0313,1144.0625 234.1094,1144.0469 Q234.2031,1144.0156 234.7344,1143.3438 L235.4688,1147.5781 L234.5,1148.1719 Q234,1146.625 233.4219,1146.0625 Q232.8594,1145.5 231.9531,1145.5 Q230.7969,1145.5 230.1094,1146.6875 Q229.4375,1147.8594 229.4375,1149.6875 Q229.4375,1151.6875 230.0156,1152.75 Q230.5938,1153.8125 231.8906,1153.8125 Q232.8125,1153.8125 233.4531,1153.25 Q234.1094,1152.6719 234.4531,1151.2813 L235.4844,1151.7969 Q235.0938,1153.5469 234.1563,1154.5313 Q233.2188,1155.5 231.9375,1155.5 Z " fill="#000000"/><text fill="#000000" font-family="sans-serif" font-size="14" lengthAdjust="spacing" textLength="110" x="252.75" y="1155.9839">UserGameHistory</text><line style="stroke:#181818;stroke-width:0.5;" x1="130" x2="453" y1="1165.5" y2="1165.5"/><rect fill="none" height="6" style="stroke:#C82930;stroke-width:1.0;" width="6" x="137" y="1177.5601"/><text fill="#000000" font-family="sans-serif" font-size="14" lengthAdjust="spacing" textLength="81" x="149" y="1185.5439">gameId: long</text><rect fill="none" height="6" style="stroke:#C82930;stroke-width:1.0;" width="6" x="137" y="1196.6802"/><text fill="#000000" font-family="sans-serif" font-size="14" lengthAdjust="spacing" textLength="127" x="149" y="1204.6641">gameInfo: GameInfo</text><rect fill="none" height="6" style="stroke:#C82930;stroke-width:1.0;" width="6" x="137" y="1215.8003"/><text fill="#000000" font-family="sans-serif" font-size="14" lengthAdjust="spacing" textLength="58" x="149" y="1223.7842">score: int</text><rect fill="none" height="6" style="stroke:#C82930;stroke-width:1.0;" width="6" x="137" y="1234.9204"/><text fill="#000000" font-family="sans-serif" font-size="14" lengthAdjust="spacing" textLength="150" x="149" y="1242.9043">answerList: List&lt;String&gt;</text><line style="stroke:#181818;stroke-width:0.5;" x1="130" x2="453" y1="1249.9805" y2="1249.9805"/><ellipse cx="140" cy="1265.0405" fill="#84BE84" rx="3" ry="3" style="stroke:#038048;stroke-width:1.0;"/><text fill="#000000" font-family="sans-serif" font-size="14" lengthAdjust="spacing" textLength="299" x="149" y="1270.0244">GameHistory(long gameId, GameInfo gameInfo)</text><ellipse cx="140" cy="1284.1606" fill="#84BE84" rx="3" ry="3" style="stroke:#038048;stroke-width:1.0;"/><text fill="#000000" font-family="sans-serif" font-size="14" lengthAdjust="spacing" textLength="160" x="149" y="1289.1445">getGameInfo(): GameInfo</text><ellipse cx="140" cy="1303.2808" fill="#84BE84" rx="3" ry="3" style="stroke:#038048;stroke-width:1.0;"/><text fill="#000000" font-family="sans-serif" font-size="14" lengthAdjust="spacing" textLength="90" x="149" y="1308.2646">getScore(): int</text><ellipse cx="140" cy="1322.4009" fill="#84BE84" rx="3" ry="3" style="stroke:#038048;stroke-width:1.0;"/><text fill="#000000" font-family="sans-serif" font-size="14" lengthAdjust="spacing" textLength="159" x="149" y="1327.3848">getAnswer(): List&lt;String&gt;</text></g><!--MD5=[b6dcce5e5ef3c84b0b048d11301373dd]
class Game--><g id="elem_Game"><rect codeLine="78" fill="#F1F1F1" height="181.8408" id="Game" rx="2.5" ry="2.5" style="stroke:#181818;stroke-width:0.5;" width="251" x="504" y="35.5"/><ellipse cx="606.25" cy="51.5" fill="#ADD1B2" rx="11" ry="11" style="stroke:#181818;stroke-width:1.0;"/><path d="M605.9375,57.5 Q604,57.5 602.875,56.0781 Q601.75,54.6406 601.75,51.6875 Q601.75,49.1875 602.9375,47.5 Q604.125,45.8125 606.1875,45.8125 Q606.6719,45.8125 607.1719,45.9219 Q607.5781,46.0625 607.8281,46.0625 Q608.0313,46.0625 608.1094,46.0469 Q608.2031,46.0156 608.7344,45.3438 L609.4688,49.5781 L608.5,50.1719 Q608,48.625 607.4219,48.0625 Q606.8594,47.5 605.9531,47.5 Q604.7969,47.5 604.1094,48.6875 Q603.4375,49.8594 603.4375,51.6875 Q603.4375,53.6875 604.0156,54.75 Q604.5938,55.8125 605.8906,55.8125 Q606.8125,55.8125 607.4531,55.25 Q608.1094,54.6719 608.4531,53.2813 L609.4844,53.7969 Q609.0938,55.5469 608.1563,56.5313 Q607.2188,57.5 605.9375,57.5 Z " fill="#000000"/><text fill="#000000" font-family="sans-serif" font-size="14" lengthAdjust="spacing" textLength="38" x="626.75" y="57.9839">Game</text><line style="stroke:#181818;stroke-width:0.5;" x1="505" x2="754" y1="67.5" y2="67.5"/><rect fill="none" height="6" style="stroke:#C82930;stroke-width:1.0;" width="6" x="512" y="79.5601"/><text fill="#000000" font-family="sans-serif" font-size="14" lengthAdjust="spacing" textLength="147" x="524" y="87.5439">playerList: List&lt;Player&gt;</text><rect fill="none" height="6" style="stroke:#C82930;stroke-width:1.0;" width="6" x="512" y="98.6802"/><text fill="#000000" font-family="sans-serif" font-size="14" lengthAdjust="spacing" textLength="107" x="524" y="106.6641">gameRounds: int</text><rect fill="none" height="6" style="stroke:#C82930;stroke-width:1.0;" width="6" x="512" y="117.8003"/><text fill="#000000" font-family="sans-serif" font-size="14" lengthAdjust="spacing" textLength="104" x="524" y="125.7842">cityDB: CityBase</text><line style="stroke:#181818;stroke-width:0.5;" x1="505" x2="754" y1="132.8604" y2="132.8604"/><ellipse cx="515" cy="147.9204" fill="#84BE84" rx="3" ry="3" style="stroke:#038048;stroke-width:1.0;"/><text fill="#000000" font-family="sans-serif" font-size="14" lengthAdjust="spacing" textLength="219" x="524" y="152.9043">Game(int rounds, CityBase cityDB)</text><ellipse cx="515" cy="167.0405" fill="#84BE84" rx="3" ry="3" style="stroke:#038048;stroke-width:1.0;"/><text fill="#000000" font-family="sans-serif" font-size="14" lengthAdjust="spacing" textLength="225" x="524" y="172.0244">addPlayer(User userAsPlayer): void</text><ellipse cx="515" cy="186.1606" fill="#84BE84" rx="3" ry="3" style="stroke:#038048;stroke-width:1.0;"/><text fill="#000000" font-family="sans-serif" font-size="14" lengthAdjust="spacing" textLength="140" x="524" y="191.1445">getGameRounds(): int</text><ellipse cx="515" cy="205.2808" fill="#84BE84" rx="3" ry="3" style="stroke:#038048;stroke-width:1.0;"/><text fill="#000000" font-family="sans-serif" font-size="14" lengthAdjust="spacing" textLength="128" x="524" y="210.2646">showRanking(): void</text></g><!--MD5=[39892b95a268878615561ff0f8084628]
class CityBase--><g id="elem_CityBase"><rect codeLine="88" fill="#F1F1F1" height="181.8408" id="CityBase" rx="2.5" ry="2.5" style="stroke:#181818;stroke-width:0.5;" width="233" x="527" y="401.5"/><ellipse cx="611.25" cy="417.5" fill="#ADD1B2" rx="11" ry="11" style="stroke:#181818;stroke-width:1.0;"/><path d="M610.9375,423.5 Q609,423.5 607.875,422.0781 Q606.75,420.6406 606.75,417.6875 Q606.75,415.1875 607.9375,413.5 Q609.125,411.8125 611.1875,411.8125 Q611.6719,411.8125 612.1719,411.9219 Q612.5781,412.0625 612.8281,412.0625 Q613.0313,412.0625 613.1094,412.0469 Q613.2031,412.0156 613.7344,411.3438 L614.4688,415.5781 L613.5,416.1719 Q613,414.625 612.4219,414.0625 Q611.8594,413.5 610.9531,413.5 Q609.7969,413.5 609.1094,414.6875 Q608.4375,415.8594 608.4375,417.6875 Q608.4375,419.6875 609.0156,420.75 Q609.5938,421.8125 610.8906,421.8125 Q611.8125,421.8125 612.4531,421.25 Q613.1094,420.6719 613.4531,419.2813 L614.4844,419.7969 Q614.0938,421.5469 613.1563,422.5313 Q612.2188,423.5 610.9375,423.5 Z " fill="#000000"/><text fill="#000000" font-family="sans-serif" font-size="14" lengthAdjust="spacing" textLength="56" x="631.75" y="423.9839">CityBase</text><line style="stroke:#181818;stroke-width:0.5;" x1="528" x2="759" y1="433.5" y2="433.5"/><rect fill="none" height="6" style="stroke:#C82930;stroke-width:1.0;" width="6" x="535" y="445.5601"/><text fill="#000000" font-family="sans-serif" font-size="14" lengthAdjust="spacing" textLength="145" x="547" y="453.5439">category: CityCategory</text><rect fill="none" height="6" style="stroke:#C82930;stroke-width:1.0;" width="6" x="535" y="464.6802"/><text fill="#000000" font-family="sans-serif" font-size="14" lengthAdjust="spacing" textLength="113" x="547" y="472.6641">cityList: List&lt;City&gt;</text><line style="stroke:#181818;stroke-width:0.5;" x1="528" x2="759" y1="479.7402" y2="479.7402"/><ellipse cx="538" cy="494.8003" fill="#84BE84" rx="3" ry="3" style="stroke:#038048;stroke-width:1.0;"/><text fill="#000000" font-family="sans-serif" font-size="14" lengthAdjust="spacing" textLength="207" x="547" y="499.7842">CityBase(CityCategory category)</text><ellipse cx="538" cy="513.9204" fill="#84BE84" rx="3" ry="3" style="stroke:#038048;stroke-width:1.0;"/><text fill="#000000" font-family="sans-serif" font-size="14" lengthAdjust="spacing" textLength="178" x="547" y="518.9043">getCategory(): CityCategory</text><ellipse cx="538" cy="533.0405" fill="#84BE84" rx="3" ry="3" style="stroke:#038048;stroke-width:1.0;"/><text fill="#000000" font-family="sans-serif" font-size="14" lengthAdjust="spacing" textLength="117" x="547" y="538.0244">loadCityList(): void</text><ellipse cx="538" cy="552.1606" fill="#84BE84" rx="3" ry="3" style="stroke:#038048;stroke-width:1.0;"/><text fill="#000000" font-family="sans-serif" font-size="14" lengthAdjust="spacing" textLength="143" x="547" y="557.1445">getCityListLength(): int</text><ellipse cx="538" cy="571.2808" fill="#84BE84" rx="3" ry="3" style="stroke:#038048;stroke-width:1.0;"/><text fill="#000000" font-family="sans-serif" font-size="14" lengthAdjust="spacing" textLength="145" x="547" y="576.2646">drawCities(): List&lt;City&gt;</text></g><!--MD5=[3dbdd82daa10279c055138dc8d63ad7f]
class GameInfo--><g id="elem_GameInfo"><rect codeLine="98" fill="#F1F1F1" height="315.6816" id="GameInfo" rx="2.5" ry="2.5" style="stroke:#181818;stroke-width:0.5;" width="322" x="489.5" y="1076"/><ellipse cx="615.75" cy="1092" fill="#ADD1B2" rx="11" ry="11" style="stroke:#181818;stroke-width:1.0;"/><path d="M615.4375,1098 Q613.5,1098 612.375,1096.5781 Q611.25,1095.1406 611.25,1092.1875 Q611.25,1089.6875 612.4375,1088 Q613.625,1086.3125 615.6875,1086.3125 Q616.1719,1086.3125 616.6719,1086.4219 Q617.0781,1086.5625 617.3281,1086.5625 Q617.5313,1086.5625 617.6094,1086.5469 Q617.7031,1086.5156 618.2344,1085.8438 L618.9688,1090.0781 L618,1090.6719 Q617.5,1089.125 616.9219,1088.5625 Q616.3594,1088 615.4531,1088 Q614.2969,1088 613.6094,1089.1875 Q612.9375,1090.3594 612.9375,1092.1875 Q612.9375,1094.1875 613.5156,1095.25 Q614.0938,1096.3125 615.3906,1096.3125 Q616.3125,1096.3125 616.9531,1095.75 Q617.6094,1095.1719 617.9531,1093.7813 L618.9844,1094.2969 Q618.5938,1096.0469 617.6563,1097.0313 Q616.7188,1098 615.4375,1098 Z " fill="#000000"/><text fill="#000000" font-family="sans-serif" font-size="14" lengthAdjust="spacing" textLength="61" x="636.25" y="1098.4839">GameInfo</text><line style="stroke:#181818;stroke-width:0.5;" x1="490.5" x2="810.5" y1="1108" y2="1108"/><rect fill="none" height="6" style="stroke:#C82930;stroke-width:1.0;" width="6" x="497.5" y="1120.0601"/><text fill="#000000" font-family="sans-serif" font-size="14" lengthAdjust="spacing" textLength="81" x="509.5" y="1128.0439">gameId: long</text><rect fill="none" height="6" style="stroke:#C82930;stroke-width:1.0;" width="6" x="497.5" y="1139.1802"/><text fill="#000000" font-family="sans-serif" font-size="14" lengthAdjust="spacing" textLength="183" x="509.5" y="1147.1641">gameCategory: CityCategory</text><rect fill="none" height="6" style="stroke:#C82930;stroke-width:1.0;" width="6" x="497.5" y="1158.3003"/><text fill="#000000" font-family="sans-serif" font-size="14" lengthAdjust="spacing" textLength="104" x="509.5" y="1166.2842">gameTime: Date</text><rect fill="none" height="6" style="stroke:#C82930;stroke-width:1.0;" width="6" x="497.5" y="1177.4204"/><text fill="#000000" font-family="sans-serif" font-size="14" lengthAdjust="spacing" textLength="107" x="509.5" y="1185.4043">gameRounds: int</text><rect fill="none" height="6" style="stroke:#C82930;stroke-width:1.0;" width="6" x="497.5" y="1196.5405"/><text fill="#000000" font-family="sans-serif" font-size="14" lengthAdjust="spacing" textLength="90" x="509.5" y="1204.5244">playerNum: int</text><rect fill="none" height="6" style="stroke:#C82930;stroke-width:1.0;" width="6" x="497.5" y="1215.6606"/><text fill="#000000" font-family="sans-serif" font-size="14" lengthAdjust="spacing" textLength="135" x="509.5" y="1223.6445">labelList: List&lt;String&gt;</text><line style="stroke:#181818;stroke-width:0.5;" x1="490.5" x2="810.5" y1="1230.7207" y2="1230.7207"/><ellipse cx="500.5" cy="1245.7808" fill="#84BE84" rx="3" ry="3" style="stroke:#038048;stroke-width:1.0;"/><text fill="#000000" font-family="sans-serif" font-size="14" lengthAdjust="spacing" textLength="296" x="509.5" y="1250.7646">GameInfo(long gameId, CityCategory category,</text><text fill="#000000" font-family="sans-serif" font-size="14" lengthAdjust="spacing" textLength="195" x="509.5" y="1269.8848">int gameRound, int playerNum)</text><ellipse cx="500.5" cy="1284.021" fill="#84BE84" rx="3" ry="3" style="stroke:#038048;stroke-width:1.0;"/><text fill="#000000" font-family="sans-serif" font-size="14" lengthAdjust="spacing" textLength="178" x="509.5" y="1289.0049">getCategory(): CityCategory</text><ellipse cx="500.5" cy="1303.1411" fill="#84BE84" rx="3" ry="3" style="stroke:#038048;stroke-width:1.0;"/><text fill="#000000" font-family="sans-serif" font-size="14" lengthAdjust="spacing" textLength="137" x="509.5" y="1308.125">getGameTime(): Date</text><ellipse cx="500.5" cy="1322.2612" fill="#84BE84" rx="3" ry="3" style="stroke:#038048;stroke-width:1.0;"/><text fill="#000000" font-family="sans-serif" font-size="14" lengthAdjust="spacing" textLength="121" x="509.5" y="1327.2451">getPlayerNum(): int</text><ellipse cx="500.5" cy="1341.3813" fill="#84BE84" rx="3" ry="3" style="stroke:#038048;stroke-width:1.0;"/><text fill="#000000" font-family="sans-serif" font-size="14" lengthAdjust="spacing" textLength="133" x="509.5" y="1346.3652">getGameRound(): int</text><ellipse cx="500.5" cy="1360.5015" fill="#84BE84" rx="3" ry="3" style="stroke:#038048;stroke-width:1.0;"/><text fill="#000000" font-family="sans-serif" font-size="14" lengthAdjust="spacing" textLength="174" x="509.5" y="1365.4854">addLabel(String label): void</text><ellipse cx="500.5" cy="1379.6216" fill="#84BE84" rx="3" ry="3" style="stroke:#038048;stroke-width:1.0;"/><text fill="#000000" font-family="sans-serif" font-size="14" lengthAdjust="spacing" textLength="148" x="509.5" y="1384.6055">getLabel(): List&lt;String&gt;</text></g><!--MD5=[9466097c40aeafc62ec36a0cc4f3c955]
class City--><g id="elem_City"><rect codeLine="115" fill="#F1F1F1" height="239.2012" id="City" rx="2.5" ry="2.5" style="stroke:#181818;stroke-width:0.5;" width="265" x="725" y="758"/><ellipse cx="841.25" cy="774" fill="#ADD1B2" rx="11" ry="11" style="stroke:#181818;stroke-width:1.0;"/><path d="M840.9375,780 Q839,780 837.875,778.5781 Q836.75,777.1406 836.75,774.1875 Q836.75,771.6875 837.9375,770 Q839.125,768.3125 841.1875,768.3125 Q841.6719,768.3125 842.1719,768.4219 Q842.5781,768.5625 842.8281,768.5625 Q843.0313,768.5625 843.1094,768.5469 Q843.2031,768.5156 843.7344,767.8438 L844.4688,772.0781 L843.5,772.6719 Q843,771.125 842.4219,770.5625 Q841.8594,770 840.9531,770 Q839.7969,770 839.1094,771.1875 Q838.4375,772.3594 838.4375,774.1875 Q838.4375,776.1875 839.0156,777.25 Q839.5938,778.3125 840.8906,778.3125 Q841.8125,778.3125 842.4531,777.75 Q843.1094,777.1719 843.4531,775.7813 L844.4844,776.2969 Q844.0938,778.0469 843.1563,779.0313 Q842.2188,780 840.9375,780 Z " fill="#000000"/><text fill="#000000" font-family="sans-serif" font-size="14" lengthAdjust="spacing" textLength="24" x="861.75" y="780.4839">City</text><line style="stroke:#181818;stroke-width:0.5;" x1="726" x2="989" y1="790" y2="790"/><rect fill="none" height="6" style="stroke:#C82930;stroke-width:1.0;" width="6" x="733" y="802.0601"/><text fill="#000000" font-family="sans-serif" font-size="14" lengthAdjust="spacing" textLength="102" x="745" y="810.0439">cityName: String</text><rect fill="none" height="6" style="stroke:#C82930;stroke-width:1.0;" width="6" x="733" y="821.1802"/><text fill="#000000" font-family="sans-serif" font-size="14" lengthAdjust="spacing" textLength="128" x="745" y="829.1641">countryName: String</text><rect fill="none" height="6" style="stroke:#C82930;stroke-width:1.0;" width="6" x="733" y="840.3003"/><text fill="#000000" font-family="sans-serif" font-size="14" lengthAdjust="spacing" textLength="94" x="745" y="848.2842">location: String</text><rect fill="none" height="6" style="stroke:#C82930;stroke-width:1.0;" width="6" x="733" y="859.4204"/><text fill="#000000" font-family="sans-serif" font-size="14" lengthAdjust="spacing" textLength="165" x="745" y="867.4043">pictureBase: List&lt;Picture&gt;</text><line style="stroke:#181818;stroke-width:0.5;" x1="726" x2="989" y1="874.4805" y2="874.4805"/><ellipse cx="736" cy="889.5405" fill="#84BE84" rx="3" ry="3" style="stroke:#038048;stroke-width:1.0;"/><text fill="#000000" font-family="sans-serif" font-size="14" lengthAdjust="spacing" textLength="205" x="745" y="894.5244">City(String name, String country,</text><text fill="#000000" font-family="sans-serif" font-size="14" lengthAdjust="spacing" textLength="239" x="745" y="913.6445">String location, List&lt;Picture&gt; picBase)</text><ellipse cx="736" cy="927.7808" fill="#84BE84" rx="3" ry="3" style="stroke:#038048;stroke-width:1.0;"/><text fill="#000000" font-family="sans-serif" font-size="14" lengthAdjust="spacing" textLength="135" x="745" y="932.7646">getCityName(): String</text><ellipse cx="736" cy="946.9009" fill="#84BE84" rx="3" ry="3" style="stroke:#038048;stroke-width:1.0;"/><text fill="#000000" font-family="sans-serif" font-size="14" lengthAdjust="spacing" textLength="161" x="745" y="951.8848">getCountryName(): String</text><ellipse cx="736" cy="966.021" fill="#84BE84" rx="3" ry="3" style="stroke:#038048;stroke-width:1.0;"/><text fill="#000000" font-family="sans-serif" font-size="14" lengthAdjust="spacing" textLength="129" x="745" y="971.0049">getLocation(): String</text><ellipse cx="736" cy="985.1411" fill="#84BE84" rx="3" ry="3" style="stroke:#038048;stroke-width:1.0;"/><text fill="#000000" font-family="sans-serif" font-size="14" lengthAdjust="spacing" textLength="163" x="745" y="990.125">generatePicture(): Picture</text></g><!--MD5=[3582fbb016336012346c31a00cd27035]
reverse link User to UserStatistics--><g id="link_User_UserStatistics"><path codeLine="73" d="M306.97,684.3 C307.88,702.7 308.79,721.12 309.67,738.86 " fill="none" id="User-backto-UserStatistics" style="stroke:#181818;stroke-width:1.0;"/><polygon fill="#181818" points="306.71,679.11,303.1526,688.294,306.9533,684.1041,311.1431,687.9047,306.71,679.11" style="stroke:#181818;stroke-width:1.0;"/></g><!--MD5=[bf2fdfe05571cb59ff2fe6a1a06cc23c]
reverse link User to UserStatus--><g id="link_User_UserStatus"><path codeLine="74" d="M160.27,683.42 C148.14,701.96 136.36,720.69 125.5,739 C107.1,770.04 89.12,806.74 76.28,834.42 " fill="none" id="User-backto-UserStatus" style="stroke:#181818;stroke-width:1.0;"/><polygon fill="#181818" points="163.02,679.21,154.7331,684.5324,160.273,683.3878,161.4176,688.9276,163.02,679.21" style="stroke:#181818;stroke-width:1.0;"/></g><!--MD5=[9f32dde08f7e135be0a2feddc44688eb]
reverse link UserStatistics to UserGameHistory--><g id="link_UserStatistics_UserGameHistory"><path codeLine="75" d="M305.85,1029.45 C303.38,1064.59 300.8,1101.15 298.52,1133.42 " fill="none" id="UserStatistics-backto-UserGameHistory" style="stroke:#181818;stroke-width:1.0;"/><polygon fill="#181818" points="306.8,1016.07,302.3876,1021.7736,305.9554,1028.0402,310.3678,1022.3367,306.8,1016.07" style="stroke:#181818;stroke-width:1.0;"/></g><!--MD5=[02f36e01e966f9911ab616b886036f2b]
reverse link Player to User--><g id="link_Player_User"><path codeLine="136" d="M315.95,251.61 C314.6,269.17 313.19,287.54 311.77,305.96 " fill="none" id="Player-backto-User" style="stroke:#181818;stroke-width:1.0;"/><polygon fill="#181818" points="316.37,246.18,311.6877,254.8447,315.9843,251.1651,319.6639,255.4617,316.37,246.18" style="stroke:#181818;stroke-width:1.0;"/></g><!--MD5=[86fb2dafc5e601216a471b22a40ae449]
link Player to Game--><g id="link_Player_Game"><path codeLine="137" d="M454.64,126.5 C466.68,126.5 478.72,126.5 490.76,126.5 " fill="none" id="Player-to-Game" style="stroke:#181818;stroke-width:1.0;"/><polygon fill="none" points="503.82,126.5,497.82,122.5,491.82,126.5,497.82,130.5,503.82,126.5" style="stroke:#181818;stroke-width:1.0;"/></g><!--MD5=[b6a977dcd2595d3fec0e2626d75e8ed6]
reverse link Game to CityBase--><g id="link_Game_CityBase"><path codeLine="139" d="M633.18,223.23 C635.3,278.3 637.95,347.08 640.03,401.21 " fill="none" id="Game-backto-CityBase" style="stroke:#181818;stroke-width:1.0;"/><polygon fill="#181818" points="632.98,217.95,629.3429,227.1027,633.1798,222.946,637.3365,226.7829,632.98,217.95" style="stroke:#181818;stroke-width:1.0;"/></g><!--MD5=[b4802b5ea9f85cff78f4588aa4cbc0e6]
reverse link CityBase to City--><g id="link_CityBase_City"><path codeLine="140" d="M700.36,595.26 C728.28,645.23 762.09,705.74 791.18,757.81 " fill="none" id="CityBase-backto-City" style="stroke:#181818;stroke-width:1.0;"/><polygon fill="none" points="693.94,583.78,693.3733,590.9688,699.7912,594.2568,700.3579,587.068,693.94,583.78" style="stroke:#181818;stroke-width:1.0;"/></g><!--MD5=[8ef282c0ee94a235963e0c4c34a3faa4]
reverse link CityBase to CityCategory--><g id="link_CityBase_CityCategory"><path codeLine="141" d="M639.01,589.11 C635.5,663.72 630.76,764.52 627.93,824.78 " fill="none" id="CityBase-backto-CityCategory" style="stroke:#181818;stroke-width:1.0;"/><polygon fill="#181818" points="639.26,583.78,634.8281,592.5753,639.0174,588.7741,642.8187,592.9635,639.26,583.78" style="stroke:#181818;stroke-width:1.0;"/></g><!--MD5=[c0c62b7cd827967004c209f35c7a74d3]
reverse link UserStatistics to CityCategory--><g id="link_UserStatistics_CityCategory"><path codeLine="142" d="M494.98,877.5 C516.92,877.5 538.85,877.5 560.79,877.5 " fill="none" id="UserStatistics-backto-CityCategory" style="stroke:#181818;stroke-width:1.0;"/><polygon fill="#181818" points="489.71,877.5,498.71,881.5,494.71,877.5,498.71,873.5,489.71,877.5" style="stroke:#181818;stroke-width:1.0;"/></g><!--MD5=[0472abc6a8877fa66f9f6ada59b4f0de]
link CityCategory to GameInfo--><g id="link_CityCategory_GameInfo"><path codeLine="143" d="M629.14,930.05 C631.76,967.27 635.46,1019.73 639.04,1070.56 " fill="none" id="CityCategory-to-GameInfo" style="stroke:#181818;stroke-width:1.0;"/><polygon fill="#181818" points="639.41,1075.79,642.7567,1066.5272,639.0527,1070.8028,634.7772,1067.0988,639.41,1075.79" style="stroke:#181818;stroke-width:1.0;"/></g><!--MD5=[4b9b3e43e5105fe18061dd0b996dfa6f]
reverse link UserGameHistory to GameInfo--><g id="link_UserGameHistory_GameInfo"><path codeLine="144" d="M459.41,1234 C469.42,1234 479.44,1234 489.45,1234 " fill="none" id="UserGameHistory-backto-GameInfo" style="stroke:#181818;stroke-width:1.0;"/><polygon fill="#181818" points="454.17,1234,463.17,1238,459.17,1234,463.17,1230,454.17,1234" style="stroke:#181818;stroke-width:1.0;"/></g><!--MD5=[957533fc2b95e67ff49e1ed8951903de]
@startuml
'https://plantuml.com/class-diagram

enum UserStatus {
    ONLINE
    OFFLINE
}

enum CityCategory {
    EUROPE
    ASIA
    NORTH_AMERICA
}

class User {
    - userId: long
    - username: String
    - password: String
    - userStatus: UserStatus
    - createDay: Date
    - birthDay: Date
    + userStatistics: UserStatistics
    + User(String name, String password)
    + getUserId(): long
    + getUsername(): String
    + setUsername(String name): void
    + changePassword(String oldPwd, String newPwd): boolean
    + getUserStatus(): UserStatus
    + setUserStatus(UserStatus status): void
    + getUserCreateDay(): Date
    + getUserBirthDay(): Date
    + setUserBirthDay(Date birthday): void
}

class Player {
    - userId: long
    - playerName: String
    - score: int
    - answerList: List<String>
    + Player(long userId, String username)
    + getUserId(): long
    + getPlayerName(): String
    + getScore(): int
    + addScore(int score): void
    + addAnswer(String answer): void
}

class UserStatistics {
    - totalScore: long
    - totalGameNum: long
    - specificScore: Map<CityCategory, long>
    - gameHistories: List<GameHistory>
    + UserStatistics()
    + getTotalScore(): long
    + getSpecificScore(CityCategory category): long
    + addScore(long score, CityCategory category): void
    + getTotalGameNum(): long
    + addGameNum(): long
    + showGameHistory(): void
    + addGameHistory(GameHistory history): void
}

class UserGameHistory {
    - gameId: long
    - gameInfo: GameInfo
    - score: int
    - answerList: List<String>
    + GameHistory(long gameId, GameInfo gameInfo)
    + getGameInfo(): GameInfo
    + getScore(): int
    + getAnswer(): List<String>
}

User <- - UserStatistics
User <- - UserStatus
UserStatistics *- - UserGameHistory


class Game {
    - playerList: List<Player>
    - gameRounds: int
    - cityDB: CityBase
    + Game(int rounds, CityBase cityDB)
    + addPlayer(User userAsPlayer): void
    + getGameRounds(): int
    + showRanking(): void
}

class CityBase {
    - category: CityCategory
    - cityList: List<City>
    + CityBase(CityCategory category)
    + getCategory(): CityCategory
    + loadCityList(): void
    + getCityListLength(): int
    + drawCities(): List<City>
}

class GameInfo {
    - gameId: long
    - gameCategory: CityCategory
    - gameTime: Date
    - gameRounds: int
    - playerNum: int
    - labelList: List<String>
    + GameInfo(long gameId, CityCategory category,
      int gameRound, int playerNum)
    + getCategory(): CityCategory
    + getGameTime(): Date
    + getPlayerNum(): int
    + getGameRound(): int
    + addLabel(String label): void
    + getLabel(): List<String>
}

class City {
    - cityName: String
    - countryName: String
    - location: String
    - pictureBase: List<Picture>
    + City(String name, String country,
      String location, List<Picture> picBase)
    + getCityName(): String
    + getCountryName(): String
    + getLocation(): String
    + generatePicture(): Picture
}

'class Picture {
'    - pictureId: long
'    - picturePath: String
'    + Picture(long pictureId, String path)
'    + getPictureId(): long
'    + getPicturePath(): String
'}

Player <- - User
Player -o Game

Game <- - CityBase
CityBase o- - City
CityBase <- - CityCategory
UserStatistics <- CityCategory
CityCategory - -> GameInfo
UserGameHistory <- GameInfo

'CityCategory <|- - EuroCity
'CityCategory <|- - - AsiaCity
'CityCategory <|- - - NorthAmericaCity
'CityCategory <|- - - - WorldCity

@enduml

@startuml

enum UserStatus {
    ONLINE
    OFFLINE
}

enum CityCategory {
    EUROPE
    ASIA
    NORTH_AMERICA
}

class User {
    - userId: long
    - username: String
    - password: String
    - userStatus: UserStatus
    - createDay: Date
    - birthDay: Date
    + userStatistics: UserStatistics
    + User(String name, String password)
    + getUserId(): long
    + getUsername(): String
    + setUsername(String name): void
    + changePassword(String oldPwd, String newPwd): boolean
    + getUserStatus(): UserStatus
    + setUserStatus(UserStatus status): void
    + getUserCreateDay(): Date
    + getUserBirthDay(): Date
    + setUserBirthDay(Date birthday): void
}

class Player {
    - userId: long
    - playerName: String
    - score: int
    - answerList: List<String>
    + Player(long userId, String username)
    + getUserId(): long
    + getPlayerName(): String
    + getScore(): int
    + addScore(int score): void
    + addAnswer(String answer): void
}

class UserStatistics {
    - totalScore: long
    - totalGameNum: long
    - specificScore: Map<CityCategory, long>
    - gameHistories: List<GameHistory>
    + UserStatistics()
    + getTotalScore(): long
    + getSpecificScore(CityCategory category): long
    + addScore(long score, CityCategory category): void
    + getTotalGameNum(): long
    + addGameNum(): long
    + showGameHistory(): void
    + addGameHistory(GameHistory history): void
}

class UserGameHistory {
    - gameId: long
    - gameInfo: GameInfo
    - score: int
    - answerList: List<String>
    + GameHistory(long gameId, GameInfo gameInfo)
    + getGameInfo(): GameInfo
    + getScore(): int
    + getAnswer(): List<String>
}

User <- - UserStatistics
User <- - UserStatus
UserStatistics *- - UserGameHistory


class Game {
    - playerList: List<Player>
    - gameRounds: int
    - cityDB: CityBase
    + Game(int rounds, CityBase cityDB)
    + addPlayer(User userAsPlayer): void
    + getGameRounds(): int
    + showRanking(): void
}

class CityBase {
    - category: CityCategory
    - cityList: List<City>
    + CityBase(CityCategory category)
    + getCategory(): CityCategory
    + loadCityList(): void
    + getCityListLength(): int
    + drawCities(): List<City>
}

class GameInfo {
    - gameId: long
    - gameCategory: CityCategory
    - gameTime: Date
    - gameRounds: int
    - playerNum: int
    - labelList: List<String>
    + GameInfo(long gameId, CityCategory category,
      int gameRound, int playerNum)
    + getCategory(): CityCategory
    + getGameTime(): Date
    + getPlayerNum(): int
    + getGameRound(): int
    + addLabel(String label): void
    + getLabel(): List<String>
}

class City {
    - cityName: String
    - countryName: String
    - location: String
    - pictureBase: List<Picture>
    + City(String name, String country,
      String location, List<Picture> picBase)
    + getCityName(): String
    + getCountryName(): String
    + getLocation(): String
    + generatePicture(): Picture
}


Player <- - User
Player -o Game

Game <- - CityBase
CityBase o- - City
CityBase <- - CityCategory
UserStatistics <- CityCategory
CityCategory - -> GameInfo
UserGameHistory <- GameInfo


@enduml

PlantUML version 1.2022.12(Sun Oct 23 20:12:26 CEST 2022)
(GPL source distribution)
Java Runtime: OpenJDK Runtime Environment
JVM: OpenJDK 64-Bit Server VM
Default Encoding: GBK
Language: zh
Country: CN
--></g></svg>