<?xml version="1.0" encoding="UTF-8" standalone="no"?><svg xmlns="http://www.w3.org/2000/svg" xmlns:xlink="http://www.w3.org/1999/xlink" contentStyleType="text/css" height="1152px" preserveAspectRatio="none" style="width:860px;height:1152px;background:#FFFFFF;" version="1.1" viewBox="0 0 860 1152" width="860px" zoomAndPan="magnify"><defs/><g><ellipse cx="415.5" cy="16" fill="#222222" rx="8" ry="8" style="stroke:#222222;stroke-width:0.8000000000000002;"/><polygon fill="#F1F1F1" points="379.9,40,451.1,40,460.7,49.6,451.1,59.2,379.9,59.2,370.3,49.6,379.9,40" style="stroke:#181818;stroke-width:0.4000000000000001;"/><text fill="#000000" font-family="sans-serif" font-size="8.8" lengthAdjust="spacing" textLength="71.2" x="379.9" y="53.6756">CLick in login page</text><rect fill="#F1F1F1" height="29.1109" rx="10" ry="10" style="stroke:#181818;stroke-width:0.4000000000000001;" width="152.8" x="245.5" y="91.2367"/><text fill="#000000" font-family="sans-serif" font-size="9.6" lengthAdjust="spacing" textLength="136.8" x="253.5" y="110.2383">Enter username and password</text><rect fill="#F1F1F1" height="29.1109" rx="10" ry="10" style="stroke:#181818;stroke-width:0.4000000000000001;" width="90.4" x="276.7" y="136.3477"/><text fill="#000000" font-family="sans-serif" font-size="9.6" lengthAdjust="spacing" textLength="74.4" x="284.7" y="155.3492">Check password</text><rect fill="#F1F1F1" height="29.1109" rx="10" ry="10" style="stroke:#181818;stroke-width:0.4000000000000001;" width="171.2" x="414.3" y="91.2367"/><text fill="#000000" font-family="sans-serif" font-size="9.6" lengthAdjust="spacing" textLength="155.2" x="422.3" y="110.2383">Choose username &amp; Set password</text><rect fill="#F1F1F1" height="29.1109" rx="10" ry="10" style="stroke:#181818;stroke-width:0.4000000000000001;" width="97.6" x="451.1" y="136.3477"/><text fill="#000000" font-family="sans-serif" font-size="9.6" lengthAdjust="spacing" textLength="81.6" x="459.1" y="155.3492">Create user profile</text><polygon fill="#F1F1F1" points="415.5,173.4586,415.5,173.4586,425.1,183.0586,415.5,192.6586,415.5,192.6586,405.9,183.0586,415.5,173.4586" style="stroke:#181818;stroke-width:0.4000000000000001;"/><polygon fill="#F1F1F1" points="381.1,253.7695,449.9,253.7695,459.5,263.3695,449.9,272.9695,381.1,272.9695,371.5,263.3695,381.1,253.7695" style="stroke:#181818;stroke-width:0.4000000000000001;"/><text fill="#000000" font-family="sans-serif" font-size="8.8" lengthAdjust="spacing" textLength="68.8" x="381.1" y="267.4451">Click in homepage</text><rect fill="#F1F1F1" height="29.1109" rx="10" ry="10" style="stroke:#181818;stroke-width:0.4000000000000001;" width="87.2" x="14.4" y="305.0063"/><text fill="#000000" font-family="sans-serif" font-size="9.6" lengthAdjust="spacing" textLength="71.2" x="22.4" y="324.0078">load user profile</text><rect fill="#F1F1F1" height="29.1109" rx="10" ry="10" style="stroke:#181818;stroke-width:0.4000000000000001;" width="98.4" x="8.8" y="457.2373"/><text fill="#000000" font-family="sans-serif" font-size="9.6" lengthAdjust="spacing" textLength="82.4" x="16.8" y="476.2389">update user profile</text><rect fill="#F1F1F1" height="29.1109" rx="10" ry="10" style="stroke:#181818;stroke-width:0.4000000000000001;" width="88.8" x="13.6" y="514.3482"/><text fill="#000000" font-family="sans-serif" font-size="9.6" lengthAdjust="spacing" textLength="72.8" x="21.6" y="533.3498">save user profile</text><polygon fill="#F1F1F1" points="28,417.6281,88,417.6281,97.6,427.2281,88,436.8281,28,436.8281,18.4,427.2281,28,417.6281" style="stroke:#181818;stroke-width:0.4000000000000001;"/><text fill="#000000" font-family="sans-serif" font-size="8.8" lengthAdjust="spacing" textLength="14.4" x="61.2" y="446.9129">yes</text><text fill="#000000" font-family="sans-serif" font-size="8.8" lengthAdjust="spacing" textLength="60" x="28" y="431.3037">change profile?</text><polygon fill="#F1F1F1" points="58,563.8684,67.6,573.4684,58,583.0684,48.4,573.4684,58,563.8684" style="stroke:#181818;stroke-width:0.4000000000000001;"/><rect fill="#F1F1F1" height="29.1109" rx="10" ry="10" style="stroke:#181818;stroke-width:0.4000000000000001;" width="92" x="12" y="350.1172"/><text fill="#000000" font-family="sans-serif" font-size="9.6" lengthAdjust="spacing" textLength="76" x="20" y="369.1188">show user profile</text><polygon fill="#F1F1F1" points="32.4,621.4684,83.6,621.4684,93.2,631.0684,83.6,640.6684,32.4,640.6684,22.8,631.0684,32.4,621.4684" style="stroke:#181818;stroke-width:0.4000000000000001;"/><text fill="#000000" font-family="sans-serif" font-size="8.8" lengthAdjust="spacing" textLength="51.2" x="32.4" y="635.1439">return home?</text><text fill="#000000" font-family="sans-serif" font-size="8.8" lengthAdjust="spacing" textLength="9.6" x="93.2" y="629.1348">no</text><rect fill="#F1F1F1" height="29.1109" rx="10" ry="10" style="stroke:#181818;stroke-width:0.4000000000000001;" width="268.8" x="156.6" y="305.0063"/><text fill="#000000" font-family="sans-serif" font-size="9.6" lengthAdjust="spacing" textLength="252.8" x="164.6" y="324.0078">Create a game with category, rounds and countdownTime</text><polygon fill="#F1F1F1" points="256.6,350.1172,325.4,350.1172,335,359.7172,325.4,369.3172,256.6,369.3172,247,359.7172,256.6,350.1172" style="stroke:#181818;stroke-width:0.4000000000000001;"/><text fill="#000000" font-family="sans-serif" font-size="8.8" lengthAdjust="spacing" textLength="68.8" x="256.6" y="363.7928">Multiplayer Mode?</text><text fill="#000000" font-family="sans-serif" font-size="8.8" lengthAdjust="spacing" textLength="14.4" x="232.6" y="357.7836">yes</text><text fill="#000000" font-family="sans-serif" font-size="8.8" lengthAdjust="spacing" textLength="9.6" x="335" y="357.7836">no</text><rect fill="#F1F1F1" height="29.1109" rx="10" ry="10" style="stroke:#181818;stroke-width:0.4000000000000001;" width="62.4" x="195.6" y="427.7355"/><text fill="#000000" font-family="sans-serif" font-size="9.6" lengthAdjust="spacing" textLength="46.4" x="203.6" y="446.7371">Add Player</text><polygon fill="#F1F1F1" points="164.8,377.3172,288.8,377.3172,298.4,386.9172,288.8,396.5172,164.8,396.5172,155.2,386.9172,164.8,377.3172" style="stroke:#181818;stroke-width:0.4000000000000001;"/><text fill="#000000" font-family="sans-serif" font-size="8.8" lengthAdjust="spacing" textLength="9.6" x="230" y="406.602">no</text><text fill="#000000" font-family="sans-serif" font-size="8.8" lengthAdjust="spacing" textLength="124" x="164.8" y="390.9928">Click startGame? &amp;&amp; Player &gt; 2?</text><text fill="#000000" font-family="sans-serif" font-size="8.8" lengthAdjust="spacing" textLength="14.4" x="140.8" y="384.9836">yes</text><rect fill="#F1F1F1" height="29.1109" rx="10" ry="10" style="stroke:#181818;stroke-width:0.4000000000000001;" width="62.4" x="324" y="377.3172"/><text fill="#000000" font-family="sans-serif" font-size="9.6" lengthAdjust="spacing" textLength="46.4" x="332" y="396.3188">Add Player</text><polygon fill="#F1F1F1" points="291,480.8465,300.6,490.4465,291,500.0465,281.4,490.4465,291,480.8465" style="stroke:#181818;stroke-width:0.4000000000000001;"/><polygon fill="#F1F1F1" points="263,595.5574,319,595.5574,328.6,605.1574,319,614.7574,263,614.7574,253.4,605.1574,263,595.5574" style="stroke:#181818;stroke-width:0.4000000000000001;"/><text fill="#000000" font-family="sans-serif" font-size="8.8" lengthAdjust="spacing" textLength="56" x="263" y="609.233">give up game?</text><text fill="#000000" font-family="sans-serif" font-size="8.8" lengthAdjust="spacing" textLength="14.4" x="328.6" y="603.2238">yes</text><ellipse cx="360.6" cy="605.1574" fill="none" rx="8.8" ry="8.8" style="stroke:#222222;stroke-width:0.8000000000000002;"/><ellipse cx="360.6" cy="605.1574" fill="#222222" rx="4.8" ry="4.8" style="stroke:#111111;stroke-width:0.8000000000000002;"/><rect fill="#F1F1F1" height="29.1109" rx="10" ry="10" style="stroke:#181818;stroke-width:0.4000000000000001;" width="96" x="243" y="717.8959"/><text fill="#000000" font-family="sans-serif" font-size="9.6" lengthAdjust="spacing" textLength="80" x="251" y="736.8975">Add player's score</text><polygon fill="#F1F1F1" points="248.6,678.2867,333.4,678.2867,343,687.8867,333.4,697.4867,248.6,697.4867,239,687.8867,248.6,678.2867" style="stroke:#181818;stroke-width:0.4000000000000001;"/><text fill="#000000" font-family="sans-serif" font-size="8.8" lengthAdjust="spacing" textLength="14.4" x="294.2" y="707.5715">yes</text><text fill="#000000" font-family="sans-serif" font-size="8.8" lengthAdjust="spacing" textLength="84.8" x="248.6" y="691.9623">Select correct option?</text><polygon fill="#F1F1F1" points="291,767.416,300.6,777.016,291,786.616,281.4,777.016,291,767.416" style="stroke:#181818;stroke-width:0.4000000000000001;"/><rect fill="#F1F1F1" height="29.1109" rx="10" ry="10" style="stroke:#181818;stroke-width:0.4000000000000001;" width="108" x="237" y="802.616"/><text fill="#000000" font-family="sans-serif" font-size="9.6" lengthAdjust="spacing" textLength="92" x="245" y="821.6176">Show correct answer</text><rect fill="#F1F1F1" height="29.1109" rx="10" ry="10" style="stroke:#181818;stroke-width:0.4000000000000001;" width="109.6" x="236.2" y="847.727"/><text fill="#000000" font-family="sans-serif" font-size="9.6" lengthAdjust="spacing" textLength="93.6" x="244.2" y="866.7285">Show Player Ranking</text><rect fill="#F1F1F1" height="29.1109" rx="10" ry="10" style="stroke:#181818;stroke-width:0.4000000000000001;" width="195.2" x="193.4" y="528.0465"/><text fill="#000000" font-family="sans-serif" font-size="9.6" lengthAdjust="spacing" textLength="179.2" x="201.4" y="547.048">Generate four cities and one city's picture</text><polygon fill="#F1F1F1" points="245,892.8379,337,892.8379,346.6,902.4379,337,912.0379,245,912.0379,235.4,902.4379,245,892.8379" style="stroke:#181818;stroke-width:0.4000000000000001;"/><text fill="#000000" font-family="sans-serif" font-size="8.8" lengthAdjust="spacing" textLength="92" x="245" y="906.5135">end game (final round)?</text><text fill="#000000" font-family="sans-serif" font-size="8.8" lengthAdjust="spacing" textLength="9.6" x="346.6" y="900.5043">no</text><rect fill="#F1F1F1" height="29.1109" rx="10" ry="10" style="stroke:#181818;stroke-width:0.4000000000000001;" width="168" x="207" y="928.0379"/><text fill="#000000" font-family="sans-serif" font-size="9.6" lengthAdjust="spacing" textLength="152" x="215" y="947.0395">create GameInfo and GameHistory</text><rect fill="#F1F1F1" height="29.1109" rx="10" ry="10" style="stroke:#181818;stroke-width:0.4000000000000001;" width="107.2" x="493.8" y="305.0063"/><text fill="#000000" font-family="sans-serif" font-size="9.6" lengthAdjust="spacing" textLength="91.2" x="501.8" y="324.0078">load all users' profile</text><polygon fill="#F1F1F1" points="537.8,417.6281,557,417.6281,566.6,427.2281,557,436.8281,537.8,436.8281,528.2,427.2281,537.8,417.6281" style="stroke:#181818;stroke-width:0.4000000000000001;"/><text fill="#000000" font-family="sans-serif" font-size="8.8" lengthAdjust="spacing" textLength="17.6" x="538.6" y="431.3037">Click</text><rect fill="#F1F1F1" height="29.1109" rx="10" ry="10" style="stroke:#181818;stroke-width:0.4000000000000001;" width="104" x="441.4" y="468.8648"/><text fill="#000000" font-family="sans-serif" font-size="9.6" lengthAdjust="spacing" textLength="88" x="449.4" y="487.8664">change ranking type</text><rect fill="#F1F1F1" height="29.1109" rx="10" ry="10" style="stroke:#181818;stroke-width:0.4000000000000001;" width="87.2" x="563.8" y="468.8648"/><text fill="#000000" font-family="sans-serif" font-size="9.6" lengthAdjust="spacing" textLength="71.2" x="571.8" y="487.8664">load user profile</text><rect fill="#F1F1F1" height="29.1109" rx="10" ry="10" style="stroke:#181818;stroke-width:0.4000000000000001;" width="92" x="561.4" y="525.9758"/><text fill="#000000" font-family="sans-serif" font-size="9.6" lengthAdjust="spacing" textLength="76" x="569.4" y="544.9773">show user profile</text><polygon fill="#F1F1F1" points="547.4,643.0867,547.4,643.0867,557,652.6867,547.4,662.2867,547.4,662.2867,537.8,652.6867,547.4,643.0867" style="stroke:#181818;stroke-width:0.4000000000000001;"/><rect fill="#F1F1F1" height="29.1109" rx="10" ry="10" style="stroke:#181818;stroke-width:0.4000000000000001;" width="106.4" x="494.2" y="350.1172"/><text fill="#000000" font-family="sans-serif" font-size="9.6" lengthAdjust="spacing" textLength="90.4" x="502.2" y="369.1188">show overall ranking</text><polygon fill="#F1F1F1" points="521.8,697.816,573,697.816,582.6,707.416,573,717.016,521.8,717.016,512.2,707.416,521.8,697.816" style="stroke:#181818;stroke-width:0.4000000000000001;"/><text fill="#000000" font-family="sans-serif" font-size="8.8" lengthAdjust="spacing" textLength="51.2" x="521.8" y="711.4916">return home?</text><text fill="#000000" font-family="sans-serif" font-size="8.8" lengthAdjust="spacing" textLength="9.6" x="582.6" y="705.4824">no</text><rect fill="#F1F1F1" height="29.1109" rx="10" ry="10" style="stroke:#181818;stroke-width:0.4000000000000001;" width="99.2" x="689" y="305.0063"/><text fill="#000000" font-family="sans-serif" font-size="9.6" lengthAdjust="spacing" textLength="83.2" x="697" y="324.0078">load user statistics</text><rect fill="#F1F1F1" height="29.1109" rx="10" ry="10" style="stroke:#181818;stroke-width:0.4000000000000001;" width="128.8" x="674.2" y="457.2373"/><text fill="#000000" font-family="sans-serif" font-size="9.6" lengthAdjust="spacing" textLength="112.8" x="682.2" y="476.2389">show score &amp; correctRate</text><rect fill="#F1F1F1" height="29.1109" rx="10" ry="10" style="stroke:#181818;stroke-width:0.4000000000000001;" width="119.2" x="679" y="514.3482"/><text fill="#000000" font-family="sans-serif" font-size="9.6" lengthAdjust="spacing" textLength="103.2" x="687" y="533.3498">show answers &amp; labels</text><polygon fill="#F1F1F1" points="729,417.6281,748.2,417.6281,757.8,427.2281,748.2,436.8281,729,436.8281,719.4,427.2281,729,417.6281" style="stroke:#181818;stroke-width:0.4000000000000001;"/><text fill="#000000" font-family="sans-serif" font-size="8.8" lengthAdjust="spacing" textLength="24.8" x="741.8" y="446.9129">details</text><text fill="#000000" font-family="sans-serif" font-size="8.8" lengthAdjust="spacing" textLength="17.6" x="729.8" y="431.3037">Click</text><polygon fill="#F1F1F1" points="738.6,563.8684,748.2,573.4684,738.6,583.0684,729,573.4684,738.6,563.8684" style="stroke:#181818;stroke-width:0.4000000000000001;"/><rect fill="#F1F1F1" height="29.1109" rx="10" ry="10" style="stroke:#181818;stroke-width:0.4000000000000001;" width="128" x="674.6" y="350.1172"/><text fill="#000000" font-family="sans-serif" font-size="9.6" lengthAdjust="spacing" textLength="112" x="682.6" y="369.1188">show user's gameHistory</text><polygon fill="#F1F1F1" points="713,621.4684,764.2,621.4684,773.8,631.0684,764.2,640.6684,713,640.6684,703.4,631.0684,713,621.4684" style="stroke:#181818;stroke-width:0.4000000000000001;"/><text fill="#000000" font-family="sans-serif" font-size="8.8" lengthAdjust="spacing" textLength="51.2" x="713" y="635.1439">return home?</text><text fill="#000000" font-family="sans-serif" font-size="8.8" lengthAdjust="spacing" textLength="9.6" x="773.8" y="629.1348">no</text><polygon fill="#F1F1F1" points="415.5,965.1488,415.5,965.1488,425.1,974.7488,415.5,984.3488,415.5,984.3488,405.9,974.7488,415.5,965.1488" style="stroke:#181818;stroke-width:0.4000000000000001;"/><rect fill="#F1F1F1" height="29.1109" rx="10" ry="10" style="stroke:#181818;stroke-width:0.4000000000000001;" width="92" x="369.5" y="1000.3488"/><text fill="#000000" font-family="sans-serif" font-size="9.6" lengthAdjust="spacing" textLength="76" x="377.5" y="1019.3504">Update user data</text><rect fill="#F1F1F1" height="29.1109" rx="10" ry="10" style="stroke:#181818;stroke-width:0.4000000000000001;" width="90.4" x="370.3" y="208.6586"/><text fill="#000000" font-family="sans-serif" font-size="9.6" lengthAdjust="spacing" textLength="74.4" x="378.3" y="227.6602">show homepage</text><polygon fill="#F1F1F1" points="391.5,1045.4598,439.5,1045.4598,449.1,1055.0598,439.5,1064.6598,391.5,1064.6598,381.9,1055.0598,391.5,1045.4598" style="stroke:#181818;stroke-width:0.4000000000000001;"/><text fill="#000000" font-family="sans-serif" font-size="8.8" lengthAdjust="spacing" textLength="48" x="391.5" y="1059.1354">Click logout?</text><text fill="#000000" font-family="sans-serif" font-size="8.8" lengthAdjust="spacing" textLength="9.6" x="449.1" y="1053.1262">no</text><rect fill="#F1F1F1" height="29.1109" rx="10" ry="10" style="stroke:#181818;stroke-width:0.4000000000000001;" width="43.2" x="393.9" y="1080.6598"/><text fill="#000000" font-family="sans-serif" font-size="9.6" lengthAdjust="spacing" textLength="27.2" x="401.9" y="1099.6613">logout</text><ellipse cx="415.5" cy="1134.5707" fill="none" rx="8.8" ry="8.8" style="stroke:#222222;stroke-width:0.8000000000000002;"/><ellipse cx="415.5" cy="1134.5707" fill="#222222" rx="4.8" ry="4.8" style="stroke:#111111;stroke-width:0.8000000000000002;"/><line style="stroke:#181818;stroke-width:0.8000000000000002;" x1="321.9" x2="321.9" y1="120.3477" y2="136.3477"/><polygon fill="#181818" points="318.7,128.3477,321.9,136.3477,325.1,128.3477,321.9,131.5477" style="stroke:#181818;stroke-width:0.8000000000000002;"/><line style="stroke:#181818;stroke-width:0.8000000000000002;" x1="499.9" x2="499.9" y1="120.3477" y2="136.3477"/><polygon fill="#181818" points="496.7,128.3477,499.9,136.3477,503.1,128.3477,499.9,131.5477" style="stroke:#181818;stroke-width:0.8000000000000002;"/><line style="stroke:#181818;stroke-width:0.8000000000000002;" x1="370.3" x2="321.9" y1="49.6" y2="49.6"/><line style="stroke:#181818;stroke-width:0.8000000000000002;" x1="321.9" x2="321.9" y1="49.6" y2="91.2367"/><polygon fill="#181818" points="318.7,83.2367,321.9,91.2367,325.1,83.2367,321.9,86.4367" style="stroke:#181818;stroke-width:0.8000000000000002;"/><text fill="#000000" font-family="sans-serif" font-size="8.8" lengthAdjust="spacing" textLength="20.8" x="321.9" y="74.4939">Login</text><line style="stroke:#181818;stroke-width:0.8000000000000002;" x1="460.7" x2="499.9" y1="49.6" y2="49.6"/><line style="stroke:#181818;stroke-width:0.8000000000000002;" x1="499.9" x2="499.9" y1="49.6" y2="91.2367"/><polygon fill="#181818" points="496.7,83.2367,499.9,91.2367,503.1,83.2367,499.9,86.4367" style="stroke:#181818;stroke-width:0.8000000000000002;"/><text fill="#000000" font-family="sans-serif" font-size="8.8" lengthAdjust="spacing" textLength="32" x="499.9" y="74.4939">Register</text><line style="stroke:#181818;stroke-width:0.8000000000000002;" x1="321.9" x2="321.9" y1="165.4586" y2="183.0586"/><line style="stroke:#181818;stroke-width:0.8000000000000002;" x1="321.9" x2="405.9" y1="183.0586" y2="183.0586"/><polygon fill="#181818" points="397.9,179.8586,405.9,183.0586,397.9,186.2586,401.1,183.0586" style="stroke:#181818;stroke-width:0.8000000000000002;"/><line style="stroke:#181818;stroke-width:0.8000000000000002;" x1="499.9" x2="499.9" y1="165.4586" y2="183.0586"/><line style="stroke:#181818;stroke-width:0.8000000000000002;" x1="499.9" x2="425.1" y1="183.0586" y2="183.0586"/><polygon fill="#181818" points="433.1,179.8586,425.1,183.0586,433.1,186.2586,429.9,183.0586" style="stroke:#181818;stroke-width:0.8000000000000002;"/><line style="stroke:#181818;stroke-width:0.8000000000000002;" x1="415.5" x2="415.5" y1="24" y2="40"/><polygon fill="#181818" points="412.3,32,415.5,40,418.7,32,415.5,35.2" style="stroke:#181818;stroke-width:0.8000000000000002;"/><line style="stroke:#181818;stroke-width:0.8000000000000002;" x1="58" x2="58" y1="486.3482" y2="514.3482"/><polygon fill="#181818" points="54.8,506.3482,58,514.3482,61.2,506.3482,58,509.5482" style="stroke:#181818;stroke-width:0.8000000000000002;"/><line style="stroke:#181818;stroke-width:0.8000000000000002;" x1="58" x2="58" y1="436.8281" y2="457.2373"/><polygon fill="#181818" points="54.8,449.2373,58,457.2373,61.2,449.2373,58,452.4373" style="stroke:#181818;stroke-width:0.8000000000000002;"/><line style="stroke:#181818;stroke-width:0.8000000000000002;" x1="97.6" x2="115.2" y1="427.2281" y2="427.2281"/><polygon fill="#181818" points="112,492.3482,115.2,500.3482,118.4,492.3482,115.2,495.5482" style="stroke:#181818;stroke-width:0.8000000000000002;"/><line style="stroke:#181818;stroke-width:0.8000000000000002;" x1="115.2" x2="115.2" y1="427.2281" y2="573.4684"/><line style="stroke:#181818;stroke-width:0.8000000000000002;" x1="115.2" x2="67.6" y1="573.4684" y2="573.4684"/><polygon fill="#181818" points="75.6,570.2684,67.6,573.4684,75.6,576.6684,72.4,573.4684" style="stroke:#181818;stroke-width:0.8000000000000002;"/><line style="stroke:#181818;stroke-width:0.8000000000000002;" x1="58" x2="58" y1="543.4592" y2="563.8684"/><polygon fill="#181818" points="54.8,555.8684,58,563.8684,61.2,555.8684,58,559.0684" style="stroke:#181818;stroke-width:0.8000000000000002;"/><line style="stroke:#181818;stroke-width:0.8000000000000002;" x1="58" x2="58" y1="379.2281" y2="417.6281"/><polygon fill="#181818" points="54.8,409.6281,58,417.6281,61.2,409.6281,58,412.8281" style="stroke:#181818;stroke-width:0.8000000000000002;"/><line style="stroke:#181818;stroke-width:0.8000000000000002;" x1="93.2" x2="129.6" y1="631.0684" y2="631.0684"/><polygon fill="#181818" points="126.4,505.8705,129.6,497.8705,132.8,505.8705,129.6,502.6705" style="stroke:#181818;stroke-width:0.8000000000000002;"/><line style="stroke:#181818;stroke-width:0.8000000000000002;" x1="129.6" x2="129.6" y1="364.6727" y2="631.0684"/><line style="stroke:#181818;stroke-width:0.8000000000000002;" x1="129.6" x2="104" y1="364.6727" y2="364.6727"/><polygon fill="#181818" points="112,361.4727,104,364.6727,112,367.8727,108.8,364.6727" style="stroke:#181818;stroke-width:0.8000000000000002;"/><line style="stroke:#181818;stroke-width:0.8000000000000002;" x1="58" x2="58" y1="583.0684" y2="621.4684"/><polygon fill="#181818" points="54.8,613.4684,58,621.4684,61.2,613.4684,58,616.6684" style="stroke:#181818;stroke-width:0.8000000000000002;"/><line style="stroke:#181818;stroke-width:0.8000000000000002;" x1="58" x2="58" y1="334.1172" y2="350.1172"/><polygon fill="#181818" points="54.8,342.1172,58,350.1172,61.2,342.1172,58,345.3172" style="stroke:#181818;stroke-width:0.8000000000000002;"/><line style="stroke:#181818;stroke-width:0.8000000000000002;" x1="226.8" x2="226.8" y1="396.5172" y2="427.7355"/><polygon fill="#181818" points="223.6,419.7355,226.8,427.7355,230,419.7355,226.8,422.9355" style="stroke:#181818;stroke-width:0.8000000000000002;"/><line style="stroke:#181818;stroke-width:0.8000000000000002;" x1="226.8" x2="226.8" y1="456.8465" y2="466.4465"/><line style="stroke:#181818;stroke-width:0.8000000000000002;" x1="226.8" x2="308" y1="466.4465" y2="466.4465"/><polygon fill="#181818" points="304.8,434.6818,308,426.6818,311.2,434.6818,308,431.4818" style="stroke:#181818;stroke-width:0.8000000000000002;"/><line style="stroke:#181818;stroke-width:0.8000000000000002;" x1="308" x2="308" y1="386.9172" y2="466.4465"/><line style="stroke:#181818;stroke-width:0.8000000000000002;" x1="308" x2="298.4" y1="386.9172" y2="386.9172"/><polygon fill="#181818" points="306.4,383.7172,298.4,386.9172,306.4,390.1172,303.2,386.9172" style="stroke:#181818;stroke-width:0.8000000000000002;"/><line style="stroke:#181818;stroke-width:0.8000000000000002;" x1="155.2" x2="145.6" y1="386.9172" y2="386.9172"/><polygon fill="#181818" points="142.4,430.6818,145.6,438.6818,148.8,430.6818,145.6,433.8818" style="stroke:#181818;stroke-width:0.8000000000000002;"/><line style="stroke:#181818;stroke-width:0.8000000000000002;" x1="145.6" x2="145.6" y1="386.9172" y2="490.4465"/><line style="stroke:#181818;stroke-width:0.8000000000000002;" x1="145.6" x2="281.4" y1="490.4465" y2="490.4465"/><polygon fill="#181818" points="273.4,487.2465,281.4,490.4465,273.4,493.6465,276.6,490.4465" style="stroke:#181818;stroke-width:0.8000000000000002;"/><line style="stroke:#181818;stroke-width:0.8000000000000002;" x1="247" x2="226.8" y1="359.7172" y2="359.7172"/><line style="stroke:#181818;stroke-width:0.8000000000000002;" x1="226.8" x2="226.8" y1="359.7172" y2="377.3172"/><polygon fill="#181818" points="223.6,369.3172,226.8,377.3172,230,369.3172,226.8,372.5172" style="stroke:#181818;stroke-width:0.8000000000000002;"/><line style="stroke:#181818;stroke-width:0.8000000000000002;" x1="335" x2="355.2" y1="359.7172" y2="359.7172"/><line style="stroke:#181818;stroke-width:0.8000000000000002;" x1="355.2" x2="355.2" y1="359.7172" y2="377.3172"/><polygon fill="#181818" points="352,369.3172,355.2,377.3172,358.4,369.3172,355.2,372.5172" style="stroke:#181818;stroke-width:0.8000000000000002;"/><line style="stroke:#181818;stroke-width:0.8000000000000002;" x1="355.2" x2="355.2" y1="406.4281" y2="490.4465"/><line style="stroke:#181818;stroke-width:0.8000000000000002;" x1="355.2" x2="300.6" y1="490.4465" y2="490.4465"/><polygon fill="#181818" points="308.6,487.2465,300.6,490.4465,308.6,493.6465,305.4,490.4465" style="stroke:#181818;stroke-width:0.8000000000000002;"/><line style="stroke:#181818;stroke-width:0.8000000000000002;" x1="291" x2="291" y1="334.1172" y2="350.1172"/><polygon fill="#181818" points="287.8,342.1172,291,350.1172,294.2,342.1172,291,345.3172" style="stroke:#181818;stroke-width:0.8000000000000002;"/><line style="stroke:#181818;stroke-width:0.8000000000000002;" x1="291" x2="291" y1="614.7574" y2="678.2867"/><polygon fill="#181818" points="287.8,670.2867,291,678.2867,294.2,670.2867,291,673.4867" style="stroke:#181818;stroke-width:0.8000000000000002;"/><line style="stroke:#181818;stroke-width:0.8000000000000002;" x1="328.6" x2="351.8" y1="605.1574" y2="605.1574"/><polygon fill="#181818" points="343.8,601.9574,351.8,605.1574,343.8,608.3574,347,605.1574" style="stroke:#181818;stroke-width:0.8000000000000002;"/><line style="stroke:#181818;stroke-width:0.8000000000000002;" x1="291" x2="291" y1="697.4867" y2="717.8959"/><polygon fill="#181818" points="287.8,709.8959,291,717.8959,294.2,709.8959,291,713.0959" style="stroke:#181818;stroke-width:0.8000000000000002;"/><line style="stroke:#181818;stroke-width:0.8000000000000002;" x1="343" x2="352.6" y1="687.8867" y2="687.8867"/><polygon fill="#181818" points="349.4,724.4514,352.6,732.4514,355.8,724.4514,352.6,727.6514" style="stroke:#181818;stroke-width:0.8000000000000002;"/><line style="stroke:#181818;stroke-width:0.8000000000000002;" x1="352.6" x2="352.6" y1="687.8867" y2="777.016"/><line style="stroke:#181818;stroke-width:0.8000000000000002;" x1="352.6" x2="300.6" y1="777.016" y2="777.016"/><polygon fill="#181818" points="308.6,773.816,300.6,777.016,308.6,780.216,305.4,777.016" style="stroke:#181818;stroke-width:0.8000000000000002;"/><line style="stroke:#181818;stroke-width:0.8000000000000002;" x1="291" x2="291" y1="747.0068" y2="767.416"/><polygon fill="#181818" points="287.8,759.416,291,767.416,294.2,759.416,291,762.616" style="stroke:#181818;stroke-width:0.8000000000000002;"/><line style="stroke:#181818;stroke-width:0.8000000000000002;" x1="291" x2="291" y1="786.616" y2="802.616"/><polygon fill="#181818" points="287.8,794.616,291,802.616,294.2,794.616,291,797.816" style="stroke:#181818;stroke-width:0.8000000000000002;"/><line style="stroke:#181818;stroke-width:0.8000000000000002;" x1="291" x2="291" y1="831.727" y2="847.727"/><polygon fill="#181818" points="287.8,839.727,291,847.727,294.2,839.727,291,842.927" style="stroke:#181818;stroke-width:0.8000000000000002;"/><line style="stroke:#181818;stroke-width:0.8000000000000002;" x1="291" x2="291" y1="557.1574" y2="595.5574"/><polygon fill="#181818" points="287.8,587.5574,291,595.5574,294.2,587.5574,291,590.7574" style="stroke:#181818;stroke-width:0.8000000000000002;"/><line style="stroke:#181818;stroke-width:0.8000000000000002;" x1="346.6" x2="398.2" y1="902.4379" y2="902.4379"/><polygon fill="#181818" points="395,752.2846,398.2,744.2846,401.4,752.2846,398.2,749.0846" style="stroke:#181818;stroke-width:0.8000000000000002;"/><line style="stroke:#181818;stroke-width:0.8000000000000002;" x1="398.2" x2="398.2" y1="542.602" y2="902.4379"/><line style="stroke:#181818;stroke-width:0.8000000000000002;" x1="398.2" x2="388.6" y1="542.602" y2="542.602"/><polygon fill="#181818" points="396.6,539.402,388.6,542.602,396.6,545.802,393.4,542.602" style="stroke:#181818;stroke-width:0.8000000000000002;"/><line style="stroke:#181818;stroke-width:0.8000000000000002;" x1="291" x2="291" y1="876.8379" y2="892.8379"/><polygon fill="#181818" points="287.8,884.8379,291,892.8379,294.2,884.8379,291,888.0379" style="stroke:#181818;stroke-width:0.8000000000000002;"/><line style="stroke:#181818;stroke-width:0.8000000000000002;" x1="291" x2="291" y1="500.0465" y2="528.0465"/><polygon fill="#181818" points="287.8,520.0465,291,528.0465,294.2,520.0465,291,523.2465" style="stroke:#181818;stroke-width:0.8000000000000002;"/><line style="stroke:#181818;stroke-width:0.8000000000000002;" x1="291" x2="291" y1="912.0379" y2="928.0379"/><polygon fill="#181818" points="287.8,920.0379,291,928.0379,294.2,920.0379,291,923.2379" style="stroke:#181818;stroke-width:0.8000000000000002;"/><line style="stroke:#181818;stroke-width:0.8000000000000002;" x1="607.4" x2="607.4" y1="497.9758" y2="525.9758"/><polygon fill="#181818" points="604.2,517.9758,607.4,525.9758,610.6,517.9758,607.4,521.1758" style="stroke:#181818;stroke-width:0.8000000000000002;"/><line style="stroke:#181818;stroke-width:0.8000000000000002;" x1="528.2" x2="493.4" y1="427.2281" y2="427.2281"/><line style="stroke:#181818;stroke-width:0.8000000000000002;" x1="493.4" x2="493.4" y1="427.2281" y2="468.8648"/><polygon fill="#181818" points="490.2,460.8648,493.4,468.8648,496.6,460.8648,493.4,464.0648" style="stroke:#181818;stroke-width:0.8000000000000002;"/><text fill="#000000" font-family="sans-serif" font-size="8.8" lengthAdjust="spacing" textLength="34.4" x="493.4" y="452.1221">category</text><line style="stroke:#181818;stroke-width:0.8000000000000002;" x1="566.6" x2="607.4" y1="427.2281" y2="427.2281"/><line style="stroke:#181818;stroke-width:0.8000000000000002;" x1="607.4" x2="607.4" y1="427.2281" y2="468.8648"/><polygon fill="#181818" points="604.2,460.8648,607.4,468.8648,610.6,460.8648,607.4,464.0648" style="stroke:#181818;stroke-width:0.8000000000000002;"/><text fill="#000000" font-family="sans-serif" font-size="8.8" lengthAdjust="spacing" textLength="17.6" x="607.4" y="452.1221">user</text><line style="stroke:#181818;stroke-width:0.8000000000000002;" x1="493.4" x2="493.4" y1="497.9758" y2="652.6867"/><line style="stroke:#181818;stroke-width:0.8000000000000002;" x1="493.4" x2="537.8" y1="652.6867" y2="652.6867"/><polygon fill="#181818" points="529.8,649.4867,537.8,652.6867,529.8,655.8867,533,652.6867" style="stroke:#181818;stroke-width:0.8000000000000002;"/><line style="stroke:#181818;stroke-width:0.8000000000000002;" x1="607.4" x2="607.4" y1="555.0867" y2="652.6867"/><line style="stroke:#181818;stroke-width:0.8000000000000002;" x1="607.4" x2="557" y1="652.6867" y2="652.6867"/><polygon fill="#181818" points="565,649.4867,557,652.6867,565,655.8867,561.8,652.6867" style="stroke:#181818;stroke-width:0.8000000000000002;"/><line style="stroke:#181818;stroke-width:0.8000000000000002;" x1="547.4" x2="547.4" y1="379.2281" y2="417.6281"/><polygon fill="#181818" points="544.2,409.6281,547.4,417.6281,550.6,409.6281,547.4,412.8281" style="stroke:#181818;stroke-width:0.8000000000000002;"/><line style="stroke:#181818;stroke-width:0.8000000000000002;" x1="582.6" x2="663" y1="707.416" y2="707.416"/><polygon fill="#181818" points="659.8,545.4797,663,537.4797,666.2,545.4797,663,542.2797" style="stroke:#181818;stroke-width:0.8000000000000002;"/><line style="stroke:#181818;stroke-width:0.8000000000000002;" x1="663" x2="663" y1="364.6727" y2="707.416"/><line style="stroke:#181818;stroke-width:0.8000000000000002;" x1="663" x2="600.6" y1="364.6727" y2="364.6727"/><polygon fill="#181818" points="608.6,361.4727,600.6,364.6727,608.6,367.8727,605.4,364.6727" style="stroke:#181818;stroke-width:0.8000000000000002;"/><line style="stroke:#181818;stroke-width:0.8000000000000002;" x1="547.4" x2="547.4" y1="662.2867" y2="697.816"/><polygon fill="#181818" points="544.2,689.816,547.4,697.816,550.6,689.816,547.4,693.016" style="stroke:#181818;stroke-width:0.8000000000000002;"/><line style="stroke:#181818;stroke-width:0.8000000000000002;" x1="547.4" x2="547.4" y1="334.1172" y2="350.1172"/><polygon fill="#181818" points="544.2,342.1172,547.4,350.1172,550.6,342.1172,547.4,345.3172" style="stroke:#181818;stroke-width:0.8000000000000002;"/><line style="stroke:#181818;stroke-width:0.8000000000000002;" x1="738.6" x2="738.6" y1="486.3482" y2="514.3482"/><polygon fill="#181818" points="735.4,506.3482,738.6,514.3482,741.8,506.3482,738.6,509.5482" style="stroke:#181818;stroke-width:0.8000000000000002;"/><line style="stroke:#181818;stroke-width:0.8000000000000002;" x1="738.6" x2="738.6" y1="436.8281" y2="457.2373"/><polygon fill="#181818" points="735.4,449.2373,738.6,457.2373,741.8,449.2373,738.6,452.4373" style="stroke:#181818;stroke-width:0.8000000000000002;"/><line style="stroke:#181818;stroke-width:0.8000000000000002;" x1="757.8" x2="811" y1="427.2281" y2="427.2281"/><polygon fill="#181818" points="807.8,492.3482,811,500.3482,814.2,492.3482,811,495.5482" style="stroke:#181818;stroke-width:0.8000000000000002;"/><line style="stroke:#181818;stroke-width:0.8000000000000002;" x1="811" x2="811" y1="427.2281" y2="573.4684"/><line style="stroke:#181818;stroke-width:0.8000000000000002;" x1="811" x2="748.2" y1="573.4684" y2="573.4684"/><polygon fill="#181818" points="756.2,570.2684,748.2,573.4684,756.2,576.6684,753,573.4684" style="stroke:#181818;stroke-width:0.8000000000000002;"/><line style="stroke:#181818;stroke-width:0.8000000000000002;" x1="738.6" x2="738.6" y1="543.4592" y2="563.8684"/><polygon fill="#181818" points="735.4,555.8684,738.6,563.8684,741.8,555.8684,738.6,559.0684" style="stroke:#181818;stroke-width:0.8000000000000002;"/><line style="stroke:#181818;stroke-width:0.8000000000000002;" x1="738.6" x2="738.6" y1="379.2281" y2="417.6281"/><polygon fill="#181818" points="735.4,409.6281,738.6,417.6281,741.8,409.6281,738.6,412.8281" style="stroke:#181818;stroke-width:0.8000000000000002;"/><line style="stroke:#181818;stroke-width:0.8000000000000002;" x1="773.8" x2="825.4" y1="631.0684" y2="631.0684"/><polygon fill="#181818" points="822.2,505.8705,825.4,497.8705,828.6,505.8705,825.4,502.6705" style="stroke:#181818;stroke-width:0.8000000000000002;"/><line style="stroke:#181818;stroke-width:0.8000000000000002;" x1="825.4" x2="825.4" y1="364.6727" y2="631.0684"/><line style="stroke:#181818;stroke-width:0.8000000000000002;" x1="825.4" x2="802.6" y1="364.6727" y2="364.6727"/><polygon fill="#181818" points="810.6,361.4727,802.6,364.6727,810.6,367.8727,807.4,364.6727" style="stroke:#181818;stroke-width:0.8000000000000002;"/><line style="stroke:#181818;stroke-width:0.8000000000000002;" x1="738.6" x2="738.6" y1="583.0684" y2="621.4684"/><polygon fill="#181818" points="735.4,613.4684,738.6,621.4684,741.8,613.4684,738.6,616.6684" style="stroke:#181818;stroke-width:0.8000000000000002;"/><line style="stroke:#181818;stroke-width:0.8000000000000002;" x1="738.6" x2="738.6" y1="334.1172" y2="350.1172"/><polygon fill="#181818" points="735.4,342.1172,738.6,350.1172,741.8,342.1172,738.6,345.3172" style="stroke:#181818;stroke-width:0.8000000000000002;"/><line style="stroke:#181818;stroke-width:0.8000000000000002;" x1="371.5" x2="58" y1="263.3695" y2="263.3695"/><line style="stroke:#181818;stroke-width:0.8000000000000002;" x1="58" x2="58" y1="263.3695" y2="305.0063"/><polygon fill="#181818" points="54.8,297.0063,58,305.0063,61.2,297.0063,58,300.2063" style="stroke:#181818;stroke-width:0.8000000000000002;"/><text fill="#000000" font-family="sans-serif" font-size="8.8" lengthAdjust="spacing" textLength="37.6" x="58" y="288.2635">My Profile</text><line style="stroke:#181818;stroke-width:0.8000000000000002;" x1="459.5" x2="738.6" y1="263.3695" y2="263.3695"/><line style="stroke:#181818;stroke-width:0.8000000000000002;" x1="738.6" x2="738.6" y1="263.3695" y2="305.0063"/><polygon fill="#181818" points="735.4,297.0063,738.6,305.0063,741.8,297.0063,738.6,300.2063" style="stroke:#181818;stroke-width:0.8000000000000002;"/><text fill="#000000" font-family="sans-serif" font-size="8.8" lengthAdjust="spacing" textLength="27.2" x="738.6" y="288.2635">History</text><line style="stroke:#181818;stroke-width:0.8000000000000002;" x1="291" x2="291" y1="263.3695" y2="305.0063"/><polygon fill="#181818" points="287.8,297.0063,291,305.0063,294.2,297.0063,291,300.2063" style="stroke:#181818;stroke-width:0.8000000000000002;"/><text fill="#000000" font-family="sans-serif" font-size="8.8" lengthAdjust="spacing" textLength="43.2" x="291" y="284.2635">Start Game</text><line style="stroke:#181818;stroke-width:0.8000000000000002;" x1="547.4" x2="547.4" y1="263.3695" y2="305.0063"/><polygon fill="#181818" points="544.2,297.0063,547.4,305.0063,550.6,297.0063,547.4,300.2063" style="stroke:#181818;stroke-width:0.8000000000000002;"/><text fill="#000000" font-family="sans-serif" font-size="8.8" lengthAdjust="spacing" textLength="30.4" x="547.4" y="284.2635">Ranking</text><line style="stroke:#181818;stroke-width:0.8000000000000002;" x1="58" x2="58" y1="640.6684" y2="974.7488"/><line style="stroke:#181818;stroke-width:0.8000000000000002;" x1="58" x2="405.9" y1="974.7488" y2="974.7488"/><polygon fill="#181818" points="397.9,971.5488,405.9,974.7488,397.9,977.9488,401.1,974.7488" style="stroke:#181818;stroke-width:0.8000000000000002;"/><line style="stroke:#181818;stroke-width:0.8000000000000002;" x1="738.6" x2="738.6" y1="640.6684" y2="974.7488"/><line style="stroke:#181818;stroke-width:0.8000000000000002;" x1="738.6" x2="425.1" y1="974.7488" y2="974.7488"/><polygon fill="#181818" points="433.1,971.5488,425.1,974.7488,433.1,977.9488,429.9,974.7488" style="stroke:#181818;stroke-width:0.8000000000000002;"/><line style="stroke:#181818;stroke-width:0.8000000000000002;" x1="291" x2="291" y1="957.1488" y2="974.7488"/><polygon fill="#181818" points="287.8,966.7488,291,974.7488,294.2,966.7488,291,969.9488" style="stroke:#181818;stroke-width:0.8000000000000002;"/><line style="stroke:#181818;stroke-width:0.8000000000000002;" x1="547.4" x2="547.4" y1="717.016" y2="974.7488"/><polygon fill="#181818" points="544.2,966.7488,547.4,974.7488,550.6,966.7488,547.4,969.9488" style="stroke:#181818;stroke-width:0.8000000000000002;"/><line style="stroke:#181818;stroke-width:0.8000000000000002;" x1="415.5" x2="415.5" y1="984.3488" y2="1000.3488"/><polygon fill="#181818" points="412.3,992.3488,415.5,1000.3488,418.7,992.3488,415.5,995.5488" style="stroke:#181818;stroke-width:0.8000000000000002;"/><line style="stroke:#181818;stroke-width:0.8000000000000002;" x1="415.5" x2="415.5" y1="237.7695" y2="253.7695"/><polygon fill="#181818" points="412.3,245.7695,415.5,253.7695,418.7,245.7695,415.5,248.9695" style="stroke:#181818;stroke-width:0.8000000000000002;"/><line style="stroke:#181818;stroke-width:0.8000000000000002;" x1="449.1" x2="839.8" y1="1055.0598" y2="1055.0598"/><polygon fill="#181818" points="836.6,714.9016,839.8,706.9016,843,714.9016,839.8,711.7016" style="stroke:#181818;stroke-width:0.8000000000000002;"/><line style="stroke:#181818;stroke-width:0.8000000000000002;" x1="839.8" x2="839.8" y1="223.2141" y2="1055.0598"/><line style="stroke:#181818;stroke-width:0.8000000000000002;" x1="839.8" x2="460.7" y1="223.2141" y2="223.2141"/><polygon fill="#181818" points="468.7,220.0141,460.7,223.2141,468.7,226.4141,465.5,223.2141" style="stroke:#181818;stroke-width:0.8000000000000002;"/><line style="stroke:#181818;stroke-width:0.8000000000000002;" x1="415.5" x2="415.5" y1="1029.4598" y2="1045.4598"/><polygon fill="#181818" points="412.3,1037.4598,415.5,1045.4598,418.7,1037.4598,415.5,1040.6598" style="stroke:#181818;stroke-width:0.8000000000000002;"/><line style="stroke:#181818;stroke-width:0.8000000000000002;" x1="415.5" x2="415.5" y1="192.6586" y2="208.6586"/><polygon fill="#181818" points="412.3,200.6586,415.5,208.6586,418.7,200.6586,415.5,203.8586" style="stroke:#181818;stroke-width:0.8000000000000002;"/><line style="stroke:#181818;stroke-width:0.8000000000000002;" x1="415.5" x2="415.5" y1="1064.6598" y2="1080.6598"/><polygon fill="#181818" points="412.3,1072.6598,415.5,1080.6598,418.7,1072.6598,415.5,1075.8598" style="stroke:#181818;stroke-width:0.8000000000000002;"/><line style="stroke:#181818;stroke-width:0.8000000000000002;" x1="415.5" x2="415.5" y1="1109.7707" y2="1125.7707"/><polygon fill="#181818" points="412.3,1117.7707,415.5,1125.7707,418.7,1117.7707,415.5,1120.9707" style="stroke:#181818;stroke-width:0.8000000000000002;"/><!--MD5=[646a9f6fcc9d8adfe770621c63a4becb]
@startuml
'https://plantuml.com/activity-diagram-beta

start
switch (CLick in login page)
case (Login)
    :Enter username and password;
    :Check password;
case (Register)
    :Choose username & Set password;
    :Create user profile;
endswitch
'========= success login =========

repeat :show homepage;
switch (Click in homepage)
case (My Profile)
    :load user profile;
    repeat :show user profile;
    if (change profile?) then(yes)
        :update user profile;
        :save user profile;
    endif
    repeat while(return home?) is(no)

case (Start Game)
    :Create a game with category, rounds and countdownTime;
    if (Multiplayer Mode?) then(yes)
'        :generate shared link;
        while(Click startGame? && Player > 2?) is(no)
            :Add Player;
        endwhile (yes)
    else (no)
        :Add Player;
    endif

    repeat :Generate four cities and one city's picture;
'        :show options and Picture;
        if (give up game?) then(yes)
            stop
        endif
        if (Select correct option?) then(yes)
            :Add player's score;
        endif
        :Show correct answer;
        :Show Player Ranking;
    repeat while(end game (final round)?) is(no)

'    if (record score?) then (yes)
'        :UserStatistic.addScore();
'    endif
    :create GameInfo and GameHistory;

case (Ranking)
    :load all users' profile;
    repeat :show overall ranking;
    switch (Click)
    case (category)
        :change ranking type; 
    case (user)
        :load user profile;
        :show user profile;
    endswitch
    repeat while(return home?) is(no)

case (History)
    :load user statistics;
    repeat :show user's gameHistory;
    if (Click) then(details)
        :show score & correctRate;
        :show answers & labels;
    endif
    repeat while(return home?) is(no)
endswitch

:Update user data;
repeat while(Click logout?) is(no)
:logout;
stop

@enduml

@startuml

start
switch (CLick in login page)
case (Login)
    :Enter username and password;
    :Check password;
case (Register)
    :Choose username & Set password;
    :Create user profile;
endswitch

repeat :show homepage;
switch (Click in homepage)
case (My Profile)
    :load user profile;
    repeat :show user profile;
    if (change profile?) then(yes)
        :update user profile;
        :save user profile;
    endif
    repeat while(return home?) is(no)

case (Start Game)
    :Create a game with category, rounds and countdownTime;
    if (Multiplayer Mode?) then(yes)
        while(Click startGame? && Player > 2?) is(no)
            :Add Player;
        endwhile (yes)
    else (no)
        :Add Player;
    endif

    repeat :Generate four cities and one city's picture;
        if (give up game?) then(yes)
            stop
        endif
        if (Select correct option?) then(yes)
            :Add player's score;
        endif
        :Show correct answer;
        :Show Player Ranking;
    repeat while(end game (final round)?) is(no)

    :create GameInfo and GameHistory;

case (Ranking)
    :load all users' profile;
    repeat :show overall ranking;
    switch (Click)
    case (category)
        :change ranking type; 
    case (user)
        :load user profile;
        :show user profile;
    endswitch
    repeat while(return home?) is(no)

case (History)
    :load user statistics;
    repeat :show user's gameHistory;
    if (Click) then(details)
        :show score & correctRate;
        :show answers & labels;
    endif
    repeat while(return home?) is(no)
endswitch

:Update user data;
repeat while(Click logout?) is(no)
:logout;
stop

@enduml

PlantUML version 1.2022.12(Sun Oct 23 20:12:26 CEST 2022)
(GPL source distribution)
Java Runtime: OpenJDK Runtime Environment
JVM: OpenJDK 64-Bit Server VM
Default Encoding: GBK
Language: zh
Country: CN
--></g></svg>