<?xml version="1.0" encoding="UTF-8" standalone="no"?><svg xmlns="http://www.w3.org/2000/svg" xmlns:xlink="http://www.w3.org/1999/xlink" contentStyleType="text/css" height="447.2px" preserveAspectRatio="none" style="width:378px;height:447px;background:#FFFFFF;" version="1.1" viewBox="0 0 378 447" width="378.8px" zoomAndPan="magnify"><defs/><g><!--MD5=[51fd3fce36c976f35b405d5800336138]
class UserStatus--><g id="elem_UserStatus"><rect codeLine="3" fill="#F1F1F1" height="34.4961" id="UserStatus" rx="1" ry="1" style="stroke:#181818;stroke-width:0.20000000000000004;" width="40.4" x="143.8" y="64"/><ellipse cx="149.8" cy="70.4" fill="#EB937F" rx="4.4" ry="4.4" style="stroke:#181818;stroke-width:0.4000000000000001;"/><path d="M148.225,68.8 L148.225,68.125 L151.3125,68.125 L151.6938,69.4125 L151.3688,69.6625 Q151.0625,69.1563 150.8125,68.9813 Q150.5625,68.8 150.275,68.8 L149.4125,68.8 Q149.3313,68.8 149.3,68.8188 Q149.275,68.8313 149.275,68.8438 L149.275,70.125 L149.8625,70.125 Q150.05,70.125 150.125,70.0375 Q150.2,69.9438 150.2,69.725 L150.2,69.425 L150.875,69.425 L150.875,71.5 L150.2,71.5 L150.2,71.2563 Q150.2,71.0188 150.1188,70.9125 Q150.0438,70.8 149.8625,70.8 L149.275,70.8 L149.275,72.1063 Q149.2688,72.1063 149.2938,72.1188 Q149.3188,72.125 149.4,72.125 L150.1688,72.125 Q150.5688,72.125 150.8438,71.9313 Q151.1188,71.7375 151.3438,71.1438 L151.6938,71.4063 L151.3313,72.8 L148.2,72.8 L148.2,72.125 L148.4938,72.125 Q148.5813,72.125 148.5875,72.1188 Q148.6,72.1125 148.6,72.0813 L148.6,68.8438 Q148.6,68.8125 148.5875,68.8063 Q148.5813,68.8 148.4938,68.8 L148.225,68.8 Z " fill="#000000"/><text fill="#000000" font-family="sans-serif" font-size="5.6" lengthAdjust="spacing" textLength="27.6" x="155.4" y="72.9936">UserStatus</text><line style="stroke:#181818;stroke-width:0.20000000000000004;" x1="144.2" x2="183.8" y1="76.8" y2="76.8"/><text fill="#000000" font-family="sans-serif" font-size="5.6" lengthAdjust="spacing" textLength="19.6" x="146.2" y="84.8176">ONLINE</text><text fill="#000000" font-family="sans-serif" font-size="5.6" lengthAdjust="spacing" textLength="23.2" x="146.2" y="92.4656">OFFLINE</text><line style="stroke:#181818;stroke-width:0.20000000000000004;" x1="144.2" x2="183.8" y1="95.2961" y2="95.2961"/></g><!--MD5=[2ecf1105c8164485bc3e6f82ac667166]
class CityCategory--><g id="elem_CityCategory"><rect codeLine="8" fill="#F1F1F1" height="72.7363" id="CityCategory" rx="1" ry="1" style="stroke:#181818;stroke-width:0.20000000000000004;" width="51.6" x="174.6" y="345.2"/><ellipse cx="183.3" cy="351.6" fill="#EB937F" rx="4.4" ry="4.4" style="stroke:#181818;stroke-width:0.4000000000000001;"/><path d="M181.725,350 L181.725,349.325 L184.8125,349.325 L185.1938,350.6125 L184.8688,350.8625 Q184.5625,350.3563 184.3125,350.1813 Q184.0625,350 183.775,350 L182.9125,350 Q182.8313,350 182.8,350.0188 Q182.775,350.0313 182.775,350.0438 L182.775,351.325 L183.3625,351.325 Q183.55,351.325 183.625,351.2375 Q183.7,351.1438 183.7,350.925 L183.7,350.625 L184.375,350.625 L184.375,352.7 L183.7,352.7 L183.7,352.4563 Q183.7,352.2188 183.6188,352.1125 Q183.5438,352 183.3625,352 L182.775,352 L182.775,353.3063 Q182.7688,353.3063 182.7938,353.3188 Q182.8188,353.325 182.9,353.325 L183.6688,353.325 Q184.0688,353.325 184.3438,353.1313 Q184.6188,352.9375 184.8438,352.3438 L185.1938,352.6063 L184.8313,354 L181.7,354 L181.7,353.325 L181.9938,353.325 Q182.0813,353.325 182.0875,353.3188 Q182.1,353.3125 182.1,353.2813 L182.1,350.0438 Q182.1,350.0125 182.0875,350.0063 Q182.0813,350 181.9938,350 L181.725,350 Z " fill="#000000"/><text fill="#000000" font-family="sans-serif" font-size="5.6" lengthAdjust="spacing" textLength="32.8" x="189.5" y="354.1936">CityCategory</text><line style="stroke:#181818;stroke-width:0.20000000000000004;" x1="175" x2="225.8" y1="358" y2="358"/><text fill="#000000" font-family="sans-serif" font-size="5.6" lengthAdjust="spacing" textLength="22.8" x="177" y="366.0176">EUROPE</text><text fill="#000000" font-family="sans-serif" font-size="5.6" lengthAdjust="spacing" textLength="12" x="177" y="373.6656">ASIA</text><text fill="#000000" font-family="sans-serif" font-size="5.6" lengthAdjust="spacing" textLength="46.8" x="177" y="381.3137">NORTH_AMERICA</text><text fill="#000000" font-family="sans-serif" font-size="5.6" lengthAdjust="spacing" textLength="46.4" x="177" y="388.9617">SOUTH_AMERICA</text><text fill="#000000" font-family="sans-serif" font-size="5.6" lengthAdjust="spacing" textLength="20" x="177" y="396.6098">AFRICA</text><text fill="#000000" font-family="sans-serif" font-size="5.6" lengthAdjust="spacing" textLength="24" x="177" y="404.2578">OCEANIA</text><text fill="#000000" font-family="sans-serif" font-size="5.6" lengthAdjust="spacing" textLength="20.8" x="177" y="411.9059">WORLD</text><line style="stroke:#181818;stroke-width:0.20000000000000004;" x1="175" x2="225.8" y1="414.7363" y2="414.7363"/></g><!--MD5=[3fd616f346a44cd59a91eb10b19e157c]
class User--><g id="elem_User"><rect codeLine="18" fill="#F1F1F1" height="156.8648" id="User" rx="1" ry="1" style="stroke:#181818;stroke-width:0.20000000000000004;" width="107.6" x="22.2" y="2.8"/><ellipse cx="68.5" cy="9.2" fill="#ADD1B2" rx="4.4" ry="4.4" style="stroke:#181818;stroke-width:0.4000000000000001;"/><path d="M68.375,11.6 Q67.6,11.6 67.15,11.0313 Q66.7,10.4563 66.7,9.275 Q66.7,8.275 67.175,7.6 Q67.65,6.925 68.475,6.925 Q68.6688,6.925 68.8688,6.9688 Q69.0313,7.025 69.1313,7.025 Q69.2125,7.025 69.2438,7.0188 Q69.2813,7.0063 69.4938,6.7375 L69.7875,8.4313 L69.4,8.6688 Q69.2,8.05 68.9688,7.825 Q68.7438,7.6 68.3813,7.6 Q67.9188,7.6 67.6438,8.075 Q67.375,8.5438 67.375,9.275 Q67.375,10.075 67.6063,10.5 Q67.8375,10.925 68.3563,10.925 Q68.725,10.925 68.9813,10.7 Q69.2438,10.4688 69.3813,9.9125 L69.7938,10.1188 Q69.6375,10.8188 69.2625,11.2125 Q68.8875,11.6 68.375,11.6 Z " fill="#000000"/><text fill="#000000" font-family="sans-serif" font-size="5.6" lengthAdjust="spacing" textLength="11.6" x="76.7" y="11.7936">User</text><line style="stroke:#181818;stroke-width:0.20000000000000004;" x1="22.6" x2="129.4" y1="15.6" y2="15.6"/><rect fill="none" height="2.4" style="stroke:#C82930;stroke-width:0.4000000000000001;" width="2.4" x="25.4" y="20.424"/><text fill="#000000" font-family="sans-serif" font-size="5.6" lengthAdjust="spacing" textLength="29.6" x="30.2" y="23.6176">userId: long</text><rect fill="none" height="2.4" style="stroke:#C82930;stroke-width:0.4000000000000001;" width="2.4" x="25.4" y="28.0721"/><text fill="#000000" font-family="sans-serif" font-size="5.6" lengthAdjust="spacing" textLength="43.2" x="30.2" y="31.2656">username: String</text><rect fill="none" height="2.4" style="stroke:#C82930;stroke-width:0.4000000000000001;" width="2.4" x="25.4" y="35.7201"/><text fill="#000000" font-family="sans-serif" font-size="5.6" lengthAdjust="spacing" textLength="42" x="30.2" y="38.9137">password: String</text><rect fill="none" height="2.4" style="stroke:#C82930;stroke-width:0.4000000000000001;" width="2.4" x="25.4" y="43.3682"/><text fill="#000000" font-family="sans-serif" font-size="5.6" lengthAdjust="spacing" textLength="58" x="30.2" y="46.5617">userStatus: UserStatus</text><rect fill="none" height="2.4" style="stroke:#C82930;stroke-width:0.4000000000000001;" width="2.4" x="25.4" y="51.0162"/><text fill="#000000" font-family="sans-serif" font-size="5.6" lengthAdjust="spacing" textLength="41.2" x="30.2" y="54.2098">createDay: Date</text><rect fill="none" height="2.4" style="stroke:#C82930;stroke-width:0.4000000000000001;" width="2.4" x="25.4" y="58.6643"/><text fill="#000000" font-family="sans-serif" font-size="5.6" lengthAdjust="spacing" textLength="36.4" x="30.2" y="61.8578">birthDay: Date</text><ellipse cx="26.6" cy="67.5123" fill="none" rx="1.2" ry="1.2" style="stroke:#038048;stroke-width:0.4000000000000001;"/><text fill="#000000" font-family="sans-serif" font-size="5.6" lengthAdjust="spacing" textLength="70.8" x="30.2" y="69.5059">userStatistics: UserStatistics</text><line style="stroke:#181818;stroke-width:0.20000000000000004;" x1="22.6" x2="129.4" y1="72.3363" y2="72.3363"/><ellipse cx="26.6" cy="78.3604" fill="#84BE84" rx="1.2" ry="1.2" style="stroke:#038048;stroke-width:0.4000000000000001;"/><text fill="#000000" font-family="sans-serif" font-size="5.6" lengthAdjust="spacing" textLength="89.6" x="30.2" y="80.3539">User(String name, String password)</text><ellipse cx="26.6" cy="86.0084" fill="#84BE84" rx="1.2" ry="1.2" style="stroke:#038048;stroke-width:0.4000000000000001;"/><text fill="#000000" font-family="sans-serif" font-size="5.6" lengthAdjust="spacing" textLength="42" x="30.2" y="88.002">getUserId(): long</text><ellipse cx="26.6" cy="93.6564" fill="#84BE84" rx="1.2" ry="1.2" style="stroke:#038048;stroke-width:0.4000000000000001;"/><text fill="#000000" font-family="sans-serif" font-size="5.6" lengthAdjust="spacing" textLength="55.6" x="30.2" y="95.65">getUsername(): String</text><ellipse cx="26.6" cy="101.3045" fill="#84BE84" rx="1.2" ry="1.2" style="stroke:#038048;stroke-width:0.4000000000000001;"/><text fill="#000000" font-family="sans-serif" font-size="5.6" lengthAdjust="spacing" textLength="81.2" x="30.2" y="103.298">setUsername(String name): void</text><ellipse cx="26.6" cy="108.9525" fill="#84BE84" rx="1.2" ry="1.2" style="stroke:#038048;stroke-width:0.4000000000000001;"/><text fill="#000000" font-family="sans-serif" font-size="5.6" lengthAdjust="spacing" textLength="54.4" x="30.2" y="110.9461">getPassword(): String</text><ellipse cx="26.6" cy="116.6006" fill="#84BE84" rx="1.2" ry="1.2" style="stroke:#038048;stroke-width:0.4000000000000001;"/><text fill="#000000" font-family="sans-serif" font-size="5.6" lengthAdjust="spacing" textLength="90" x="30.2" y="118.5941">setPassword(String password): void</text><ellipse cx="26.6" cy="124.2486" fill="#84BE84" rx="1.2" ry="1.2" style="stroke:#038048;stroke-width:0.4000000000000001;"/><text fill="#000000" font-family="sans-serif" font-size="5.6" lengthAdjust="spacing" textLength="70.4" x="30.2" y="126.2422">getUserStatus(): UserStatus</text><ellipse cx="26.6" cy="131.8967" fill="#84BE84" rx="1.2" ry="1.2" style="stroke:#038048;stroke-width:0.4000000000000001;"/><text fill="#000000" font-family="sans-serif" font-size="5.6" lengthAdjust="spacing" textLength="97.2" x="30.2" y="133.8902">setUserStatus(UserStatus status): void</text><ellipse cx="26.6" cy="139.5447" fill="#84BE84" rx="1.2" ry="1.2" style="stroke:#038048;stroke-width:0.4000000000000001;"/><text fill="#000000" font-family="sans-serif" font-size="5.6" lengthAdjust="spacing" textLength="66" x="30.2" y="141.5383">getUserCreateDay(): Date</text><ellipse cx="26.6" cy="147.1928" fill="#84BE84" rx="1.2" ry="1.2" style="stroke:#038048;stroke-width:0.4000000000000001;"/><text fill="#000000" font-family="sans-serif" font-size="5.6" lengthAdjust="spacing" textLength="60.4" x="30.2" y="149.1863">getUserBirthDay(): Date</text><ellipse cx="26.6" cy="154.8408" fill="#84BE84" rx="1.2" ry="1.2" style="stroke:#038048;stroke-width:0.4000000000000001;"/><text fill="#000000" font-family="sans-serif" font-size="5.6" lengthAdjust="spacing" textLength="92.4" x="30.2" y="156.8344">setUserBirthDay(Date birthday): void</text></g><!--MD5=[5a56d00b2ec6db6c7881cba88cf6014f]
class UserStatistics--><g id="elem_UserStatistics"><rect codeLine="39" fill="#F1F1F1" height="110.9766" id="UserStatistics" rx="1" ry="1" style="stroke:#181818;stroke-width:0.20000000000000004;" width="146.4" x="2.8" y="183.6"/><ellipse cx="57.3" cy="190" fill="#ADD1B2" rx="4.4" ry="4.4" style="stroke:#181818;stroke-width:0.4000000000000001;"/><path d="M57.175,192.4 Q56.4,192.4 55.95,191.8313 Q55.5,191.2563 55.5,190.075 Q55.5,189.075 55.975,188.4 Q56.45,187.725 57.275,187.725 Q57.4688,187.725 57.6688,187.7688 Q57.8313,187.825 57.9313,187.825 Q58.0125,187.825 58.0438,187.8188 Q58.0813,187.8063 58.2938,187.5375 L58.5875,189.2313 L58.2,189.4688 Q58,188.85 57.7688,188.625 Q57.5438,188.4 57.1813,188.4 Q56.7188,188.4 56.4438,188.875 Q56.175,189.3438 56.175,190.075 Q56.175,190.875 56.4063,191.3 Q56.6375,191.725 57.1563,191.725 Q57.525,191.725 57.7813,191.5 Q58.0438,191.2688 58.1813,190.7125 L58.5938,190.9188 Q58.4375,191.6188 58.0625,192.0125 Q57.6875,192.4 57.175,192.4 Z " fill="#000000"/><text fill="#000000" font-family="sans-serif" font-size="5.6" lengthAdjust="spacing" textLength="34" x="65.5" y="192.5936">UserStatistics</text><line style="stroke:#181818;stroke-width:0.20000000000000004;" x1="3.2" x2="148.8" y1="196.4" y2="196.4"/><rect fill="none" height="2.4" style="stroke:#C82930;stroke-width:0.4000000000000001;" width="2.4" x="6" y="201.224"/><text fill="#000000" font-family="sans-serif" font-size="5.6" lengthAdjust="spacing" textLength="39.6" x="10.8" y="204.4176">totalScore: long</text><rect fill="none" height="2.4" style="stroke:#C82930;stroke-width:0.4000000000000001;" width="2.4" x="6" y="208.8721"/><text fill="#000000" font-family="sans-serif" font-size="5.6" lengthAdjust="spacing" textLength="51.2" x="10.8" y="212.0656">totalGameNum: long</text><rect fill="none" height="2.4" style="stroke:#C82930;stroke-width:0.4000000000000001;" width="2.4" x="6" y="216.5201"/><text fill="#000000" font-family="sans-serif" font-size="5.6" lengthAdjust="spacing" textLength="102.8" x="10.8" y="219.7137">specificScore: Map&lt;CityCategory, Long&gt;</text><rect fill="none" height="2.4" style="stroke:#C82930;stroke-width:0.4000000000000001;" width="2.4" x="6" y="224.1682"/><text fill="#000000" font-family="sans-serif" font-size="5.6" lengthAdjust="spacing" textLength="98" x="10.8" y="227.3617">gameHistories: List&lt;UserGameHistory&gt;</text><line style="stroke:#181818;stroke-width:0.20000000000000004;" x1="3.2" x2="148.8" y1="230.1922" y2="230.1922"/><ellipse cx="7.2" cy="236.2162" fill="#84BE84" rx="1.2" ry="1.2" style="stroke:#038048;stroke-width:0.4000000000000001;"/><text fill="#000000" font-family="sans-serif" font-size="5.6" lengthAdjust="spacing" textLength="38" x="10.8" y="238.2098">UserStatistics()</text><ellipse cx="7.2" cy="243.8643" fill="#84BE84" rx="1.2" ry="1.2" style="stroke:#038048;stroke-width:0.4000000000000001;"/><text fill="#000000" font-family="sans-serif" font-size="5.6" lengthAdjust="spacing" textLength="53.6" x="10.8" y="245.8578">getTotalScore(): long</text><ellipse cx="7.2" cy="251.5123" fill="#84BE84" rx="1.2" ry="1.2" style="stroke:#038048;stroke-width:0.4000000000000001;"/><text fill="#000000" font-family="sans-serif" font-size="5.6" lengthAdjust="spacing" textLength="116.8" x="10.8" y="253.5059">getSpecificScore(CityCategory category): long</text><ellipse cx="7.2" cy="259.1604" fill="#84BE84" rx="1.2" ry="1.2" style="stroke:#038048;stroke-width:0.4000000000000001;"/><text fill="#000000" font-family="sans-serif" font-size="5.6" lengthAdjust="spacing" textLength="136" x="10.8" y="261.1539">updateScore(long score, CityCategory category): void</text><ellipse cx="7.2" cy="266.8084" fill="#84BE84" rx="1.2" ry="1.2" style="stroke:#038048;stroke-width:0.4000000000000001;"/><text fill="#000000" font-family="sans-serif" font-size="5.6" lengthAdjust="spacing" textLength="65.2" x="10.8" y="268.802">getTotalGameNum(): long</text><ellipse cx="7.2" cy="274.4564" fill="#84BE84" rx="1.2" ry="1.2" style="stroke:#038048;stroke-width:0.4000000000000001;"/><text fill="#000000" font-family="sans-serif" font-size="5.6" lengthAdjust="spacing" textLength="66.4" x="10.8" y="276.45">addTotalGameNum(): void</text><ellipse cx="7.2" cy="282.1045" fill="#84BE84" rx="1.2" ry="1.2" style="stroke:#038048;stroke-width:0.4000000000000001;"/><text fill="#000000" font-family="sans-serif" font-size="5.6" lengthAdjust="spacing" textLength="124.8" x="10.8" y="284.098">getGameHistoryList(): Iterator&lt;UserGameHistory&gt;</text><ellipse cx="7.2" cy="289.7525" fill="#84BE84" rx="1.2" ry="1.2" style="stroke:#038048;stroke-width:0.4000000000000001;"/><text fill="#000000" font-family="sans-serif" font-size="5.6" lengthAdjust="spacing" textLength="122" x="10.8" y="291.7461">addGameHistory(UserGameHistory history): void</text></g><!--MD5=[5f1a4ee01b044000409e218144d1ae93]
class UserGameHistory--><g id="elem_UserGameHistory"><rect codeLine="54" fill="#F1F1F1" height="103.3285" id="UserGameHistory" rx="1" ry="1" style="stroke:#181818;stroke-width:0.20000000000000004;" width="141.2" x="5.4" y="330"/><ellipse cx="52.3" cy="336.4" fill="#ADD1B2" rx="4.4" ry="4.4" style="stroke:#181818;stroke-width:0.4000000000000001;"/><path d="M52.175,338.8 Q51.4,338.8 50.95,338.2313 Q50.5,337.6563 50.5,336.475 Q50.5,335.475 50.975,334.8 Q51.45,334.125 52.275,334.125 Q52.4688,334.125 52.6688,334.1688 Q52.8313,334.225 52.9313,334.225 Q53.0125,334.225 53.0438,334.2188 Q53.0813,334.2063 53.2938,333.9375 L53.5875,335.6313 L53.2,335.8688 Q53,335.25 52.7688,335.025 Q52.5438,334.8 52.1813,334.8 Q51.7188,334.8 51.4438,335.275 Q51.175,335.7438 51.175,336.475 Q51.175,337.275 51.4063,337.7 Q51.6375,338.125 52.1563,338.125 Q52.525,338.125 52.7813,337.9 Q53.0438,337.6688 53.1813,337.1125 L53.5938,337.3188 Q53.4375,338.0188 53.0625,338.4125 Q52.6875,338.8 52.175,338.8 Z " fill="#000000"/><text fill="#000000" font-family="sans-serif" font-size="5.6" lengthAdjust="spacing" textLength="44" x="60.5" y="338.9936">UserGameHistory</text><line style="stroke:#181818;stroke-width:0.20000000000000004;" x1="5.8" x2="146.2" y1="342.8" y2="342.8"/><rect fill="none" height="2.4" style="stroke:#C82930;stroke-width:0.4000000000000001;" width="2.4" x="8.6" y="347.624"/><text fill="#000000" font-family="sans-serif" font-size="5.6" lengthAdjust="spacing" textLength="32.4" x="13.4" y="350.8176">gameId: long</text><rect fill="none" height="2.4" style="stroke:#C82930;stroke-width:0.4000000000000001;" width="2.4" x="8.6" y="355.2721"/><text fill="#000000" font-family="sans-serif" font-size="5.6" lengthAdjust="spacing" textLength="50.8" x="13.4" y="358.4656">gameInfo: GameInfo</text><rect fill="none" height="2.4" style="stroke:#C82930;stroke-width:0.4000000000000001;" width="2.4" x="8.6" y="362.9201"/><text fill="#000000" font-family="sans-serif" font-size="5.6" lengthAdjust="spacing" textLength="38" x="13.4" y="366.1137">gameScore: int</text><rect fill="none" height="2.4" style="stroke:#C82930;stroke-width:0.4000000000000001;" width="2.4" x="8.6" y="370.5682"/><text fill="#000000" font-family="sans-serif" font-size="5.6" lengthAdjust="spacing" textLength="60" x="13.4" y="373.7617">answerList: List&lt;String&gt;</text><line style="stroke:#181818;stroke-width:0.20000000000000004;" x1="5.8" x2="146.2" y1="376.5922" y2="376.5922"/><ellipse cx="9.8" cy="382.6162" fill="#84BE84" rx="1.2" ry="1.2" style="stroke:#038048;stroke-width:0.4000000000000001;"/><text fill="#000000" font-family="sans-serif" font-size="5.6" lengthAdjust="spacing" textLength="130.8" x="13.4" y="384.6098">UserGameHistory(long gameId, GameInfo gameInfo,</text><text fill="#000000" font-family="sans-serif" font-size="5.6" lengthAdjust="spacing" textLength="23.6" x="13.4" y="392.2578">int score)</text><ellipse cx="9.8" cy="397.9123" fill="#84BE84" rx="1.2" ry="1.2" style="stroke:#038048;stroke-width:0.4000000000000001;"/><text fill="#000000" font-family="sans-serif" font-size="5.6" lengthAdjust="spacing" textLength="45.6" x="13.4" y="399.9059">getGameId(): long</text><ellipse cx="9.8" cy="405.5604" fill="#84BE84" rx="1.2" ry="1.2" style="stroke:#038048;stroke-width:0.4000000000000001;"/><text fill="#000000" font-family="sans-serif" font-size="5.6" lengthAdjust="spacing" textLength="36" x="13.4" y="407.5539">getScore(): int</text><ellipse cx="9.8" cy="413.2084" fill="#84BE84" rx="1.2" ry="1.2" style="stroke:#038048;stroke-width:0.4000000000000001;"/><text fill="#000000" font-family="sans-serif" font-size="5.6" lengthAdjust="spacing" textLength="64" x="13.4" y="415.202">getGameInfo(): GameInfo</text><ellipse cx="9.8" cy="420.8564" fill="#84BE84" rx="1.2" ry="1.2" style="stroke:#038048;stroke-width:0.4000000000000001;"/><text fill="#000000" font-family="sans-serif" font-size="5.6" lengthAdjust="spacing" textLength="80" x="13.4" y="422.85">addAnswer(String answer): void</text><ellipse cx="9.8" cy="428.5045" fill="#84BE84" rx="1.2" ry="1.2" style="stroke:#038048;stroke-width:0.4000000000000001;"/><text fill="#000000" font-family="sans-serif" font-size="5.6" lengthAdjust="spacing" textLength="81.6" x="13.4" y="430.498">getAnswerList(): Iterator&lt;String&gt;</text></g><!--MD5=[b6dcce5e5ef3c84b0b048d11301373dd]
class Game--><g id="elem_Game"><rect codeLine="73" fill="#F1F1F1" height="110.9766" id="Game" rx="1" ry="1" style="stroke:#181818;stroke-width:0.20000000000000004;" width="177.6" x="198.4" y="25.8"/><ellipse cx="277.9" cy="32.2" fill="#ADD1B2" rx="4.4" ry="4.4" style="stroke:#181818;stroke-width:0.4000000000000001;"/><path d="M277.775,34.6 Q277,34.6 276.55,34.0313 Q276.1,33.4563 276.1,32.275 Q276.1,31.275 276.575,30.6 Q277.05,29.925 277.875,29.925 Q278.0688,29.925 278.2688,29.9688 Q278.4313,30.025 278.5313,30.025 Q278.6125,30.025 278.6438,30.0188 Q278.6813,30.0063 278.8938,29.7375 L279.1875,31.4313 L278.8,31.6688 Q278.6,31.05 278.3688,30.825 Q278.1438,30.6 277.7813,30.6 Q277.3188,30.6 277.0438,31.075 Q276.775,31.5438 276.775,32.275 Q276.775,33.075 277.0063,33.5 Q277.2375,33.925 277.7563,33.925 Q278.125,33.925 278.3813,33.7 Q278.6438,33.4688 278.7813,32.9125 L279.1938,33.1188 Q279.0375,33.8188 278.6625,34.2125 Q278.2875,34.6 277.775,34.6 Z " fill="#000000"/><text fill="#000000" font-family="sans-serif" font-size="5.6" lengthAdjust="spacing" textLength="15.2" x="286.1" y="34.7936">Game</text><line style="stroke:#181818;stroke-width:0.20000000000000004;" x1="198.8" x2="375.6" y1="38.6" y2="38.6"/><rect fill="none" height="2.4" style="stroke:#C82930;stroke-width:0.4000000000000001;" width="2.4" x="201.6" y="43.424"/><text fill="#000000" font-family="sans-serif" font-size="5.6" lengthAdjust="spacing" textLength="32.4" x="206.4" y="46.6176">gameId: long</text><rect fill="none" height="2.4" style="stroke:#C82930;stroke-width:0.4000000000000001;" width="2.4" x="201.6" y="51.0721"/><text fill="#000000" font-family="sans-serif" font-size="5.6" lengthAdjust="spacing" textLength="58" x="206.4" y="54.2656">category: CityCategory</text><rect fill="none" height="2.4" style="stroke:#C82930;stroke-width:0.4000000000000001;" width="2.4" x="201.6" y="58.7201"/><text fill="#000000" font-family="sans-serif" font-size="5.6" lengthAdjust="spacing" textLength="39.6" x="206.4" y="61.9137">totalRounds: int</text><rect fill="none" height="2.4" style="stroke:#C82930;stroke-width:0.4000000000000001;" width="2.4" x="201.6" y="66.3682"/><text fill="#000000" font-family="sans-serif" font-size="5.6" lengthAdjust="spacing" textLength="48.8" x="206.4" y="69.5617">countdownTime: int</text><rect fill="none" height="2.4" style="stroke:#C82930;stroke-width:0.4000000000000001;" width="2.4" x="201.6" y="74.0162"/><text fill="#000000" font-family="sans-serif" font-size="5.6" lengthAdjust="spacing" textLength="58.8" x="206.4" y="77.2098">playerList: List&lt;Player&gt;</text><rect fill="none" height="2.4" style="stroke:#C82930;stroke-width:0.4000000000000001;" width="2.4" x="201.6" y="81.6643"/><text fill="#000000" font-family="sans-serif" font-size="5.6" lengthAdjust="spacing" textLength="44" x="206.4" y="84.8578">currentRound: int</text><line style="stroke:#181818;stroke-width:0.20000000000000004;" x1="198.8" x2="375.6" y1="87.6883" y2="87.6883"/><ellipse cx="202.8" cy="93.7123" fill="#84BE84" rx="1.2" ry="1.2" style="stroke:#038048;stroke-width:0.4000000000000001;"/><text fill="#000000" font-family="sans-serif" font-size="5.6" lengthAdjust="spacing" textLength="167.2" x="206.4" y="95.7059">Game(CityCategory category, int totalRounds, int countdownTime)</text><ellipse cx="202.8" cy="101.3604" fill="#84BE84" rx="1.2" ry="1.2" style="stroke:#038048;stroke-width:0.4000000000000001;"/><text fill="#000000" font-family="sans-serif" font-size="5.6" lengthAdjust="spacing" textLength="90" x="206.4" y="103.3539">addPlayer(User userAsPlayer): void</text><ellipse cx="202.8" cy="109.0084" fill="#84BE84" rx="1.2" ry="1.2" style="stroke:#038048;stroke-width:0.4000000000000001;"/><text fill="#000000" font-family="sans-serif" font-size="5.6" lengthAdjust="spacing" textLength="60" x="206.4" y="111.002">getCurrentRounds(): int</text><ellipse cx="202.8" cy="116.6564" fill="#84BE84" rx="1.2" ry="1.2" style="stroke:#038048;stroke-width:0.4000000000000001;"/><text fill="#000000" font-family="sans-serif" font-size="5.6" lengthAdjust="spacing" textLength="53.6" x="206.4" y="118.65">getTotalRounds(): int</text><ellipse cx="202.8" cy="124.3045" fill="#84BE84" rx="1.2" ry="1.2" style="stroke:#038048;stroke-width:0.4000000000000001;"/><text fill="#000000" font-family="sans-serif" font-size="5.6" lengthAdjust="spacing" textLength="62" x="206.4" y="126.298">getCountdownTime(): int</text><ellipse cx="202.8" cy="131.9525" fill="#84BE84" rx="1.2" ry="1.2" style="stroke:#038048;stroke-width:0.4000000000000001;"/><text fill="#000000" font-family="sans-serif" font-size="5.6" lengthAdjust="spacing" textLength="104" x="206.4" y="133.9461">getPlayerRanking(): List&lt;PlayerRanking&gt;</text></g><!--MD5=[2cb47ba637a0d19583e6199456f6ad0b]
class Player--><g id="elem_Player"><rect codeLine="89" fill="#F1F1F1" height="103.3285" id="Player" rx="1" ry="1" style="stroke:#181818;stroke-width:0.20000000000000004;" width="92" x="163.2" y="187.4"/><ellipse cx="199.5" cy="193.8" fill="#ADD1B2" rx="4.4" ry="4.4" style="stroke:#181818;stroke-width:0.4000000000000001;"/><path d="M199.375,196.2 Q198.6,196.2 198.15,195.6313 Q197.7,195.0563 197.7,193.875 Q197.7,192.875 198.175,192.2 Q198.65,191.525 199.475,191.525 Q199.6688,191.525 199.8688,191.5688 Q200.0313,191.625 200.1313,191.625 Q200.2125,191.625 200.2438,191.6188 Q200.2813,191.6063 200.4938,191.3375 L200.7875,193.0313 L200.4,193.2688 Q200.2,192.65 199.9688,192.425 Q199.7438,192.2 199.3813,192.2 Q198.9188,192.2 198.6438,192.675 Q198.375,193.1438 198.375,193.875 Q198.375,194.675 198.6063,195.1 Q198.8375,195.525 199.3563,195.525 Q199.725,195.525 199.9813,195.3 Q200.2438,195.0688 200.3813,194.5125 L200.7938,194.7188 Q200.6375,195.4188 200.2625,195.8125 Q199.8875,196.2 199.375,196.2 Z " fill="#000000"/><text fill="#000000" font-family="sans-serif" font-size="5.6" lengthAdjust="spacing" textLength="16" x="207.7" y="196.3936">Player</text><line style="stroke:#181818;stroke-width:0.20000000000000004;" x1="163.6" x2="254.8" y1="200.2" y2="200.2"/><rect fill="none" height="2.4" style="stroke:#C82930;stroke-width:0.4000000000000001;" width="2.4" x="166.4" y="205.024"/><text fill="#000000" font-family="sans-serif" font-size="5.6" lengthAdjust="spacing" textLength="29.6" x="171.2" y="208.2176">userId: long</text><rect fill="none" height="2.4" style="stroke:#C82930;stroke-width:0.4000000000000001;" width="2.4" x="166.4" y="212.6721"/><text fill="#000000" font-family="sans-serif" font-size="5.6" lengthAdjust="spacing" textLength="48" x="171.2" y="215.8656">playerName: String</text><rect fill="none" height="2.4" style="stroke:#C82930;stroke-width:0.4000000000000001;" width="2.4" x="166.4" y="220.3201"/><text fill="#000000" font-family="sans-serif" font-size="5.6" lengthAdjust="spacing" textLength="23.2" x="171.2" y="223.5137">score: int</text><rect fill="none" height="2.4" style="stroke:#C82930;stroke-width:0.4000000000000001;" width="2.4" x="166.4" y="227.9682"/><text fill="#000000" font-family="sans-serif" font-size="5.6" lengthAdjust="spacing" textLength="60" x="171.2" y="231.1617">answerList: List&lt;String&gt;</text><line style="stroke:#181818;stroke-width:0.20000000000000004;" x1="163.6" x2="254.8" y1="233.9922" y2="233.9922"/><ellipse cx="167.6" cy="240.0162" fill="#84BE84" rx="1.2" ry="1.2" style="stroke:#038048;stroke-width:0.4000000000000001;"/><text fill="#000000" font-family="sans-serif" font-size="5.6" lengthAdjust="spacing" textLength="81.6" x="171.2" y="242.0098">Player(long userId, String name)</text><ellipse cx="167.6" cy="247.6643" fill="#84BE84" rx="1.2" ry="1.2" style="stroke:#038048;stroke-width:0.4000000000000001;"/><text fill="#000000" font-family="sans-serif" font-size="5.6" lengthAdjust="spacing" textLength="42" x="171.2" y="249.6578">getUserId(): long</text><ellipse cx="167.6" cy="255.3123" fill="#84BE84" rx="1.2" ry="1.2" style="stroke:#038048;stroke-width:0.4000000000000001;"/><text fill="#000000" font-family="sans-serif" font-size="5.6" lengthAdjust="spacing" textLength="60.4" x="171.2" y="257.3059">getPlayerName(): String</text><ellipse cx="167.6" cy="262.9604" fill="#84BE84" rx="1.2" ry="1.2" style="stroke:#038048;stroke-width:0.4000000000000001;"/><text fill="#000000" font-family="sans-serif" font-size="5.6" lengthAdjust="spacing" textLength="36" x="171.2" y="264.9539">getScore(): int</text><ellipse cx="167.6" cy="270.6084" fill="#84BE84" rx="1.2" ry="1.2" style="stroke:#038048;stroke-width:0.4000000000000001;"/><text fill="#000000" font-family="sans-serif" font-size="5.6" lengthAdjust="spacing" textLength="63.6" x="171.2" y="272.602">addScore(int score): void</text><ellipse cx="167.6" cy="278.2564" fill="#84BE84" rx="1.2" ry="1.2" style="stroke:#038048;stroke-width:0.4000000000000001;"/><text fill="#000000" font-family="sans-serif" font-size="5.6" lengthAdjust="spacing" textLength="80" x="171.2" y="280.25">addAnswer(String answer): void</text><ellipse cx="167.6" cy="285.9045" fill="#84BE84" rx="1.2" ry="1.2" style="stroke:#038048;stroke-width:0.4000000000000001;"/><text fill="#000000" font-family="sans-serif" font-size="5.6" lengthAdjust="spacing" textLength="81.6" x="171.2" y="287.898">getAnswerList(): Iterator&lt;String&gt;</text></g><!--MD5=[3dbdd82daa10279c055138dc8d63ad7f]
class GameInfo--><g id="elem_GameInfo"><rect codeLine="111" fill="#F1F1F1" height="126.2727" id="GameInfo" rx="1" ry="1" style="stroke:#181818;stroke-width:0.20000000000000004;" width="128.8" x="240.4" y="318.4"/><ellipse cx="290.9" cy="324.8" fill="#ADD1B2" rx="4.4" ry="4.4" style="stroke:#181818;stroke-width:0.4000000000000001;"/><path d="M290.775,327.2 Q290,327.2 289.55,326.6313 Q289.1,326.0563 289.1,324.875 Q289.1,323.875 289.575,323.2 Q290.05,322.525 290.875,322.525 Q291.0688,322.525 291.2688,322.5688 Q291.4313,322.625 291.5313,322.625 Q291.6125,322.625 291.6438,322.6188 Q291.6813,322.6063 291.8938,322.3375 L292.1875,324.0313 L291.8,324.2688 Q291.6,323.65 291.3688,323.425 Q291.1438,323.2 290.7813,323.2 Q290.3188,323.2 290.0438,323.675 Q289.775,324.1438 289.775,324.875 Q289.775,325.675 290.0063,326.1 Q290.2375,326.525 290.7563,326.525 Q291.125,326.525 291.3813,326.3 Q291.6438,326.0688 291.7813,325.5125 L292.1938,325.7188 Q292.0375,326.4188 291.6625,326.8125 Q291.2875,327.2 290.775,327.2 Z " fill="#000000"/><text fill="#000000" font-family="sans-serif" font-size="5.6" lengthAdjust="spacing" textLength="24.4" x="299.1" y="327.3936">GameInfo</text><line style="stroke:#181818;stroke-width:0.20000000000000004;" x1="240.8" x2="368.8" y1="331.2" y2="331.2"/><rect fill="none" height="2.4" style="stroke:#C82930;stroke-width:0.4000000000000001;" width="2.4" x="243.6" y="336.024"/><text fill="#000000" font-family="sans-serif" font-size="5.6" lengthAdjust="spacing" textLength="32.4" x="248.4" y="339.2176">gameId: long</text><rect fill="none" height="2.4" style="stroke:#C82930;stroke-width:0.4000000000000001;" width="2.4" x="243.6" y="343.6721"/><text fill="#000000" font-family="sans-serif" font-size="5.6" lengthAdjust="spacing" textLength="73.2" x="248.4" y="346.8656">gameCategory: CityCategory</text><rect fill="none" height="2.4" style="stroke:#C82930;stroke-width:0.4000000000000001;" width="2.4" x="243.6" y="351.3201"/><text fill="#000000" font-family="sans-serif" font-size="5.6" lengthAdjust="spacing" textLength="41.6" x="248.4" y="354.5137">gameTime: Date</text><rect fill="none" height="2.4" style="stroke:#C82930;stroke-width:0.4000000000000001;" width="2.4" x="243.6" y="358.9682"/><text fill="#000000" font-family="sans-serif" font-size="5.6" lengthAdjust="spacing" textLength="42.8" x="248.4" y="362.1617">gameRounds: int</text><rect fill="none" height="2.4" style="stroke:#C82930;stroke-width:0.4000000000000001;" width="2.4" x="243.6" y="366.6162"/><text fill="#000000" font-family="sans-serif" font-size="5.6" lengthAdjust="spacing" textLength="36" x="248.4" y="369.8098">playerNum: int</text><rect fill="none" height="2.4" style="stroke:#C82930;stroke-width:0.4000000000000001;" width="2.4" x="243.6" y="374.2643"/><text fill="#000000" font-family="sans-serif" font-size="5.6" lengthAdjust="spacing" textLength="54" x="248.4" y="377.4578">labelList: List&lt;String&gt;</text><line style="stroke:#181818;stroke-width:0.20000000000000004;" x1="240.8" x2="368.8" y1="380.2883" y2="380.2883"/><ellipse cx="244.8" cy="386.3123" fill="#84BE84" rx="1.2" ry="1.2" style="stroke:#038048;stroke-width:0.4000000000000001;"/><text fill="#000000" font-family="sans-serif" font-size="5.6" lengthAdjust="spacing" textLength="118.4" x="248.4" y="388.3059">GameInfo(long gameId, CityCategory category,</text><text fill="#000000" font-family="sans-serif" font-size="5.6" lengthAdjust="spacing" textLength="78" x="248.4" y="395.9539">int gameRound, int playerNum)</text><ellipse cx="244.8" cy="401.6084" fill="#84BE84" rx="1.2" ry="1.2" style="stroke:#038048;stroke-width:0.4000000000000001;"/><text fill="#000000" font-family="sans-serif" font-size="5.6" lengthAdjust="spacing" textLength="71.2" x="248.4" y="403.602">getCategory(): CityCategory</text><ellipse cx="244.8" cy="409.2564" fill="#84BE84" rx="1.2" ry="1.2" style="stroke:#038048;stroke-width:0.4000000000000001;"/><text fill="#000000" font-family="sans-serif" font-size="5.6" lengthAdjust="spacing" textLength="54.8" x="248.4" y="411.25">getGameTime(): Date</text><ellipse cx="244.8" cy="416.9045" fill="#84BE84" rx="1.2" ry="1.2" style="stroke:#038048;stroke-width:0.4000000000000001;"/><text fill="#000000" font-family="sans-serif" font-size="5.6" lengthAdjust="spacing" textLength="48.4" x="248.4" y="418.898">getPlayerNum(): int</text><ellipse cx="244.8" cy="424.5525" fill="#84BE84" rx="1.2" ry="1.2" style="stroke:#038048;stroke-width:0.4000000000000001;"/><text fill="#000000" font-family="sans-serif" font-size="5.6" lengthAdjust="spacing" textLength="53.2" x="248.4" y="426.5461">getGameRound(): int</text><ellipse cx="244.8" cy="432.2006" fill="#84BE84" rx="1.2" ry="1.2" style="stroke:#038048;stroke-width:0.4000000000000001;"/><text fill="#000000" font-family="sans-serif" font-size="5.6" lengthAdjust="spacing" textLength="69.6" x="248.4" y="434.1941">addLabel(String label): void</text><ellipse cx="244.8" cy="439.8486" fill="#84BE84" rx="1.2" ry="1.2" style="stroke:#038048;stroke-width:0.4000000000000001;"/><text fill="#000000" font-family="sans-serif" font-size="5.6" lengthAdjust="spacing" textLength="77.2" x="248.4" y="441.8422">getLabelList(): Iterator&lt;String&gt;</text></g><!--MD5=[3582fbb016336012346c31a00cd27035]
reverse link User to UserStatistics--><g id="link_User_UserStatistics"><path codeLine="68" d="M76,161.724 C76,169.108 76,176.472 76,183.56 " fill="none" id="User-backto-UserStatistics" style="stroke:#181818;stroke-width:0.4000000000000001;"/><polygon fill="#181818" points="76,159.64,74.4,163.24,76,161.64,77.6,163.24,76,159.64" style="stroke:#181818;stroke-width:0.4000000000000001;"/></g><!--MD5=[bf2fdfe05571cb59ff2fe6a1a06cc23c]
reverse link User to UserStatus--><g id="link_User_UserStatus"><path codeLine="69" d="M132.02,81.2 C135.944,81.2 139.868,81.2 143.792,81.2 " fill="none" id="User-backto-UserStatus" style="stroke:#181818;stroke-width:0.4000000000000001;"/><polygon fill="#181818" points="129.968,81.2,133.568,82.8,131.968,81.2,133.568,79.6,129.968,81.2" style="stroke:#181818;stroke-width:0.4000000000000001;"/></g><!--MD5=[9f32dde08f7e135be0a2feddc44688eb]
reverse link UserStatistics to UserGameHistory--><g id="link_UserStatistics_UserGameHistory"><path codeLine="70" d="M76,299.664 C76,309.732 76,320.1 76,329.92 " fill="none" id="UserStatistics-backto-UserGameHistory" style="stroke:#181818;stroke-width:0.4000000000000001;"/><polygon fill="#181818" points="76,294.428,74.4,296.828,76,299.228,77.6,296.828,76,294.428" style="stroke:#181818;stroke-width:0.4000000000000001;"/></g><!--MD5=[c0c62b7cd827967004c209f35c7a74d3]
reverse link UserStatistics to CityCategory--><g id="link_UserStatistics_CityCategory"><path codeLine="71" d="M133.372,295.98 C140.34,303.384 147.236,310.976 153.6,318.4 C160.812,326.816 168.172,336.236 174.86,345.172 " fill="none" id="UserStatistics-backto-CityCategory" style="stroke:#181818;stroke-width:0.4000000000000001;"/><polygon fill="#181818" points="131.98,294.504,133.2899,298.2194,133.3537,295.9576,135.6156,296.0214,131.98,294.504" style="stroke:#181818;stroke-width:0.4000000000000001;"/></g><!--MD5=[a6d2a5af26f22c316b3c030e8bd9b8f9]
link User to Player--><g id="link_User_Player"><path codeLine="128" d="M129.84,151.252 C132.172,154.088 134.5,156.88 136.8,159.6 C144.696,168.936 153.312,178.688 161.756,188.024 " fill="none" id="User-to-Player" style="stroke:#181818;stroke-width:0.4000000000000001;stroke-dasharray:7.0,7.0;"/><polygon fill="#181818" points="163.108,189.52,161.8739,185.7788,161.7641,188.0388,159.504,187.929,163.108,189.52" style="stroke:#181818;stroke-width:0.4000000000000001;"/><text fill="#000000" font-family="sans-serif" font-size="5.2" lengthAdjust="spacing" textLength="2.8" x="133.0336" y="154.2713">1</text><text fill="#000000" font-family="sans-serif" font-size="5.2" lengthAdjust="spacing" textLength="2.8" x="157.2655" y="185.2971">1</text></g><!--MD5=[bbc6ee62d3d47812e486fb9dc1de45ab]
reverse link Game to Player--><g id="link_Game_Player"><path codeLine="129" d="M257.544,141.296 C250.004,156.468 241.972,172.636 234.664,187.344 " fill="none" id="Game-backto-Player" style="stroke:#181818;stroke-width:0.4000000000000001;"/><polygon fill="none" points="259.864,136.62,257.3631,138.0572,257.7279,140.9185,260.2288,139.4813,259.864,136.62" style="stroke:#181818;stroke-width:0.4000000000000001;"/></g><!--MD5=[a06280fe4d7a2576f7e2d3ce392935b6]
reverse link Game to CityCategory--><g id="link_Game_CityCategory"><path codeLine="131" d="M285.288,138.696 C282.648,192.408 276.492,268.36 262.4,294.4 C254.468,309.052 244.092,305.456 233.6,318.4 C227.076,326.448 221.26,335.976 216.388,345.144 " fill="none" id="Game-backto-CityCategory" style="stroke:#181818;stroke-width:0.4000000000000001;"/><polygon fill="#181818" points="285.388,136.636,283.6152,140.1541,285.291,138.6336,286.8115,140.3094,285.388,136.636" style="stroke:#181818;stroke-width:0.4000000000000001;"/></g><!--MD5=[963e6fa041f55b7d7e08590098ae3c79]
link Game to GameInfo--><g id="link_Game_GameInfo"><path codeLine="132" d="M290.44,136.724 C293.42,187.452 297.84,262.716 300.988,316.32 " fill="none" id="Game-to-GameInfo" style="stroke:#181818;stroke-width:0.4000000000000001;stroke-dasharray:7.0,7.0;"/><polygon fill="#181818" points="301.108,318.376,302.5,314.6906,300.9939,316.3793,299.3052,314.8731,301.108,318.376" style="stroke:#181818;stroke-width:0.4000000000000001;"/><text fill="#000000" font-family="sans-serif" font-size="5.2" lengthAdjust="spacing" textLength="2.8" x="287.7406" y="145.909">1</text><text fill="#000000" font-family="sans-serif" font-size="5.2" lengthAdjust="spacing" textLength="2.8" x="298.0454" y="314.1109">1</text></g><!--MD5=[0472abc6a8877fa66f9f6ada59b4f0de]
link CityCategory to GameInfo--><g id="link_CityCategory_GameInfo"><path codeLine="133" d="M226.296,381.6 C230.256,381.6 234.216,381.6 238.176,381.6 " fill="none" id="CityCategory-to-GameInfo" style="stroke:#181818;stroke-width:0.4000000000000001;"/><polygon fill="#181818" points="240.248,381.6,236.648,380,238.248,381.6,236.648,383.2,240.248,381.6" style="stroke:#181818;stroke-width:0.4000000000000001;"/></g><!--MD5=[ec75bb5748477ae1678bfd33c902d788]
@startuml
'https://plantuml.com/class-diagram

enum UserStatus {
    ONLINE
    OFFLINE
}

enum CityCategory {
    EUROPE
    ASIA
    NORTH_AMERICA
    SOUTH_AMERICA
    AFRICA
    OCEANIA
    WORLD
}

class User {
    - userId: long
    - username: String
    - password: String
    - userStatus: UserStatus
    - createDay: Date
    - birthDay: Date
    + userStatistics: UserStatistics
    + User(String name, String password)
    + getUserId(): long
    + getUsername(): String
    + setUsername(String name): void
    + getPassword(): String
    + setPassword(String password): void
    + getUserStatus(): UserStatus
    + setUserStatus(UserStatus status): void
    + getUserCreateDay(): Date
    + getUserBirthDay(): Date
    + setUserBirthDay(Date birthday): void
}

class UserStatistics {
    - totalScore: long
    - totalGameNum: long
    - specificScore: Map<CityCategory, Long>
    - gameHistories: List<UserGameHistory>
    + UserStatistics()
    + getTotalScore(): long
    + getSpecificScore(CityCategory category): long
    + updateScore(long score, CityCategory category): void
    + getTotalGameNum(): long
    + addTotalGameNum(): void
    + getGameHistoryList(): Iterator<UserGameHistory>
    + addGameHistory(UserGameHistory history): void
}

class UserGameHistory {
    - gameId: long
    - gameInfo: GameInfo
    - gameScore: int
    - answerList: List<String>
    + UserGameHistory(long gameId, GameInfo gameInfo,
      int score)
    + getGameId(): long
    + getScore(): int
    + getGameInfo(): GameInfo
    + addAnswer(String answer): void
    + getAnswerList(): Iterator<String>
}

User <- - UserStatistics
User <- UserStatus
UserStatistics *- - UserGameHistory
UserStatistics <- - CityCategory

class Game {
    - gameId: long
    - category: CityCategory
    - totalRounds: int
    - countdownTime: int
    - playerList: List<Player>
    - currentRound: int

    + Game(CityCategory category, int totalRounds, int countdownTime)
    + addPlayer(User userAsPlayer): void
    + getCurrentRounds(): int
    + getTotalRounds(): int
    + getCountdownTime(): int
    + getPlayerRanking(): List<PlayerRanking>
}

class Player {
    - userId: long
    - playerName: String
    - score: int
    - answerList: List<String>
    + Player(long userId, String name)
    + getUserId(): long
    + getPlayerName(): String
    + getScore(): int
    + addScore(int score): void
    + addAnswer(String answer): void
    + getAnswerList(): Iterator<String>
}

'class PlayerRanking {
'    - playerName: String
'    - rank: int
'    + PlayerRanking(String name, int rank)
'    + getPlayerName(): String
'    + getRank(): int
'}

class GameInfo {
    - gameId: long
    - gameCategory: CityCategory
    - gameTime: Date
    - gameRounds: int
    - playerNum: int
    - labelList: List<String>
    + GameInfo(long gameId, CityCategory category,
      int gameRound, int playerNum)
    + getCategory(): CityCategory
    + getGameTime(): Date
    + getPlayerNum(): int
    + getGameRound(): int
    + addLabel(String label): void
    + getLabelList(): Iterator<String>
}

User "1"..>"1" Player
Game o- Player

Game <- - - CityCategory
Game "1"..>"1" GameInfo
CityCategory -> GameInfo



'CityCategory <|- - EuroCity
'CityCategory <|- - - AsiaCity
'CityCategory <|- - - NorthAmericaCity
'CityCategory <|- - - - WorldCity

@enduml

@startuml

enum UserStatus {
    ONLINE
    OFFLINE
}

enum CityCategory {
    EUROPE
    ASIA
    NORTH_AMERICA
    SOUTH_AMERICA
    AFRICA
    OCEANIA
    WORLD
}

class User {
    - userId: long
    - username: String
    - password: String
    - userStatus: UserStatus
    - createDay: Date
    - birthDay: Date
    + userStatistics: UserStatistics
    + User(String name, String password)
    + getUserId(): long
    + getUsername(): String
    + setUsername(String name): void
    + getPassword(): String
    + setPassword(String password): void
    + getUserStatus(): UserStatus
    + setUserStatus(UserStatus status): void
    + getUserCreateDay(): Date
    + getUserBirthDay(): Date
    + setUserBirthDay(Date birthday): void
}

class UserStatistics {
    - totalScore: long
    - totalGameNum: long
    - specificScore: Map<CityCategory, Long>
    - gameHistories: List<UserGameHistory>
    + UserStatistics()
    + getTotalScore(): long
    + getSpecificScore(CityCategory category): long
    + updateScore(long score, CityCategory category): void
    + getTotalGameNum(): long
    + addTotalGameNum(): void
    + getGameHistoryList(): Iterator<UserGameHistory>
    + addGameHistory(UserGameHistory history): void
}

class UserGameHistory {
    - gameId: long
    - gameInfo: GameInfo
    - gameScore: int
    - answerList: List<String>
    + UserGameHistory(long gameId, GameInfo gameInfo,
      int score)
    + getGameId(): long
    + getScore(): int
    + getGameInfo(): GameInfo
    + addAnswer(String answer): void
    + getAnswerList(): Iterator<String>
}

User <- - UserStatistics
User <- UserStatus
UserStatistics *- - UserGameHistory
UserStatistics <- - CityCategory

class Game {
    - gameId: long
    - category: CityCategory
    - totalRounds: int
    - countdownTime: int
    - playerList: List<Player>
    - currentRound: int

    + Game(CityCategory category, int totalRounds, int countdownTime)
    + addPlayer(User userAsPlayer): void
    + getCurrentRounds(): int
    + getTotalRounds(): int
    + getCountdownTime(): int
    + getPlayerRanking(): List<PlayerRanking>
}

class Player {
    - userId: long
    - playerName: String
    - score: int
    - answerList: List<String>
    + Player(long userId, String name)
    + getUserId(): long
    + getPlayerName(): String
    + getScore(): int
    + addScore(int score): void
    + addAnswer(String answer): void
    + getAnswerList(): Iterator<String>
}


class GameInfo {
    - gameId: long
    - gameCategory: CityCategory
    - gameTime: Date
    - gameRounds: int
    - playerNum: int
    - labelList: List<String>
    + GameInfo(long gameId, CityCategory category,
      int gameRound, int playerNum)
    + getCategory(): CityCategory
    + getGameTime(): Date
    + getPlayerNum(): int
    + getGameRound(): int
    + addLabel(String label): void
    + getLabelList(): Iterator<String>
}

User "1"..>"1" Player
Game o- Player

Game <- - - CityCategory
Game "1"..>"1" GameInfo
CityCategory -> GameInfo




@enduml

PlantUML version 1.2022.12(Sun Oct 23 20:12:26 CEST 2022)
(GPL source distribution)
Java Runtime: OpenJDK Runtime Environment
JVM: OpenJDK 64-Bit Server VM
Default Encoding: GBK
Language: zh
Country: CN
--></g></svg>