<?xml version="1.0" encoding="UTF-8" standalone="no"?><svg xmlns="http://www.w3.org/2000/svg" xmlns:xlink="http://www.w3.org/1999/xlink" contentStyleType="text/css" height="422.4px" preserveAspectRatio="none" style="width:535px;height:422px;background:#FFFFFF;" version="1.1" viewBox="0 0 535 422" width="535.8px" zoomAndPan="magnify"><defs/><g><!--MD5=[406b65fecc21e832f7a9b6ebadc6dce1]
cluster Client--><g id="cluster_Client"><path d="M5.1,3.6 L30.3,3.6 A2.25,2.25 0 0 1 31.8,5.1 L36,18.6721 L491.7,18.6721 A1.5,1.5 0 0 1 493.2,20.1721 L493.2,63.9 A1.5,1.5 0 0 1 491.7,65.4 L5.1,65.4 A1.5,1.5 0 0 1 3.6,63.9 L3.6,5.1 A1.5,1.5 0 0 1 5.1,3.6 " fill="none" style="stroke:#000000;stroke-width:0.8999999999999999;"/><line style="stroke:#000000;stroke-width:0.8999999999999999;" x1="3.6" x2="36" y1="18.6721" y2="18.6721"/><text fill="#000000" font-family="sans-serif" font-size="8.4" font-weight="bold" lengthAdjust="spacing" textLength="24.6" x="6" y="14.4264">Client</text></g><!--MD5=[979da56a7f83e2393dc758167ae295d0]
cluster Server--><g id="cluster_Server"><path d="M155.1,160.2 L184.5,160.2 A2.25,2.25 0 0 1 186,161.7 L190.2,175.2721 L353.1,175.2721 A1.5,1.5 0 0 1 354.6,176.7721 L354.6,220.5 A1.5,1.5 0 0 1 353.1,222 L155.1,222 A1.5,1.5 0 0 1 153.6,220.5 L153.6,161.7 A1.5,1.5 0 0 1 155.1,160.2 " fill="none" style="stroke:#000000;stroke-width:0.8999999999999999;"/><line style="stroke:#000000;stroke-width:0.8999999999999999;" x1="153.6" x2="190.2" y1="175.2721" y2="175.2721"/><text fill="#000000" font-family="sans-serif" font-size="8.4" font-weight="bold" lengthAdjust="spacing" textLength="28.8" x="156" y="171.0264">Server</text></g><!--MD5=[815249f79c2c08157ac02b3106e03757]
cluster Database--><g id="cluster_Database"><path d="M77.4,347.7 C77.4,341.7 245.7,341.7 245.7,341.7 C245.7,341.7 414,341.7 414,347.7 L414,406.5 C414,412.5 245.7,412.5 245.7,412.5 C245.7,412.5 77.4,412.5 77.4,406.5 L77.4,347.7 " fill="none" style="stroke:#181818;stroke-width:0.6;"/><path d="M77.4,347.7 C77.4,353.7 245.7,353.7 245.7,353.7 C245.7,353.7 414,353.7 414,347.7 " fill="none" style="stroke:#181818;stroke-width:0.6;"/><text fill="#000000" font-family="sans-serif" font-size="8.4" font-weight="bold" lengthAdjust="spacing" textLength="39" x="226.2" y="364.5264">Database</text></g><!--MD5=[ae6592c57f2ac3df22e5fbf123f96452]
entity Welcome Page--><g id="elem_Welcome Page"><rect fill="#F1F1F1" height="29.4721" rx="1.5" ry="1.5" style="stroke:#181818;stroke-width:0.3;" width="81" x="402.3" y="26.4"/><rect fill="#F1F1F1" height="6" style="stroke:#181818;stroke-width:0.3;" width="9" x="471.3" y="29.4"/><rect fill="#F1F1F1" height="1.2" style="stroke:#181818;stroke-width:0.3;" width="2.4" x="470.1" y="30.6"/><rect fill="#F1F1F1" height="1.2" style="stroke:#181818;stroke-width:0.3;" width="2.4" x="470.1" y="33"/><text fill="#000000" font-family="sans-serif" font-size="8.4" lengthAdjust="spacing" textLength="57" x="411.3" y="48.0264">Welcome Page</text></g><!--MD5=[1f154d3fc85de103715cc56423b92bdd]
entity Single Mode--><g id="elem_Single Mode"><rect fill="#F1F1F1" height="29.4721" rx="1.5" ry="1.5" style="stroke:#181818;stroke-width:0.3;" width="70.8" x="123" y="26.4"/><rect fill="#F1F1F1" height="6" style="stroke:#181818;stroke-width:0.3;" width="9" x="181.8" y="29.4"/><rect fill="#F1F1F1" height="1.2" style="stroke:#181818;stroke-width:0.3;" width="2.4" x="180.6" y="30.6"/><rect fill="#F1F1F1" height="1.2" style="stroke:#181818;stroke-width:0.3;" width="2.4" x="180.6" y="33"/><text fill="#000000" font-family="sans-serif" font-size="8.4" lengthAdjust="spacing" textLength="46.8" x="132" y="48.0264">Single Mode</text></g><!--MD5=[cc94d0a31dfa3de87f1f084eefe6b25b]
entity Multiplayer Mode--><g id="elem_Multiplayer Mode"><rect fill="#F1F1F1" height="29.4721" rx="1.5" ry="1.5" style="stroke:#181818;stroke-width:0.3;" width="88.2" x="13.5" y="26.4"/><rect fill="#F1F1F1" height="6" style="stroke:#181818;stroke-width:0.3;" width="9" x="89.7" y="29.4"/><rect fill="#F1F1F1" height="1.2" style="stroke:#181818;stroke-width:0.3;" width="2.4" x="88.5" y="30.6"/><rect fill="#F1F1F1" height="1.2" style="stroke:#181818;stroke-width:0.3;" width="2.4" x="88.5" y="33"/><text fill="#000000" font-family="sans-serif" font-size="8.4" lengthAdjust="spacing" textLength="64.2" x="22.5" y="48.0264">Multiplayer Mode</text></g><!--MD5=[b214c64e4a0cc897ccc762f8eeb5cf80]
entity Profile View--><g id="elem_Profile View"><rect fill="#F1F1F1" height="29.4721" rx="1.5" ry="1.5" style="stroke:#181818;stroke-width:0.3;" width="67.8" x="313.5" y="26.4"/><rect fill="#F1F1F1" height="6" style="stroke:#181818;stroke-width:0.3;" width="9" x="369.3" y="29.4"/><rect fill="#F1F1F1" height="1.2" style="stroke:#181818;stroke-width:0.3;" width="2.4" x="368.1" y="30.6"/><rect fill="#F1F1F1" height="1.2" style="stroke:#181818;stroke-width:0.3;" width="2.4" x="368.1" y="33"/><text fill="#000000" font-family="sans-serif" font-size="8.4" lengthAdjust="spacing" textLength="43.8" x="322.5" y="48.0264">Profile View</text></g><!--MD5=[0d867d4caaa13966c457b193e4450542]
entity Statistics View--><g id="elem_Statistics View"><rect fill="#F1F1F1" height="29.4721" rx="1.5" ry="1.5" style="stroke:#181818;stroke-width:0.3;" width="77.4" x="215.1" y="26.4"/><rect fill="#F1F1F1" height="6" style="stroke:#181818;stroke-width:0.3;" width="9" x="280.5" y="29.4"/><rect fill="#F1F1F1" height="1.2" style="stroke:#181818;stroke-width:0.3;" width="2.4" x="279.3" y="30.6"/><rect fill="#F1F1F1" height="1.2" style="stroke:#181818;stroke-width:0.3;" width="2.4" x="279.3" y="33"/><text fill="#000000" font-family="sans-serif" font-size="8.4" lengthAdjust="spacing" textLength="53.4" x="224.1" y="48.0264">Statistics View</text></g><!--MD5=[ded2b4362123a53331f7089b0e9fd9ca]
entity Game Information--><g id="elem_Game Information"><rect fill="#F1F1F1" height="29.4721" rx="1.5" ry="1.5" style="stroke:#181818;stroke-width:0.3;" width="91.2" x="253.8" y="183"/><rect fill="#F1F1F1" height="6" style="stroke:#181818;stroke-width:0.3;" width="9" x="333" y="186"/><rect fill="#F1F1F1" height="1.2" style="stroke:#181818;stroke-width:0.3;" width="2.4" x="331.8" y="187.2"/><rect fill="#F1F1F1" height="1.2" style="stroke:#181818;stroke-width:0.3;" width="2.4" x="331.8" y="189.6"/><text fill="#000000" font-family="sans-serif" font-size="8.4" lengthAdjust="spacing" textLength="67.2" x="262.8" y="204.6264">Game Information</text></g><!--MD5=[bc16f03f05191a35c3c9cf085d751a7e]
entity Game Logic--><g id="elem_Game Logic"><rect fill="#F1F1F1" height="29.4721" rx="1.5" ry="1.5" style="stroke:#181818;stroke-width:0.3;" width="69.6" x="163.2" y="183"/><rect fill="#F1F1F1" height="6" style="stroke:#181818;stroke-width:0.3;" width="9" x="220.8" y="186"/><rect fill="#F1F1F1" height="1.2" style="stroke:#181818;stroke-width:0.3;" width="2.4" x="219.6" y="187.2"/><rect fill="#F1F1F1" height="1.2" style="stroke:#181818;stroke-width:0.3;" width="2.4" x="219.6" y="189.6"/><text fill="#000000" font-family="sans-serif" font-size="8.4" lengthAdjust="spacing" textLength="45.6" x="172.2" y="204.6264">Game Logic</text></g><!--MD5=[ac1f67a67366d39ecbf5c3085bdf2ba9]
entity User Repository--><g id="elem_User Repository"><rect fill="#F1F1F1" height="29.4721" rx="1.5" ry="1.5" style="stroke:#181818;stroke-width:0.3;" width="84.6" x="319.5" y="373.5"/><rect fill="#F1F1F1" height="6" style="stroke:#181818;stroke-width:0.3;" width="9" x="392.1" y="376.5"/><rect fill="#F1F1F1" height="1.2" style="stroke:#181818;stroke-width:0.3;" width="2.4" x="390.9" y="377.7"/><rect fill="#F1F1F1" height="1.2" style="stroke:#181818;stroke-width:0.3;" width="2.4" x="390.9" y="380.1"/><text fill="#000000" font-family="sans-serif" font-size="8.4" lengthAdjust="spacing" textLength="60.6" x="328.5" y="395.1264">User Repository</text></g><!--MD5=[663e512ad2ed6fdc839940156e97abd9]
entity Statistic Repository--><g id="elem_Statistic Repository"><rect fill="#F1F1F1" height="29.4721" rx="1.5" ry="1.5" style="stroke:#181818;stroke-width:0.3;" width="96.6" x="201.9" y="373.5"/><rect fill="#F1F1F1" height="6" style="stroke:#181818;stroke-width:0.3;" width="9" x="286.5" y="376.5"/><rect fill="#F1F1F1" height="1.2" style="stroke:#181818;stroke-width:0.3;" width="2.4" x="285.3" y="377.7"/><rect fill="#F1F1F1" height="1.2" style="stroke:#181818;stroke-width:0.3;" width="2.4" x="285.3" y="380.1"/><text fill="#000000" font-family="sans-serif" font-size="8.4" lengthAdjust="spacing" textLength="72.6" x="210.9" y="395.1264">Statistic Repository</text></g><!--MD5=[fe0f012ee356d95b2cb4e063e6f5289d]
entity Picture Repository--><g id="elem_Picture Repository"><rect fill="#F1F1F1" height="29.4721" rx="1.5" ry="1.5" style="stroke:#181818;stroke-width:0.3;" width="93.6" x="87" y="373.5"/><rect fill="#F1F1F1" height="6" style="stroke:#181818;stroke-width:0.3;" width="9" x="168.6" y="376.5"/><rect fill="#F1F1F1" height="1.2" style="stroke:#181818;stroke-width:0.3;" width="2.4" x="167.4" y="377.7"/><rect fill="#F1F1F1" height="1.2" style="stroke:#181818;stroke-width:0.3;" width="2.4" x="167.4" y="380.1"/><text fill="#000000" font-family="sans-serif" font-size="8.4" lengthAdjust="spacing" textLength="69.6" x="96" y="395.1264">Picture Repository</text></g><!--MD5=[f1e19f039b0e80f2083339da3bce0675]
entity Flickr API Module--><g id="elem_Flickr API Module"><rect fill="#F1F1F1" height="29.4721" rx="1.5" ry="1.5" style="stroke:#181818;stroke-width:0.3;" width="89.4" x="24.9" y="268.8"/><rect fill="#F1F1F1" height="6" style="stroke:#181818;stroke-width:0.3;" width="9" x="102.3" y="271.8"/><rect fill="#F1F1F1" height="1.2" style="stroke:#181818;stroke-width:0.3;" width="2.4" x="101.1" y="273"/><rect fill="#F1F1F1" height="1.2" style="stroke:#181818;stroke-width:0.3;" width="2.4" x="101.1" y="275.4"/><text fill="#000000" font-family="sans-serif" font-size="8.4" lengthAdjust="spacing" textLength="65.4" x="33.9" y="290.4264">Flickr API Module</text></g><!--MD5=[da103941045f4aaf50f092ce7849599b]
entity Flickr API--><g id="elem_Flickr API"><ellipse cx="69.6" cy="197.7" fill="#F1F1F1" rx="4.8" ry="4.8" style="stroke:#181818;stroke-width:0.3;"/><text fill="#000000" font-family="sans-serif" font-size="8.4" lengthAdjust="spacing" textLength="35.4" x="51.9" y="217.5264">Flickr API</text></g><!--MD5=[1341162690297cf091a6cf4ec86bbbc7]
entity Login / Sign Up--><g id="elem_Login / Sign Up"><ellipse cx="502.8" cy="112.8" fill="#F1F1F1" rx="4.8" ry="4.8" style="stroke:#181818;stroke-width:0.3;"/><text fill="#000000" font-family="sans-serif" font-size="8.4" lengthAdjust="spacing" textLength="57.6" x="474" y="132.6264">Login / Sign Up</text></g><!--MD5=[164f46d8af29687dc6584bd63b98d38c]
entity Show Profile--><g id="elem_Show Profile"><ellipse cx="420" cy="112.8" fill="#F1F1F1" rx="4.8" ry="4.8" style="stroke:#181818;stroke-width:0.3;"/><text fill="#000000" font-family="sans-serif" font-size="8.4" lengthAdjust="spacing" textLength="46.8" x="396.6" y="132.6264">Show Profile</text></g><!--MD5=[615a355d907a911a95d6e06e5d1c11f2]
entity Change Profile--><g id="elem_Change Profile"><ellipse cx="337.8" cy="112.8" fill="#F1F1F1" rx="4.8" ry="4.8" style="stroke:#181818;stroke-width:0.3;"/><text fill="#000000" font-family="sans-serif" font-size="8.4" lengthAdjust="spacing" textLength="56.4" x="309.6" y="132.6264">Change Profile</text></g><!--MD5=[fdaf8f327c4b536849ba5e3028f080f0]
entity Show Statistics--><g id="elem_Show Statistics"><ellipse cx="250.8" cy="112.8" fill="#F1F1F1" rx="4.8" ry="4.8" style="stroke:#181818;stroke-width:0.3;"/><text fill="#000000" font-family="sans-serif" font-size="8.4" lengthAdjust="spacing" textLength="56.4" x="222.6" y="132.6264">Show Statistics</text></g><!--MD5=[d19f1a89c315ddef9dc8e36275f0e47f]
entity Play Single Mode--><g id="elem_Play Single Mode"><ellipse cx="159.6" cy="112.8" fill="#F1F1F1" rx="4.8" ry="4.8" style="stroke:#181818;stroke-width:0.3;"/><text fill="#000000" font-family="sans-serif" font-size="8.4" lengthAdjust="spacing" textLength="65.4" x="126.9" y="132.6264">Play Single Mode</text></g><!--MD5=[ae0b3a159469e5a8a38efa08d75e2f80]
entity Play Multiplayer Mode--><g id="elem_Play Multiplayer Mode"><ellipse cx="55.2" cy="112.8" fill="#F1F1F1" rx="4.8" ry="4.8" style="stroke:#181818;stroke-width:0.3;"/><text fill="#000000" font-family="sans-serif" font-size="8.4" lengthAdjust="spacing" textLength="82.8" x="13.8" y="132.6264">Play Multiplayer Mode</text></g><!--MD5=[cd8ee371560f2c56a67394c0d1fc256e]
entity Create / Update User--><g id="elem_Create / Update User"><ellipse cx="424.2" cy="283.5" fill="#F1F1F1" rx="4.8" ry="4.8" style="stroke:#181818;stroke-width:0.3;"/><text fill="#000000" font-family="sans-serif" font-size="8.4" lengthAdjust="spacing" textLength="79.8" x="384.3" y="303.3264">Create / Update User</text></g><!--MD5=[afcaf396868b72786e5067fe3e53fb80]
entity Load Profile--><g id="elem_Load Profile"><ellipse cx="331.2" cy="283.5" fill="#F1F1F1" rx="4.8" ry="4.8" style="stroke:#181818;stroke-width:0.3;"/><text fill="#000000" font-family="sans-serif" font-size="8.4" lengthAdjust="spacing" textLength="45.6" x="308.4" y="303.3264">Load Profile</text></g><!--MD5=[44b015a484f3e91684f50844492cc834]
entity Load Statistics--><g id="elem_Load Statistics"><ellipse cx="250.2" cy="283.5" fill="#F1F1F1" rx="4.8" ry="4.8" style="stroke:#181818;stroke-width:0.3;"/><text fill="#000000" font-family="sans-serif" font-size="8.4" lengthAdjust="spacing" textLength="55.2" x="222.6" y="303.3264">Load Statistics</text></g><!--MD5=[58c631d45ec264dff13db9ee5d7761e4]
entity Draw Pictures--><g id="elem_Draw Pictures"><ellipse cx="166.2" cy="283.5" fill="#F1F1F1" rx="4.8" ry="4.8" style="stroke:#181818;stroke-width:0.3;"/><text fill="#000000" font-family="sans-serif" font-size="8.4" lengthAdjust="spacing" textLength="52.2" x="140.1" y="303.3264">Draw Pictures</text></g><!--MD5=[22f36abb0311cdd8a8073d647fff0be6]
link Welcome Page to Login / Sign Up--><g id="link_Welcome Page_Login / Sign Up"><path d="M454.944,55.968 C468.504,71.898 489.714,96.828 498.63,107.304 " fill="none" id="Welcome Page-Login / Sign Up" style="stroke:#181818;stroke-width:0.6;"/></g><!--MD5=[04a4cbaf70f1d95029c5cf4871eeb507]
link Profile View to Show Profile--><g id="link_Profile View_Show Profile"><path d="M362.094,55.968 C376.578,70.032 398.28,91.104 410.592,103.062 " fill="none" id="Profile View-to-Show Profile" style="stroke:#181818;stroke-width:0.6;"/><path d="M417.1667,102.3782 A5.4,5.4 0 0 0 410.0927 109.6551" fill="none" style="stroke:#181818;stroke-width:0.8999999999999999;"/></g><!--MD5=[1d194b95d12e93d625d79df141e8597e]
link Profile View to Change Profile--><g id="link_Profile View_Change Profile"><path d="M345.456,55.968 C343.29,71.898 339.894,96.828 338.466,107.304 " fill="none" id="Profile View-Change Profile" style="stroke:#181818;stroke-width:0.6;"/></g><!--MD5=[cfc4e99bc5c462b5a56f4cdf80fbb405]
link Statistics View to Show Statistics--><g id="link_Statistics View_Show Statistics"><path d="M253.194,55.968 C252.624,69.348 251.784,89.07 251.268,101.25 " fill="none" id="Statistics View-to-Show Statistics" style="stroke:#181818;stroke-width:0.6;"/><path d="M256.1565,105.669 A5.4,5.4 0 0 0 246.0166 105.2483" fill="none" style="stroke:#181818;stroke-width:0.8999999999999999;"/></g><!--MD5=[8e23afb7144dc737510cd17f354d2a93]
link Single Mode to Play Single Mode--><g id="link_Single Mode_Play Single Mode"><path d="M158.64,55.968 C158.892,70.53 159.264,92.61 159.468,104.298 " fill="none" id="Single Mode-to-Play Single Mode" style="stroke:#181818;stroke-width:0.6;stroke-dasharray:7.0,7.0;"/><polygon fill="#181818" points="159.516,107.304,161.8231,101.8637,159.4646,104.3044,157.0238,101.9459,159.516,107.304" style="stroke:#181818;stroke-width:0.6;"/></g><!--MD5=[c0baeb01030106748209bde9ab5b29ba]
link Multiplayer Mode to Play Multiplayer Mode--><g id="link_Multiplayer Mode_Play Multiplayer Mode"><path d="M57.114,55.968 C56.616,70.53 55.866,92.61 55.47,104.298 " fill="none" id="Multiplayer Mode-to-Play Multiplayer Mode" style="stroke:#181818;stroke-width:0.6;stroke-dasharray:7.0,7.0;"/><polygon fill="#181818" points="55.368,107.304,57.9516,101.9894,55.4708,104.3058,53.1544,101.8249,55.368,107.304" style="stroke:#181818;stroke-width:0.6;"/></g><!--MD5=[8ee58c6e6b5c5016e7f55fa3c8af6d34]
reverse link Login / Sign Up to Game Information--><g id="link_Login / Sign Up_Game Information"><path d="M491.448,118.272 C482.616,122.052 470.046,127.404 459,132 C416.25,149.796 366.864,169.866 334.488,182.958 " fill="none" id="Login / Sign Up-backto-Game Information" style="stroke:#181818;stroke-width:0.6;"/><path d="M493.4433,111.9016 A5.4,5.4 0 0 0 497.4463 121.2274" fill="none" style="stroke:#181818;stroke-width:0.8999999999999999;"/></g><!--MD5=[8fd4168661ff30f593025443661b898a]
link Show Profile to Game Information--><g id="link_Show Profile_Game Information"><path d="M414.504,117.216 C398.01,128.664 348.306,163.158 319.896,182.874 " fill="none" id="Show Profile-Game Information" style="stroke:#181818;stroke-width:0.6;"/></g><!--MD5=[c5cc441316724961a57e83079e7d2fe2]
reverse link Change Profile to Game Information--><g id="link_Change Profile_Game Information"><path d="M332.952,123.966 C326.094,138.912 313.542,166.272 305.886,182.958 " fill="none" id="Change Profile-backto-Game Information" style="stroke:#181818;stroke-width:0.6;"/><path d="M330.1319,117.9472 A5.4,5.4 0 0 0 339.3549 122.1817" fill="none" style="stroke:#181818;stroke-width:0.8999999999999999;"/></g><!--MD5=[a08f6155dc9f360662df105c986b3455]
link Show Statistics to Game Information--><g id="link_Show Statistics_Game Information"><path d="M253.692,118.386 C260.952,130.878 280.116,163.89 291.192,182.958 " fill="none" id="Show Statistics-Game Information" style="stroke:#181818;stroke-width:0.6;"/></g><!--MD5=[97efb0a9e586ac4f5496d07d75244bc0]
link Play Single Mode to Game Logic--><g id="link_Play Single Mode_Game Logic"><path d="M161.886,118.386 C167.616,130.878 182.766,163.89 191.514,182.958 " fill="none" id="Play Single Mode-Game Logic" style="stroke:#181818;stroke-width:0.6;"/></g><!--MD5=[05b57e06435d47107859695de40c8cb0]
link Play Multiplayer Mode to Game Logic--><g id="link_Play Multiplayer Mode_Game Logic"><path d="M60.624,116.58 C78.966,127.326 139.428,162.768 173.718,182.868 " fill="none" id="Play Multiplayer Mode-Game Logic" style="stroke:#181818;stroke-width:0.6;"/></g><!--MD5=[13f3923bb90b5047766e1ec9706b96c5]
link Game Information to Load Profile--><g id="link_Game Information_Load Profile"><path d="M304.722,212.46 C311.064,229.338 321.522,257.148 327.21,272.28 " fill="none" id="Game Information-to-Load Profile" style="stroke:#181818;stroke-width:0.6;"/><path d="M333.4243,274.4074 A5.4,5.4 0 0 0 323.9284 277.9883" fill="none" style="stroke:#181818;stroke-width:0.8999999999999999;"/></g><!--MD5=[b8c95e7e588db136f6abfa5b85f62e2d]
link Game Information to Load Statistics--><g id="link_Game Information_Load Statistics"><path d="M291.168,212.46 C281.262,229.488 264.888,257.64 256.14,272.682 " fill="none" id="Game Information-to-Load Statistics" style="stroke:#181818;stroke-width:0.6;"/><path d="M258.4068,278.8815 A5.4,5.4 0 0 0 249.6348 273.7778" fill="none" style="stroke:#181818;stroke-width:0.8999999999999999;"/></g><!--MD5=[65fbe7866511e52c512e633a8a58c309]
link Game Information to Create / Update User--><g id="link_Game Information_Create / Update User"><path d="M320.286,212.46 C349.71,232.404 401.664,267.624 418.656,279.138 " fill="none" id="Game Information-Create / Update User" style="stroke:#181818;stroke-width:0.6;"/></g><!--MD5=[59504eff1a53ed2fe8c69453928f38f7]
link Game Logic to Draw Pictures--><g id="link_Game Logic_Draw Pictures"><path d="M192.678,212.46 C186.336,229.338 175.878,257.148 170.19,272.28 " fill="none" id="Game Logic-to-Draw Pictures" style="stroke:#181818;stroke-width:0.6;"/><path d="M173.4716,277.9883 A5.4,5.4 0 0 0 163.9757 274.4074" fill="none" style="stroke:#181818;stroke-width:0.8999999999999999;"/></g><!--MD5=[48a683010c1bdd59333878d849e512d8]
reverse link Flickr API to Flickr API Module--><g id="link_Flickr API_Flickr API Module"><path d="M69.6,209.406 C69.6,224.652 69.6,252.078 69.6,268.77 " fill="none" id="Flickr API-backto-Flickr API Module" style="stroke:#181818;stroke-width:0.6;"/><path d="M64.5257,205.1869 A5.4,5.4 0 0 0 74.6743 205.1869" fill="none" style="stroke:#181818;stroke-width:0.8999999999999999;"/><text fill="#000000" font-family="sans-serif" font-size="7.8" lengthAdjust="spacing" textLength="58.8" x="70.2" y="244.4388">Retrieve Pictures</text></g><!--MD5=[182c3c90eee0005c7069a559a59bd5f2]
link Flickr API Module to Picture Repository--><g id="link_Flickr API Module_Picture Repository"><path d="M76.992,298.374 C82.104,308.028 89.184,320.994 96,332.1 C104.148,345.384 114.096,359.928 121.74,370.794 " fill="none" id="Flickr API Module-to-Picture Repository" style="stroke:#181818;stroke-width:0.6;stroke-dasharray:7.0,7.0;"/><polygon fill="#181818" points="123.63,373.47,122.475,367.6747,121.8993,371.0196,118.5544,370.4438,123.63,373.47" style="stroke:#181818;stroke-width:0.6;"/><text fill="#000000" font-family="sans-serif" font-size="7.8" lengthAdjust="spacing" textLength="49.8" x="96.6" y="330.2388">Store Pictures</text></g><!--MD5=[7a2e4cc7e0fa72b7a8ae88f6b383746f]
link Draw Pictures to Picture Repository--><g id="link_Draw Pictures_Picture Repository"><path d="M164.64,289.092 C159.9,304.236 145.56,350.04 138.222,373.47 " fill="none" id="Draw Pictures-Picture Repository" style="stroke:#181818;stroke-width:0.6;"/></g><!--MD5=[e0fc2639ff47f946ae4d489598f7f4c3]
link Statistic Repository to User Repository--><g id="link_Statistic Repository_User Repository"><path d="M298.59,388.2 C304.476,388.2 310.362,388.2 316.254,388.2 " fill="none" id="Statistic Repository-to-User Repository" style="stroke:#181818;stroke-width:0.6;stroke-dasharray:7.0,7.0;"/><polygon fill="#181818" points="319.332,388.2,313.932,385.8,316.332,388.2,313.932,390.6,319.332,388.2" style="stroke:#181818;stroke-width:0.6;"/></g><!--MD5=[0ec392ea24beeaf663ee704e258cb557]
reverse link Create / Update User to User Repository--><g id="link_Create / Update User_User Repository"><path d="M418.014,294.354 C406.794,312.966 383.064,352.326 370.32,373.47 " fill="none" id="Create / Update User-backto-User Repository" style="stroke:#181818;stroke-width:0.6;"/><path d="M415.8878,288.0585 A5.4,5.4 0 0 0 424.5838 293.2906" fill="none" style="stroke:#181818;stroke-width:0.8999999999999999;"/></g><!--MD5=[85af8b547833f138b3ce41d25c2a5df1]
link Load Profile to User Repository--><g id="link_Load Profile_User Repository"><path d="M332.676,289.092 C337.152,304.236 350.694,350.04 357.624,373.47 " fill="none" id="Load Profile-User Repository" style="stroke:#181818;stroke-width:0.6;"/></g><!--MD5=[4c094dd77dabe6ea05dba0c97fe6dc71]
link Load Statistics to Statistic Repository--><g id="link_Load Statistics_Statistic Repository"><path d="M250.2,289.092 C250.2,304.236 250.2,350.04 250.2,373.47 " fill="none" id="Load Statistics-Statistic Repository" style="stroke:#181818;stroke-width:0.6;"/></g><!--MD5=[54fdc2cdcc49125f229bf24869818ab8]
@startuml
'https://plantuml.com/component-diagram

component "Flickr API Module"

interface "Flickr API"
interface "Login / Sign Up"
interface "Show Profile"
interface "Change Profile"
interface "Show Statistics"
interface "Play Single Mode"
interface "Play Multiplayer Mode"
interface "Create / Update User"
interface "Load Profile"
interface "Load Statistics"
interface "Draw Pictures"

package "Client" {
  component [Welcome Page]
  component [Single Mode]
  component [Multiplayer Mode]
  component [Profile View]
  component [Statistics View]
'  port "Port1" as P1
'  port "Port2" as P2
'  port "Port9" as P9
'  port "Port14" as P14
'  port "Port15" as P15
}

[Welcome Page] - - [Login / Sign Up]
[Profile View] - -( [Show Profile]
[Profile View] - - [Change Profile]
[Statistics View] - -( [Show Statistics]
[Single Mode] ..> [Play Single Mode]
[Multiplayer Mode] ..> [Play Multiplayer Mode]

package "Server" {
    component [Game Information]
    component [Game Logic]
'  port "Port3" as P3
'  port "Port4" as P4
'  port "Port5" as P5
'  port "Port8" as P8
'  port "Port11" as P11
'  port "Port12" as P12
'  port "Port16" as P16
'  port "Port17" as P17
'  port "Port20" as P20
'  port "Port21" as P21
}
'[Login / Sign Up] )- - P1
'[Show Profile] - - P1
'[Change Profile] )- - P1
'[Show Statistics] - - P1
'P1 - - [Game Information]
[Login / Sign Up] )- - [Game Information]
[Show Profile] - - [Game Information]
[Change Profile] )- - [Game Information]
[Show Statistics] - - [Game Information]
[Play Single Mode] - - [Game Logic]
[Play Multiplayer Mode] - - [Game Logic]
[Game Information] - -( [Load Profile]
[Game Information] - -( [Load Statistics]
[Game Information] - - [Create / Update User]
[Game Logic] - -( [Draw Pictures]

database "Database" {
    component [User Repository]
    component [Statistic Repository]
    component [Picture Repository]
'  port "Port6" as P6
'  port "Port7" as P7
'  port "Port13" as P13
'  port "Port18" as P18
'  port "Port19" as P19
}

[Flickr API] )- - [Flickr API Module]: Retrieve Pictures
[Flickr API Module] ..> [Picture Repository]: Store Pictures
[Draw Pictures] - - [Picture Repository]

[Statistic Repository] .right.> [User Repository]
[Create / Update User]  )- - [User Repository]
[Load Profile] - - [User Repository]
[Load Statistics] - - [Statistic Repository]

@enduml

@startuml

component "Flickr API Module"

interface "Flickr API"
interface "Login / Sign Up"
interface "Show Profile"
interface "Change Profile"
interface "Show Statistics"
interface "Play Single Mode"
interface "Play Multiplayer Mode"
interface "Create / Update User"
interface "Load Profile"
interface "Load Statistics"
interface "Draw Pictures"

package "Client" {
  component [Welcome Page]
  component [Single Mode]
  component [Multiplayer Mode]
  component [Profile View]
  component [Statistics View]
}

[Welcome Page] - - [Login / Sign Up]
[Profile View] - -( [Show Profile]
[Profile View] - - [Change Profile]
[Statistics View] - -( [Show Statistics]
[Single Mode] ..> [Play Single Mode]
[Multiplayer Mode] ..> [Play Multiplayer Mode]

package "Server" {
    component [Game Information]
    component [Game Logic]
}
[Login / Sign Up] )- - [Game Information]
[Show Profile] - - [Game Information]
[Change Profile] )- - [Game Information]
[Show Statistics] - - [Game Information]
[Play Single Mode] - - [Game Logic]
[Play Multiplayer Mode] - - [Game Logic]
[Game Information] - -( [Load Profile]
[Game Information] - -( [Load Statistics]
[Game Information] - - [Create / Update User]
[Game Logic] - -( [Draw Pictures]

database "Database" {
    component [User Repository]
    component [Statistic Repository]
    component [Picture Repository]
}

[Flickr API] )- - [Flickr API Module]: Retrieve Pictures
[Flickr API Module] ..> [Picture Repository]: Store Pictures
[Draw Pictures] - - [Picture Repository]

[Statistic Repository] .right.> [User Repository]
[Create / Update User]  )- - [User Repository]
[Load Profile] - - [User Repository]
[Load Statistics] - - [Statistic Repository]

@enduml

PlantUML version 1.2022.12(Sun Oct 23 20:12:26 CEST 2022)
(GPL source distribution)
Java Runtime: OpenJDK Runtime Environment
JVM: OpenJDK 64-Bit Server VM
Default Encoding: GBK
Language: zh
Country: CN
--></g></svg>