<?xml version="1.0" encoding="UTF-8" standalone="no"?><svg xmlns="http://www.w3.org/2000/svg" xmlns:xlink="http://www.w3.org/1999/xlink" contentStyleType="text/css" height="1675px" preserveAspectRatio="none" style="width:1002px;height:1675px;background:#FFFFFF;" version="1.1" viewBox="0 0 1002 1675" width="1002px" zoomAndPan="magnify"><defs/><g><ellipse cx="473.5" cy="20" fill="#222222" rx="10" ry="10" style="stroke:#222222;stroke-width:1.0;"/><polygon fill="#F1F1F1" points="429,50,518,50,530,62,518,74,429,74,417,62,429,50" style="stroke:#181818;stroke-width:0.5;"/><text fill="#000000" font-family="sans-serif" font-size="11" lengthAdjust="spacing" textLength="89" x="429" y="67.0945">CLick in login page</text><rect fill="#F1F1F1" height="36.3887" rx="12.5" ry="12.5" style="stroke:#181818;stroke-width:0.5;" width="191" x="261" y="114.0459"/><text fill="#000000" font-family="sans-serif" font-size="12" lengthAdjust="spacing" textLength="171" x="271" y="137.7979">Enter username and password</text><rect fill="#F1F1F1" height="36.3887" rx="12.5" ry="12.5" style="stroke:#181818;stroke-width:0.5;" width="113" x="300" y="170.4346"/><text fill="#000000" font-family="sans-serif" font-size="12" lengthAdjust="spacing" textLength="93" x="310" y="194.1865">Check password</text><rect fill="#F1F1F1" height="36.3887" rx="12.5" ry="12.5" style="stroke:#181818;stroke-width:0.5;" width="214" x="472" y="114.0459"/><text fill="#000000" font-family="sans-serif" font-size="12" lengthAdjust="spacing" textLength="194" x="482" y="137.7979">Choose username &amp; Set password</text><rect fill="#F1F1F1" height="36.3887" rx="12.5" ry="12.5" style="stroke:#181818;stroke-width:0.5;" width="73" x="542.5" y="170.4346"/><text fill="#000000" font-family="sans-serif" font-size="12" lengthAdjust="spacing" textLength="53" x="552.5" y="194.1865">new User</text><rect fill="#F1F1F1" height="36.3887" rx="12.5" ry="12.5" style="stroke:#181818;stroke-width:0.5;" width="122" x="518" y="226.8232"/><text fill="#000000" font-family="sans-serif" font-size="12" lengthAdjust="spacing" textLength="102" x="528" y="250.5752">Create user profile</text><polygon fill="#F1F1F1" points="473.5,273.2119,473.5,273.2119,485.5,285.2119,473.5,297.2119,473.5,297.2119,461.5,285.2119,473.5,273.2119" style="stroke:#181818;stroke-width:0.5;"/><polygon fill="#F1F1F1" points="430.5,373.6006,516.5,373.6006,528.5,385.6006,516.5,397.6006,430.5,397.6006,418.5,385.6006,430.5,373.6006" style="stroke:#181818;stroke-width:0.5;"/><text fill="#000000" font-family="sans-serif" font-size="11" lengthAdjust="spacing" textLength="86" x="430.5" y="390.6951">Click in homepage</text><rect fill="#F1F1F1" height="36.3887" rx="12.5" ry="12.5" style="stroke:#181818;stroke-width:0.5;" width="109" x="18" y="437.6465"/><text fill="#000000" font-family="sans-serif" font-size="12" lengthAdjust="spacing" textLength="89" x="28" y="461.3984">load user profile</text><rect fill="#F1F1F1" height="36.3887" rx="12.5" ry="12.5" style="stroke:#181818;stroke-width:0.5;" width="123" x="11" y="612.9353"/><text fill="#000000" font-family="sans-serif" font-size="12" lengthAdjust="spacing" textLength="103" x="21" y="636.6873">update user profile</text><rect fill="#F1F1F1" height="36.3887" rx="12.5" ry="12.5" style="stroke:#181818;stroke-width:0.5;" width="111" x="17" y="684.324"/><text fill="#000000" font-family="sans-serif" font-size="12" lengthAdjust="spacing" textLength="91" x="27" y="708.0759">save user profile</text><polygon fill="#F1F1F1" points="35,563.4238,110,563.4238,122,575.4238,110,587.4238,35,587.4238,23,575.4238,35,563.4238" style="stroke:#181818;stroke-width:0.5;"/><text fill="#000000" font-family="sans-serif" font-size="11" lengthAdjust="spacing" textLength="18" x="76.5" y="600.0298">yes</text><text fill="#000000" font-family="sans-serif" font-size="11" lengthAdjust="spacing" textLength="75" x="35" y="580.5183">change profile?</text><polygon fill="#F1F1F1" points="72.5,746.2241,84.5,758.2241,72.5,770.2241,60.5,758.2241,72.5,746.2241" style="stroke:#181818;stroke-width:0.5;"/><rect fill="#F1F1F1" height="36.3887" rx="12.5" ry="12.5" style="stroke:#181818;stroke-width:0.5;" width="115" x="15" y="494.0352"/><text fill="#000000" font-family="sans-serif" font-size="12" lengthAdjust="spacing" textLength="95" x="25" y="517.7871">show user profile</text><polygon fill="#F1F1F1" points="40.5,818.2241,104.5,818.2241,116.5,830.2241,104.5,842.2241,40.5,842.2241,28.5,830.2241,40.5,818.2241" style="stroke:#181818;stroke-width:0.5;"/><text fill="#000000" font-family="sans-serif" font-size="11" lengthAdjust="spacing" textLength="64" x="40.5" y="835.3186">return home?</text><text fill="#000000" font-family="sans-serif" font-size="11" lengthAdjust="spacing" textLength="12" x="116.5" y="827.8071">no</text><rect fill="#F1F1F1" height="36.3887" rx="12.5" ry="12.5" style="stroke:#181818;stroke-width:0.5;" width="149" x="253.5" y="437.6465"/><text fill="#000000" font-family="sans-serif" font-size="12" lengthAdjust="spacing" textLength="129" x="263.5" y="461.3984">new CityBase(category)</text><rect fill="#F1F1F1" height="36.3887" rx="12.5" ry="12.5" style="stroke:#181818;stroke-width:0.5;" width="144" x="256" y="494.0352"/><text fill="#000000" font-family="sans-serif" font-size="12" lengthAdjust="spacing" textLength="124" x="266" y="517.7871">CityBase.loadCityList()</text><rect fill="#F1F1F1" height="36.3887" rx="12.5" ry="12.5" style="stroke:#181818;stroke-width:0.5;" width="137" x="259.5" y="550.4238"/><text fill="#000000" font-family="sans-serif" font-size="12" lengthAdjust="spacing" textLength="117" x="269.5" y="574.1758">new Game(CityBase)</text><polygon fill="#F1F1F1" points="285,621.8125,371,621.8125,383,633.8125,371,645.8125,285,645.8125,273,633.8125,285,621.8125" style="stroke:#181818;stroke-width:0.5;"/><text fill="#000000" font-family="sans-serif" font-size="11" lengthAdjust="spacing" textLength="86" x="285" y="638.907">Multiplayer Mode?</text><text fill="#000000" font-family="sans-serif" font-size="11" lengthAdjust="spacing" textLength="18" x="255" y="631.3955">yes</text><text fill="#000000" font-family="sans-serif" font-size="11" lengthAdjust="spacing" textLength="12" x="383" y="631.3955">no</text><rect fill="#F1F1F1" height="36.3887" rx="12.5" ry="12.5" style="stroke:#181818;stroke-width:0.5;" width="120" x="192" y="718.8354"/><text fill="#000000" font-family="sans-serif" font-size="12" lengthAdjust="spacing" textLength="100" x="202" y="742.5874">Game.addPlayer()</text><polygon fill="#F1F1F1" points="211.5,655.8125,292.5,655.8125,304.5,667.8125,292.5,679.8125,211.5,679.8125,199.5,667.8125,211.5,655.8125" style="stroke:#181818;stroke-width:0.5;"/><text fill="#000000" font-family="sans-serif" font-size="11" lengthAdjust="spacing" textLength="12" x="256" y="692.4185">no</text><text fill="#000000" font-family="sans-serif" font-size="11" lengthAdjust="spacing" textLength="81" x="211.5" y="672.907">Click startGame?</text><text fill="#000000" font-family="sans-serif" font-size="11" lengthAdjust="spacing" textLength="18" x="181.5" y="665.3955">yes</text><rect fill="#F1F1F1" height="36.3887" rx="12.5" ry="12.5" style="stroke:#181818;stroke-width:0.5;" width="120" x="344" y="655.8125"/><text fill="#000000" font-family="sans-serif" font-size="12" lengthAdjust="spacing" textLength="100" x="354" y="679.5645">Game.addPlayer()</text><polygon fill="#F1F1F1" points="328,785.2241,340,797.2241,328,809.2241,316,797.2241,328,785.2241" style="stroke:#181818;stroke-width:0.5;"/><rect fill="#F1F1F1" height="36.3887" rx="12.5" ry="12.5" style="stroke:#181818;stroke-width:0.5;" width="138" x="259" y="911.9785"/><text fill="#000000" font-family="sans-serif" font-size="12" lengthAdjust="spacing" textLength="118" x="269" y="935.7305">City.generatePicture()</text><polygon fill="#F1F1F1" points="293,968.3672,363,968.3672,375,980.3672,363,992.3672,293,992.3672,281,980.3672,293,968.3672" style="stroke:#181818;stroke-width:0.5;"/><text fill="#000000" font-family="sans-serif" font-size="11" lengthAdjust="spacing" textLength="70" x="293" y="985.4617">give up game?</text><text fill="#000000" font-family="sans-serif" font-size="11" lengthAdjust="spacing" textLength="18" x="375" y="977.9502">yes</text><ellipse cx="415" cy="980.3672" fill="none" rx="11" ry="11" style="stroke:#222222;stroke-width:1.0;"/><ellipse cx="415" cy="980.3672" fill="#222222" rx="6" ry="6" style="stroke:#111111;stroke-width:1.0;"/><rect fill="#F1F1F1" height="36.3887" rx="12.5" ry="12.5" style="stroke:#181818;stroke-width:0.5;" width="117" x="269.5" y="1081.8787"/><text fill="#000000" font-family="sans-serif" font-size="12" lengthAdjust="spacing" textLength="97" x="279.5" y="1105.6306">player.addScore()</text><polygon fill="#F1F1F1" points="275,1032.3672,381,1032.3672,393,1044.3672,381,1056.3672,275,1056.3672,263,1044.3672,275,1032.3672" style="stroke:#181818;stroke-width:0.5;"/><text fill="#000000" font-family="sans-serif" font-size="11" lengthAdjust="spacing" textLength="18" x="332" y="1068.9731">yes</text><text fill="#000000" font-family="sans-serif" font-size="11" lengthAdjust="spacing" textLength="106" x="275" y="1049.4617">Select correct option?</text><polygon fill="#F1F1F1" points="328,1138.2673,340,1150.2673,328,1162.2673,316,1150.2673,328,1138.2673" style="stroke:#181818;stroke-width:0.5;"/><rect fill="#F1F1F1" height="36.3887" rx="12.5" ry="12.5" style="stroke:#181818;stroke-width:0.5;" width="134" x="261" y="1182.2673"/><text fill="#000000" font-family="sans-serif" font-size="12" lengthAdjust="spacing" textLength="114" x="271" y="1206.0193">show correct answer</text><rect fill="#F1F1F1" height="36.3887" rx="12.5" ry="12.5" style="stroke:#181818;stroke-width:0.5;" width="141" x="257.5" y="1238.656"/><text fill="#000000" font-family="sans-serif" font-size="12" lengthAdjust="spacing" textLength="121" x="267.5" y="1262.408">Game.showRanking()</text><rect fill="#F1F1F1" height="36.3887" rx="12.5" ry="12.5" style="stroke:#181818;stroke-width:0.5;" width="176" x="240" y="844.2241"/><text fill="#000000" font-family="sans-serif" font-size="12" lengthAdjust="spacing" textLength="156" x="250" y="867.9761">Game.CityBase.drawCities()</text><polygon fill="#F1F1F1" points="270.5,1295.0447,385.5,1295.0447,397.5,1307.0447,385.5,1319.0447,270.5,1319.0447,258.5,1307.0447,270.5,1295.0447" style="stroke:#181818;stroke-width:0.5;"/><text fill="#000000" font-family="sans-serif" font-size="11" lengthAdjust="spacing" textLength="115" x="270.5" y="1312.1392">end game (final round)?</text><text fill="#000000" font-family="sans-serif" font-size="11" lengthAdjust="spacing" textLength="12" x="397.5" y="1304.6277">no</text><rect fill="#F1F1F1" height="36.3887" rx="12.5" ry="12.5" style="stroke:#181818;stroke-width:0.5;" width="100" x="278" y="1339.0447"/><text fill="#000000" font-family="sans-serif" font-size="12" lengthAdjust="spacing" textLength="80" x="288" y="1362.7966">new GameInfo</text><rect fill="#F1F1F1" height="36.3887" rx="12.5" ry="12.5" style="stroke:#181818;stroke-width:0.5;" width="118" x="269" y="1395.4333"/><text fill="#000000" font-family="sans-serif" font-size="12" lengthAdjust="spacing" textLength="98" x="279" y="1419.1853">new GameHistory</text><rect fill="#F1F1F1" height="36.3887" rx="12.5" ry="12.5" style="stroke:#181818;stroke-width:0.5;" width="134" x="559.5" y="437.6465"/><text fill="#000000" font-family="sans-serif" font-size="12" lengthAdjust="spacing" textLength="114" x="569.5" y="461.3984">load all users' profile</text><polygon fill="#F1F1F1" points="614.5,563.4238,638.5,563.4238,650.5,575.4238,638.5,587.4238,614.5,587.4238,602.5,575.4238,614.5,563.4238" style="stroke:#181818;stroke-width:0.5;"/><text fill="#000000" font-family="sans-serif" font-size="11" lengthAdjust="spacing" textLength="22" x="615.5" y="580.5183">Click</text><rect fill="#F1F1F1" height="36.3887" rx="12.5" ry="12.5" style="stroke:#181818;stroke-width:0.5;" width="109" x="497" y="627.4697"/><text fill="#000000" font-family="sans-serif" font-size="12" lengthAdjust="spacing" textLength="89" x="507" y="651.2217">load user profile</text><rect fill="#F1F1F1" height="36.3887" rx="12.5" ry="12.5" style="stroke:#181818;stroke-width:0.5;" width="115" x="494" y="698.8584"/><text fill="#000000" font-family="sans-serif" font-size="12" lengthAdjust="spacing" textLength="95" x="504" y="722.6104">show user profile</text><rect fill="#F1F1F1" height="36.3887" rx="12.5" ry="12.5" style="stroke:#181818;stroke-width:0.5;" width="130" x="629" y="627.4697"/><text fill="#000000" font-family="sans-serif" font-size="12" lengthAdjust="spacing" textLength="110" x="639" y="651.2217">change ranking type</text><polygon fill="#F1F1F1" points="626.5,845.2471,626.5,845.2471,638.5,857.2471,626.5,869.2471,626.5,869.2471,614.5,857.2471,626.5,845.2471" style="stroke:#181818;stroke-width:0.5;"/><rect fill="#F1F1F1" height="36.3887" rx="12.5" ry="12.5" style="stroke:#181818;stroke-width:0.5;" width="133" x="560" y="494.0352"/><text fill="#000000" font-family="sans-serif" font-size="12" lengthAdjust="spacing" textLength="113" x="570" y="517.7871">show overall ranking</text><polygon fill="#F1F1F1" points="594.5,900.6128,658.5,900.6128,670.5,912.6128,658.5,924.6128,594.5,924.6128,582.5,912.6128,594.5,900.6128" style="stroke:#181818;stroke-width:0.5;"/><text fill="#000000" font-family="sans-serif" font-size="11" lengthAdjust="spacing" textLength="64" x="594.5" y="917.7073">return home?</text><text fill="#000000" font-family="sans-serif" font-size="11" lengthAdjust="spacing" textLength="12" x="670.5" y="910.1958">no</text><rect fill="#F1F1F1" height="36.3887" rx="12.5" ry="12.5" style="stroke:#181818;stroke-width:0.5;" width="124" x="803.5" y="437.6465"/><text fill="#000000" font-family="sans-serif" font-size="12" lengthAdjust="spacing" textLength="104" x="813.5" y="461.3984">load user statistics</text><rect fill="#F1F1F1" height="36.3887" rx="12.5" ry="12.5" style="stroke:#181818;stroke-width:0.5;" width="161" x="785" y="494.0352"/><text fill="#000000" font-family="sans-serif" font-size="12" lengthAdjust="spacing" textLength="141" x="795" y="517.7871">show user's game history</text><polygon fill="#F1F1F1" points="833.5,611.4238,897.5,611.4238,909.5,623.4238,897.5,635.4238,833.5,635.4238,821.5,623.4238,833.5,611.4238" style="stroke:#181818;stroke-width:0.5;"/><text fill="#000000" font-family="sans-serif" font-size="11" lengthAdjust="spacing" textLength="64" x="833.5" y="628.5183">return home?</text><text fill="#000000" font-family="sans-serif" font-size="11" lengthAdjust="spacing" textLength="12" x="909.5" y="621.0068">no</text><polygon fill="#F1F1F1" points="473.5,1441.822,473.5,1441.822,485.5,1453.822,473.5,1465.822,473.5,1465.822,461.5,1453.822,473.5,1441.822" style="stroke:#181818;stroke-width:0.5;"/><rect fill="#F1F1F1" height="36.3887" rx="12.5" ry="12.5" style="stroke:#181818;stroke-width:0.5;" width="115" x="416" y="1485.822"/><text fill="#000000" font-family="sans-serif" font-size="12" lengthAdjust="spacing" textLength="95" x="426" y="1509.574">Update user data</text><rect fill="#F1F1F1" height="36.3887" rx="12.5" ry="12.5" style="stroke:#181818;stroke-width:0.5;" width="113" x="417" y="317.2119"/><text fill="#000000" font-family="sans-serif" font-size="12" lengthAdjust="spacing" textLength="93" x="427" y="340.9639">show homepage</text><polygon fill="#F1F1F1" points="443.5,1542.2107,503.5,1542.2107,515.5,1554.2107,503.5,1566.2107,443.5,1566.2107,431.5,1554.2107,443.5,1542.2107" style="stroke:#181818;stroke-width:0.5;"/><text fill="#000000" font-family="sans-serif" font-size="11" lengthAdjust="spacing" textLength="60" x="443.5" y="1559.3052">Click logout?</text><text fill="#000000" font-family="sans-serif" font-size="11" lengthAdjust="spacing" textLength="12" x="515.5" y="1551.7937">no</text><rect fill="#F1F1F1" height="36.3887" rx="12.5" ry="12.5" style="stroke:#181818;stroke-width:0.5;" width="54" x="446.5" y="1586.2107"/><text fill="#000000" font-family="sans-serif" font-size="12" lengthAdjust="spacing" textLength="34" x="456.5" y="1609.9626">logout</text><ellipse cx="473.5" cy="1653.5994" fill="none" rx="11" ry="11" style="stroke:#222222;stroke-width:1.0;"/><ellipse cx="473.5" cy="1653.5994" fill="#222222" rx="6" ry="6" style="stroke:#111111;stroke-width:1.0;"/><line style="stroke:#181818;stroke-width:1.0;" x1="356.5" x2="356.5" y1="150.4346" y2="170.4346"/><polygon fill="#181818" points="352.5,160.4346,356.5,170.4346,360.5,160.4346,356.5,164.4346" style="stroke:#181818;stroke-width:1.0;"/><line style="stroke:#181818;stroke-width:1.0;" x1="579" x2="579" y1="150.4346" y2="170.4346"/><polygon fill="#181818" points="575,160.4346,579,170.4346,583,160.4346,579,164.4346" style="stroke:#181818;stroke-width:1.0;"/><line style="stroke:#181818;stroke-width:1.0;" x1="579" x2="579" y1="206.8232" y2="226.8232"/><polygon fill="#181818" points="575,216.8232,579,226.8232,583,216.8232,579,220.8232" style="stroke:#181818;stroke-width:1.0;"/><line style="stroke:#181818;stroke-width:1.0;" x1="417" x2="356.5" y1="62" y2="62"/><line style="stroke:#181818;stroke-width:1.0;" x1="356.5" x2="356.5" y1="62" y2="114.0459"/><polygon fill="#181818" points="352.5,104.0459,356.5,114.0459,360.5,104.0459,356.5,108.0459" style="stroke:#181818;stroke-width:1.0;"/><text fill="#000000" font-family="sans-serif" font-size="11" lengthAdjust="spacing" textLength="26" x="356.5" y="93.1174">Login</text><line style="stroke:#181818;stroke-width:1.0;" x1="530" x2="579" y1="62" y2="62"/><line style="stroke:#181818;stroke-width:1.0;" x1="579" x2="579" y1="62" y2="114.0459"/><polygon fill="#181818" points="575,104.0459,579,114.0459,583,104.0459,579,108.0459" style="stroke:#181818;stroke-width:1.0;"/><text fill="#000000" font-family="sans-serif" font-size="11" lengthAdjust="spacing" textLength="40" x="579" y="93.1174">Register</text><line style="stroke:#181818;stroke-width:1.0;" x1="356.5" x2="356.5" y1="206.8232" y2="285.2119"/><line style="stroke:#181818;stroke-width:1.0;" x1="356.5" x2="461.5" y1="285.2119" y2="285.2119"/><polygon fill="#181818" points="451.5,281.2119,461.5,285.2119,451.5,289.2119,455.5,285.2119" style="stroke:#181818;stroke-width:1.0;"/><line style="stroke:#181818;stroke-width:1.0;" x1="579" x2="579" y1="263.2119" y2="285.2119"/><line style="stroke:#181818;stroke-width:1.0;" x1="579" x2="485.5" y1="285.2119" y2="285.2119"/><polygon fill="#181818" points="495.5,281.2119,485.5,285.2119,495.5,289.2119,491.5,285.2119" style="stroke:#181818;stroke-width:1.0;"/><line style="stroke:#181818;stroke-width:1.0;" x1="473.5" x2="473.5" y1="30" y2="50"/><polygon fill="#181818" points="469.5,40,473.5,50,477.5,40,473.5,44" style="stroke:#181818;stroke-width:1.0;"/><line style="stroke:#181818;stroke-width:1.0;" x1="72.5" x2="72.5" y1="649.324" y2="684.324"/><polygon fill="#181818" points="68.5,674.324,72.5,684.324,76.5,674.324,72.5,678.324" style="stroke:#181818;stroke-width:1.0;"/><line style="stroke:#181818;stroke-width:1.0;" x1="72.5" x2="72.5" y1="587.4238" y2="612.9353"/><polygon fill="#181818" points="68.5,602.9353,72.5,612.9353,76.5,602.9353,72.5,606.9353" style="stroke:#181818;stroke-width:1.0;"/><line style="stroke:#181818;stroke-width:1.0;" x1="122" x2="144" y1="575.4238" y2="575.4238"/><polygon fill="#181818" points="140,656.824,144,666.824,148,656.824,144,660.824" style="stroke:#181818;stroke-width:1.0;"/><line style="stroke:#181818;stroke-width:1.0;" x1="144" x2="144" y1="575.4238" y2="758.2241"/><line style="stroke:#181818;stroke-width:1.0;" x1="144" x2="84.5" y1="758.2241" y2="758.2241"/><polygon fill="#181818" points="94.5,754.2241,84.5,758.2241,94.5,762.2241,90.5,758.2241" style="stroke:#181818;stroke-width:1.0;"/><line style="stroke:#181818;stroke-width:1.0;" x1="72.5" x2="72.5" y1="720.7126" y2="746.2241"/><polygon fill="#181818" points="68.5,736.2241,72.5,746.2241,76.5,736.2241,72.5,740.2241" style="stroke:#181818;stroke-width:1.0;"/><line style="stroke:#181818;stroke-width:1.0;" x1="72.5" x2="72.5" y1="530.4238" y2="563.4238"/><polygon fill="#181818" points="68.5,553.4238,72.5,563.4238,76.5,553.4238,72.5,557.4238" style="stroke:#181818;stroke-width:1.0;"/><line style="stroke:#181818;stroke-width:1.0;" x1="116.5" x2="162" y1="830.2241" y2="830.2241"/><polygon fill="#181818" points="158,673.7268,162,663.7268,166,673.7268,162,669.7268" style="stroke:#181818;stroke-width:1.0;"/><line style="stroke:#181818;stroke-width:1.0;" x1="162" x2="162" y1="512.2295" y2="830.2241"/><line style="stroke:#181818;stroke-width:1.0;" x1="162" x2="130" y1="512.2295" y2="512.2295"/><polygon fill="#181818" points="140,508.2295,130,512.2295,140,516.2295,136,512.2295" style="stroke:#181818;stroke-width:1.0;"/><line style="stroke:#181818;stroke-width:1.0;" x1="72.5" x2="72.5" y1="770.2241" y2="818.2241"/><polygon fill="#181818" points="68.5,808.2241,72.5,818.2241,76.5,808.2241,72.5,812.2241" style="stroke:#181818;stroke-width:1.0;"/><line style="stroke:#181818;stroke-width:1.0;" x1="72.5" x2="72.5" y1="474.0352" y2="494.0352"/><polygon fill="#181818" points="68.5,484.0352,72.5,494.0352,76.5,484.0352,72.5,488.0352" style="stroke:#181818;stroke-width:1.0;"/><line style="stroke:#181818;stroke-width:1.0;" x1="328" x2="328" y1="474.0352" y2="494.0352"/><polygon fill="#181818" points="324,484.0352,328,494.0352,332,484.0352,328,488.0352" style="stroke:#181818;stroke-width:1.0;"/><line style="stroke:#181818;stroke-width:1.0;" x1="328" x2="328" y1="530.4238" y2="550.4238"/><polygon fill="#181818" points="324,540.4238,328,550.4238,332,540.4238,328,544.4238" style="stroke:#181818;stroke-width:1.0;"/><line style="stroke:#181818;stroke-width:1.0;" x1="252" x2="252" y1="679.8125" y2="718.8354"/><polygon fill="#181818" points="248,708.8354,252,718.8354,256,708.8354,252,712.8354" style="stroke:#181818;stroke-width:1.0;"/><line style="stroke:#181818;stroke-width:1.0;" x1="252" x2="252" y1="755.2241" y2="767.2241"/><line style="stroke:#181818;stroke-width:1.0;" x1="252" x2="324" y1="767.2241" y2="767.2241"/><polygon fill="#181818" points="320,727.5183,324,717.5183,328,727.5183,324,723.5183" style="stroke:#181818;stroke-width:1.0;"/><line style="stroke:#181818;stroke-width:1.0;" x1="324" x2="324" y1="667.8125" y2="767.2241"/><line style="stroke:#181818;stroke-width:1.0;" x1="324" x2="304.5" y1="667.8125" y2="667.8125"/><polygon fill="#181818" points="314.5,663.8125,304.5,667.8125,314.5,671.8125,310.5,667.8125" style="stroke:#181818;stroke-width:1.0;"/><line style="stroke:#181818;stroke-width:1.0;" x1="199.5" x2="180" y1="667.8125" y2="667.8125"/><polygon fill="#181818" points="176,722.5183,180,732.5183,184,722.5183,180,726.5183" style="stroke:#181818;stroke-width:1.0;"/><line style="stroke:#181818;stroke-width:1.0;" x1="180" x2="180" y1="667.8125" y2="797.2241"/><line style="stroke:#181818;stroke-width:1.0;" x1="180" x2="316" y1="797.2241" y2="797.2241"/><polygon fill="#181818" points="306,793.2241,316,797.2241,306,801.2241,310,797.2241" style="stroke:#181818;stroke-width:1.0;"/><line style="stroke:#181818;stroke-width:1.0;" x1="273" x2="252" y1="633.8125" y2="633.8125"/><line style="stroke:#181818;stroke-width:1.0;" x1="252" x2="252" y1="633.8125" y2="655.8125"/><polygon fill="#181818" points="248,645.8125,252,655.8125,256,645.8125,252,649.8125" style="stroke:#181818;stroke-width:1.0;"/><line style="stroke:#181818;stroke-width:1.0;" x1="383" x2="404" y1="633.8125" y2="633.8125"/><line style="stroke:#181818;stroke-width:1.0;" x1="404" x2="404" y1="633.8125" y2="655.8125"/><polygon fill="#181818" points="400,645.8125,404,655.8125,408,645.8125,404,649.8125" style="stroke:#181818;stroke-width:1.0;"/><line style="stroke:#181818;stroke-width:1.0;" x1="404" x2="404" y1="692.2012" y2="797.2241"/><line style="stroke:#181818;stroke-width:1.0;" x1="404" x2="340" y1="797.2241" y2="797.2241"/><polygon fill="#181818" points="350,793.2241,340,797.2241,350,801.2241,346,797.2241" style="stroke:#181818;stroke-width:1.0;"/><line style="stroke:#181818;stroke-width:1.0;" x1="328" x2="328" y1="586.8125" y2="621.8125"/><polygon fill="#181818" points="324,611.8125,328,621.8125,332,611.8125,328,615.8125" style="stroke:#181818;stroke-width:1.0;"/><line style="stroke:#181818;stroke-width:1.0;" x1="328" x2="328" y1="992.3672" y2="1032.3672"/><polygon fill="#181818" points="324,1022.3672,328,1032.3672,332,1022.3672,328,1026.3672" style="stroke:#181818;stroke-width:1.0;"/><line style="stroke:#181818;stroke-width:1.0;" x1="375" x2="404" y1="980.3672" y2="980.3672"/><polygon fill="#181818" points="394,976.3672,404,980.3672,394,984.3672,398,980.3672" style="stroke:#181818;stroke-width:1.0;"/><line style="stroke:#181818;stroke-width:1.0;" x1="328" x2="328" y1="948.3672" y2="968.3672"/><polygon fill="#181818" points="324,958.3672,328,968.3672,332,958.3672,328,962.3672" style="stroke:#181818;stroke-width:1.0;"/><line style="stroke:#181818;stroke-width:1.0;" x1="328" x2="328" y1="1056.3672" y2="1081.8787"/><polygon fill="#181818" points="324,1071.8787,328,1081.8787,332,1071.8787,328,1075.8787" style="stroke:#181818;stroke-width:1.0;"/><line style="stroke:#181818;stroke-width:1.0;" x1="393" x2="405" y1="1044.3672" y2="1044.3672"/><polygon fill="#181818" points="401,1090.073,405,1100.073,409,1090.073,405,1094.073" style="stroke:#181818;stroke-width:1.0;"/><line style="stroke:#181818;stroke-width:1.0;" x1="405" x2="405" y1="1044.3672" y2="1150.2673"/><line style="stroke:#181818;stroke-width:1.0;" x1="405" x2="340" y1="1150.2673" y2="1150.2673"/><polygon fill="#181818" points="350,1146.2673,340,1150.2673,350,1154.2673,346,1150.2673" style="stroke:#181818;stroke-width:1.0;"/><line style="stroke:#181818;stroke-width:1.0;" x1="328" x2="328" y1="1118.2673" y2="1138.2673"/><polygon fill="#181818" points="324,1128.2673,328,1138.2673,332,1128.2673,328,1132.2673" style="stroke:#181818;stroke-width:1.0;"/><line style="stroke:#181818;stroke-width:1.0;" x1="328" x2="328" y1="1162.2673" y2="1182.2673"/><polygon fill="#181818" points="324,1172.2673,328,1182.2673,332,1172.2673,328,1176.2673" style="stroke:#181818;stroke-width:1.0;"/><line style="stroke:#181818;stroke-width:1.0;" x1="328" x2="328" y1="1218.656" y2="1238.656"/><polygon fill="#181818" points="324,1228.656,328,1238.656,332,1228.656,328,1232.656" style="stroke:#181818;stroke-width:1.0;"/><line style="stroke:#181818;stroke-width:1.0;" x1="328" x2="328" y1="880.6128" y2="911.9785"/><polygon fill="#181818" points="324,901.9785,328,911.9785,332,901.9785,328,905.9785" style="stroke:#181818;stroke-width:1.0;"/><line style="stroke:#181818;stroke-width:1.0;" x1="397.5" x2="450" y1="1307.0447" y2="1307.0447"/><polygon fill="#181818" points="446,1089.1702,450,1079.1702,454,1089.1702,450,1085.1702" style="stroke:#181818;stroke-width:1.0;"/><line style="stroke:#181818;stroke-width:1.0;" x1="450" x2="450" y1="862.4185" y2="1307.0447"/><line style="stroke:#181818;stroke-width:1.0;" x1="450" x2="416" y1="862.4185" y2="862.4185"/><polygon fill="#181818" points="426,858.4185,416,862.4185,426,866.4185,422,862.4185" style="stroke:#181818;stroke-width:1.0;"/><line style="stroke:#181818;stroke-width:1.0;" x1="328" x2="328" y1="1275.0447" y2="1295.0447"/><polygon fill="#181818" points="324,1285.0447,328,1295.0447,332,1285.0447,328,1289.0447" style="stroke:#181818;stroke-width:1.0;"/><line style="stroke:#181818;stroke-width:1.0;" x1="328" x2="328" y1="809.2241" y2="844.2241"/><polygon fill="#181818" points="324,834.2241,328,844.2241,332,834.2241,328,838.2241" style="stroke:#181818;stroke-width:1.0;"/><line style="stroke:#181818;stroke-width:1.0;" x1="328" x2="328" y1="1319.0447" y2="1339.0447"/><polygon fill="#181818" points="324,1329.0447,328,1339.0447,332,1329.0447,328,1333.0447" style="stroke:#181818;stroke-width:1.0;"/><line style="stroke:#181818;stroke-width:1.0;" x1="328" x2="328" y1="1375.4333" y2="1395.4333"/><polygon fill="#181818" points="324,1385.4333,328,1395.4333,332,1385.4333,328,1389.4333" style="stroke:#181818;stroke-width:1.0;"/><line style="stroke:#181818;stroke-width:1.0;" x1="551.5" x2="551.5" y1="663.8584" y2="698.8584"/><polygon fill="#181818" points="547.5,688.8584,551.5,698.8584,555.5,688.8584,551.5,692.8584" style="stroke:#181818;stroke-width:1.0;"/><line style="stroke:#181818;stroke-width:1.0;" x1="602.5" x2="551.5" y1="575.4238" y2="575.4238"/><line style="stroke:#181818;stroke-width:1.0;" x1="551.5" x2="551.5" y1="575.4238" y2="627.4697"/><polygon fill="#181818" points="547.5,617.4697,551.5,627.4697,555.5,617.4697,551.5,621.4697" style="stroke:#181818;stroke-width:1.0;"/><text fill="#000000" font-family="sans-serif" font-size="11" lengthAdjust="spacing" textLength="22" x="551.5" y="606.5413">user</text><line style="stroke:#181818;stroke-width:1.0;" x1="650.5" x2="694" y1="575.4238" y2="575.4238"/><line style="stroke:#181818;stroke-width:1.0;" x1="694" x2="694" y1="575.4238" y2="627.4697"/><polygon fill="#181818" points="690,617.4697,694,627.4697,698,617.4697,694,621.4697" style="stroke:#181818;stroke-width:1.0;"/><text fill="#000000" font-family="sans-serif" font-size="11" lengthAdjust="spacing" textLength="43" x="694" y="606.5413">category</text><line style="stroke:#181818;stroke-width:1.0;" x1="551.5" x2="551.5" y1="735.2471" y2="857.2471"/><line style="stroke:#181818;stroke-width:1.0;" x1="551.5" x2="614.5" y1="857.2471" y2="857.2471"/><polygon fill="#181818" points="604.5,853.2471,614.5,857.2471,604.5,861.2471,608.5,857.2471" style="stroke:#181818;stroke-width:1.0;"/><line style="stroke:#181818;stroke-width:1.0;" x1="694" x2="694" y1="663.8584" y2="857.2471"/><line style="stroke:#181818;stroke-width:1.0;" x1="694" x2="638.5" y1="857.2471" y2="857.2471"/><polygon fill="#181818" points="648.5,853.2471,638.5,857.2471,648.5,861.2471,644.5,857.2471" style="stroke:#181818;stroke-width:1.0;"/><line style="stroke:#181818;stroke-width:1.0;" x1="626.5" x2="626.5" y1="530.4238" y2="563.4238"/><polygon fill="#181818" points="622.5,553.4238,626.5,563.4238,630.5,553.4238,626.5,557.4238" style="stroke:#181818;stroke-width:1.0;"/><line style="stroke:#181818;stroke-width:1.0;" x1="670.5" x2="771" y1="912.6128" y2="912.6128"/><polygon fill="#181818" points="767,723.2383,771,713.2383,775,723.2383,771,719.2383" style="stroke:#181818;stroke-width:1.0;"/><line style="stroke:#181818;stroke-width:1.0;" x1="771" x2="771" y1="512.2295" y2="912.6128"/><line style="stroke:#181818;stroke-width:1.0;" x1="771" x2="693" y1="512.2295" y2="512.2295"/><polygon fill="#181818" points="703,508.2295,693,512.2295,703,516.2295,699,512.2295" style="stroke:#181818;stroke-width:1.0;"/><line style="stroke:#181818;stroke-width:1.0;" x1="626.5" x2="626.5" y1="869.2471" y2="900.6128"/><polygon fill="#181818" points="622.5,890.6128,626.5,900.6128,630.5,890.6128,626.5,894.6128" style="stroke:#181818;stroke-width:1.0;"/><line style="stroke:#181818;stroke-width:1.0;" x1="626.5" x2="626.5" y1="474.0352" y2="494.0352"/><polygon fill="#181818" points="622.5,484.0352,626.5,494.0352,630.5,484.0352,626.5,488.0352" style="stroke:#181818;stroke-width:1.0;"/><line style="stroke:#181818;stroke-width:1.0;" x1="865.5" x2="865.5" y1="530.4238" y2="611.4238"/><polygon fill="#181818" points="861.5,601.4238,865.5,611.4238,869.5,601.4238,865.5,605.4238" style="stroke:#181818;stroke-width:1.0;"/><line style="stroke:#181818;stroke-width:1.0;" x1="909.5" x2="958" y1="623.4238" y2="623.4238"/><polygon fill="#181818" points="954,570.3267,958,560.3267,962,570.3267,958,566.3267" style="stroke:#181818;stroke-width:1.0;"/><line style="stroke:#181818;stroke-width:1.0;" x1="958" x2="958" y1="512.2295" y2="623.4238"/><line style="stroke:#181818;stroke-width:1.0;" x1="958" x2="946" y1="512.2295" y2="512.2295"/><polygon fill="#181818" points="956,508.2295,946,512.2295,956,516.2295,952,512.2295" style="stroke:#181818;stroke-width:1.0;"/><line style="stroke:#181818;stroke-width:1.0;" x1="865.5" x2="865.5" y1="474.0352" y2="494.0352"/><polygon fill="#181818" points="861.5,484.0352,865.5,494.0352,869.5,484.0352,865.5,488.0352" style="stroke:#181818;stroke-width:1.0;"/><line style="stroke:#181818;stroke-width:1.0;" x1="418.5" x2="72.5" y1="385.6006" y2="385.6006"/><line style="stroke:#181818;stroke-width:1.0;" x1="72.5" x2="72.5" y1="385.6006" y2="437.6465"/><polygon fill="#181818" points="68.5,427.6465,72.5,437.6465,76.5,427.6465,72.5,431.6465" style="stroke:#181818;stroke-width:1.0;"/><text fill="#000000" font-family="sans-serif" font-size="11" lengthAdjust="spacing" textLength="47" x="72.5" y="416.718">My Profile</text><line style="stroke:#181818;stroke-width:1.0;" x1="528.5" x2="865.5" y1="385.6006" y2="385.6006"/><line style="stroke:#181818;stroke-width:1.0;" x1="865.5" x2="865.5" y1="385.6006" y2="437.6465"/><polygon fill="#181818" points="861.5,427.6465,865.5,437.6465,869.5,427.6465,865.5,431.6465" style="stroke:#181818;stroke-width:1.0;"/><text fill="#000000" font-family="sans-serif" font-size="11" lengthAdjust="spacing" textLength="34" x="865.5" y="416.718">History</text><line style="stroke:#181818;stroke-width:1.0;" x1="328" x2="328" y1="385.6006" y2="437.6465"/><polygon fill="#181818" points="324,427.6465,328,437.6465,332,427.6465,328,431.6465" style="stroke:#181818;stroke-width:1.0;"/><text fill="#000000" font-family="sans-serif" font-size="11" lengthAdjust="spacing" textLength="54" x="328" y="411.718">Start Game</text><line style="stroke:#181818;stroke-width:1.0;" x1="626.5" x2="626.5" y1="385.6006" y2="437.6465"/><polygon fill="#181818" points="622.5,427.6465,626.5,437.6465,630.5,427.6465,626.5,431.6465" style="stroke:#181818;stroke-width:1.0;"/><text fill="#000000" font-family="sans-serif" font-size="11" lengthAdjust="spacing" textLength="38" x="626.5" y="411.718">Ranking</text><line style="stroke:#181818;stroke-width:1.0;" x1="72.5" x2="72.5" y1="842.2241" y2="1453.822"/><line style="stroke:#181818;stroke-width:1.0;" x1="72.5" x2="461.5" y1="1453.822" y2="1453.822"/><polygon fill="#181818" points="451.5,1449.822,461.5,1453.822,451.5,1457.822,455.5,1453.822" style="stroke:#181818;stroke-width:1.0;"/><line style="stroke:#181818;stroke-width:1.0;" x1="865.5" x2="865.5" y1="635.4238" y2="1453.822"/><line style="stroke:#181818;stroke-width:1.0;" x1="865.5" x2="485.5" y1="1453.822" y2="1453.822"/><polygon fill="#181818" points="495.5,1449.822,485.5,1453.822,495.5,1457.822,491.5,1453.822" style="stroke:#181818;stroke-width:1.0;"/><line style="stroke:#181818;stroke-width:1.0;" x1="328" x2="328" y1="1431.822" y2="1453.822"/><polygon fill="#181818" points="324,1443.822,328,1453.822,332,1443.822,328,1447.822" style="stroke:#181818;stroke-width:1.0;"/><line style="stroke:#181818;stroke-width:1.0;" x1="626.5" x2="626.5" y1="924.6128" y2="1453.822"/><polygon fill="#181818" points="622.5,1443.822,626.5,1453.822,630.5,1443.822,626.5,1447.822" style="stroke:#181818;stroke-width:1.0;"/><line style="stroke:#181818;stroke-width:1.0;" x1="473.5" x2="473.5" y1="1465.822" y2="1485.822"/><polygon fill="#181818" points="469.5,1475.822,473.5,1485.822,477.5,1475.822,473.5,1479.822" style="stroke:#181818;stroke-width:1.0;"/><line style="stroke:#181818;stroke-width:1.0;" x1="473.5" x2="473.5" y1="353.6006" y2="373.6006"/><polygon fill="#181818" points="469.5,363.6006,473.5,373.6006,477.5,363.6006,473.5,367.6006" style="stroke:#181818;stroke-width:1.0;"/><line style="stroke:#181818;stroke-width:1.0;" x1="515.5" x2="976" y1="1554.2107" y2="1554.2107"/><polygon fill="#181818" points="972,1012.3672,976,1002.3672,980,1012.3672,976,1008.3672" style="stroke:#181818;stroke-width:1.0;"/><line style="stroke:#181818;stroke-width:1.0;" x1="976" x2="976" y1="335.4063" y2="1554.2107"/><line style="stroke:#181818;stroke-width:1.0;" x1="976" x2="530" y1="335.4063" y2="335.4063"/><polygon fill="#181818" points="540,331.4063,530,335.4063,540,339.4063,536,335.4063" style="stroke:#181818;stroke-width:1.0;"/><line style="stroke:#181818;stroke-width:1.0;" x1="473.5" x2="473.5" y1="1522.2107" y2="1542.2107"/><polygon fill="#181818" points="469.5,1532.2107,473.5,1542.2107,477.5,1532.2107,473.5,1536.2107" style="stroke:#181818;stroke-width:1.0;"/><line style="stroke:#181818;stroke-width:1.0;" x1="473.5" x2="473.5" y1="297.2119" y2="317.2119"/><polygon fill="#181818" points="469.5,307.2119,473.5,317.2119,477.5,307.2119,473.5,311.2119" style="stroke:#181818;stroke-width:1.0;"/><line style="stroke:#181818;stroke-width:1.0;" x1="473.5" x2="473.5" y1="1566.2107" y2="1586.2107"/><polygon fill="#181818" points="469.5,1576.2107,473.5,1586.2107,477.5,1576.2107,473.5,1580.2107" style="stroke:#181818;stroke-width:1.0;"/><line style="stroke:#181818;stroke-width:1.0;" x1="473.5" x2="473.5" y1="1622.5994" y2="1642.5994"/><polygon fill="#181818" points="469.5,1632.5994,473.5,1642.5994,477.5,1632.5994,473.5,1636.5994" style="stroke:#181818;stroke-width:1.0;"/><!--MD5=[67b454eea60151d89e53e81cc737262c]
@startuml
'https://plantuml.com/activity-diagram-beta

start
switch (CLick in login page)
case (Login)
    :Enter username and password;
    :Check password;
case (Register)
    :Choose username & Set password;
    :new User;
    :Create user profile;
endswitch
'========= success login =========

repeat :show homepage;
switch (Click in homepage)
case (My Profile)
    :load user profile;
    repeat :show user profile;
    if (change profile?) then(yes)
        :update user profile;
        :save user profile;
    endif
    repeat while(return home?) is(no)

case (Start Game)
    :new CityBase(category);
    :CityBase.loadCityList();
    :new Game(CityBase);
    if (Multiplayer Mode?) then(yes)
'        :generate shared link;
        while(Click startGame?) is(no)
            :Game.addPlayer();
        endwhile (yes)
    else (no)
        :Game.addPlayer();
    endif

    repeat :Game.CityBase.drawCities();
        :City.generatePicture();
'        :show options and Picture;
        if (give up game?) then(yes)
            stop
        endif
        if (Select correct option?) then(yes)
            :player.addScore();
        endif
        :show correct answer;
        :Game.showRanking();
    repeat while(end game (final round)?) is(no)

'    if (record score?) then (yes)
'        :UserStatistic.addScore();
'    endif
    :new GameInfo;
    :new GameHistory;

case (Ranking)
    :load all users' profile;
    repeat :show overall ranking;
    switch (Click)
    case (user)
        :load user profile;
        :show user profile;
    case (category)
        :change ranking type;
    endswitch
    repeat while(return home?) is(no)

case (History)
    :load user statistics;
    repeat :show user's game history;
    repeat while(return home?) is(no)
endswitch

:Update user data;
repeat while(Click logout?) is(no)
:logout;
stop

@enduml

@startuml

start
switch (CLick in login page)
case (Login)
    :Enter username and password;
    :Check password;
case (Register)
    :Choose username & Set password;
    :new User;
    :Create user profile;
endswitch

repeat :show homepage;
switch (Click in homepage)
case (My Profile)
    :load user profile;
    repeat :show user profile;
    if (change profile?) then(yes)
        :update user profile;
        :save user profile;
    endif
    repeat while(return home?) is(no)

case (Start Game)
    :new CityBase(category);
    :CityBase.loadCityList();
    :new Game(CityBase);
    if (Multiplayer Mode?) then(yes)
        while(Click startGame?) is(no)
            :Game.addPlayer();
        endwhile (yes)
    else (no)
        :Game.addPlayer();
    endif

    repeat :Game.CityBase.drawCities();
        :City.generatePicture();
        if (give up game?) then(yes)
            stop
        endif
        if (Select correct option?) then(yes)
            :player.addScore();
        endif
        :show correct answer;
        :Game.showRanking();
    repeat while(end game (final round)?) is(no)

    :new GameInfo;
    :new GameHistory;

case (Ranking)
    :load all users' profile;
    repeat :show overall ranking;
    switch (Click)
    case (user)
        :load user profile;
        :show user profile;
    case (category)
        :change ranking type;
    endswitch
    repeat while(return home?) is(no)

case (History)
    :load user statistics;
    repeat :show user's game history;
    repeat while(return home?) is(no)
endswitch

:Update user data;
repeat while(Click logout?) is(no)
:logout;
stop

@enduml

PlantUML version 1.2022.12(Sun Oct 23 20:12:26 CEST 2022)
(GPL source distribution)
Java Runtime: OpenJDK Runtime Environment
JVM: OpenJDK 64-Bit Server VM
Default Encoding: GBK
Language: zh
Country: CN
--></g></svg>